<svg width="452" height="389" viewBox="0 0 452 389" fill="none" xmlns="http://www.w3.org/2000/svg">
<path fill-rule="evenodd" clip-rule="evenodd" d="M350.982 311.399C353.539 319.552 351.908 329.065 346.051 335.771C342.268 340.102 333.272 343.975 328.222 339.466C325.964 337.449 325.009 330.546 324.044 327.325C323.157 324.362 321.673 318.876 322.332 316.391C323.292 312.769 330.96 313.606 334.545 313.289C340.045 312.802 345.506 312.063 350.982 311.399ZM423.344 315.54C424.549 318.035 426.469 319.689 427.288 322.458C427.824 324.265 428.146 326.078 428.358 327.934C428.615 330.182 428.79 330.096 427.142 331.147C424.629 332.751 418.198 332.627 415.139 333.092C411.147 333.699 407.174 334.414 403.179 335.019C404.147 331.519 403.64 327.752 404.64 324.182C405.613 320.714 407.306 317.29 409.697 314.441C411.475 312.321 414.061 309.781 417.259 309.768C421.381 309.751 422.032 312.822 423.344 315.54ZM169.854 240.552C170.465 248.056 169.33 256.046 164.796 262.494C162.877 265.225 160.081 266.693 157.811 269.045C155.185 271.766 153.761 275.129 149.612 276.293C146.935 277.045 143.793 276.526 141.01 276.864C136.39 277.426 135.026 276.817 131.13 274.566C128.332 272.948 125.106 273.251 122.155 271.478C118.617 269.352 115.536 266.32 112.185 263.912C130.993 255.238 150.383 247.852 169.854 240.552ZM220.412 245.002C227.611 248.191 231.417 253.629 233.474 260.649C213.618 264.922 194.294 270.148 174.791 276.042C180.237 263.002 186.353 251.061 201.25 244.995C204.223 243.785 207.277 241.858 210.66 241.904C214.029 241.949 217.458 243.694 220.412 245.002ZM401.512 264.334C411.745 269.404 406.543 285.607 402.968 292.801C398.417 289.65 393.646 286.581 389.202 283.512C384.345 280.158 379.978 275.841 375.547 272.02C377.893 270.869 379.418 269.037 381.599 267.721C383.758 266.418 385.9 266.325 388.318 265.816C392.95 264.841 396.698 261.948 401.512 264.334ZM321.659 227.824C322.476 228.81 323.452 229.74 324.222 230.754C326.091 233.215 327.707 235.717 329.874 238.001C333.714 242.047 339.303 247.379 345.593 247.748L345.775 249.476C343.92 249.432 342.823 247.928 341.214 247.775C339.951 247.655 338.182 248.564 336.633 248.435C331.843 248.038 327.136 247.811 322.273 247.933C312.675 248.172 303.24 249.613 293.805 250.761C295.608 244.713 298.972 238.519 304.332 234.473C306.185 233.074 307.961 231.152 310.053 230.037C311.313 229.366 312.646 229.315 313.942 228.79C315.442 228.184 317.368 226.159 318.917 225.965C320.536 225.762 320.543 226.475 321.659 227.824ZM398.575 228.375C403.61 232.18 407.479 237.007 411.619 241.577C415.367 245.713 420.445 251.614 421.778 256.939C415.132 259.882 403.734 257.188 399.446 251.744C394.16 245.03 396.751 235.684 398.575 228.375ZM283.319 206.68C282.327 212.989 279.105 220.02 274.27 224.731C272.185 226.762 270.359 229.411 267.99 231.188C264.897 233.507 262.407 232.319 258.817 232.679C254.962 233.065 252.463 235.433 248.354 234.79C245.427 234.332 242.73 232.806 239.98 232.343C236.975 231.837 234.352 232.137 231.365 230.737C227.67 229.006 224.722 225.598 221.848 223.011C223.361 221.884 226.415 221.802 228.35 221.193C230.906 220.388 233.458 219.59 236.028 218.819C241.336 217.226 246.63 215.599 251.949 214.033C262.079 211.05 272.775 208.216 283.319 206.68Z" fill="#FFE202"/>
<path fill-rule="evenodd" clip-rule="evenodd" d="M442.243 50.9003L441.912 52.9922C445.147 53.5169 445.242 51.6783 442.243 50.9003ZM428.169 47.2937C426.435 46.7244 423.599 47.5589 424.963 49.5084C426.887 52.2613 427.764 48.6675 428.169 47.2937ZM288.329 123.527C288.59 123.282 285.517 117.754 285.12 116.826C283.136 117.892 283.002 117.634 283.81 119.416C284.508 120.953 286.936 122.513 288.329 123.527ZM107.11 125.043C106.163 124.965 104.276 124.434 103.472 124.744C102.348 125.177 102.65 126.181 102.514 127.646C105.801 127.502 106.261 127.912 107.11 125.043ZM102.848 122.008C104.455 122.28 106.061 122.551 107.668 122.823C108.011 121.09 108.919 118.226 105.532 119.272C105.213 119.37 103.255 121.444 102.848 122.008ZM292.128 125.57C290.419 127.169 298.351 130.552 299.169 129.468C300.953 127.104 293.281 125.924 292.128 125.57ZM331.364 106.677C332.324 106.589 333.283 106.499 334.242 106.411C333.911 105.093 332.901 100.237 330.802 100.498C328.716 100.757 331.068 105.65 331.364 106.677ZM334.864 114.605C334.891 113.511 335.367 111.084 334.912 110.03C334.603 109.314 333.331 107.139 331.503 108.552C331.114 108.853 330.936 113.234 331.055 113.376C331.553 113.972 334.154 114.376 334.864 114.605ZM324.947 128.657C322.977 127.239 318.695 125.149 316.799 128.353C314.156 132.82 323.238 129.834 324.947 128.657ZM313.689 129.029C311.103 129.485 308.491 129.426 305.873 129.253C302.94 129.06 302.245 128.217 301.391 130.861C304.537 131.934 311.236 132.679 314.419 131.658C314.176 130.782 313.932 129.905 313.689 129.029ZM329.999 116.894C329.093 118.64 327.132 120.927 326.604 122.749C326.215 124.093 326.062 123.421 326.388 124.464C326.504 124.836 328.096 126.393 328.375 126.769C330.308 125.391 332.64 123.984 333.63 121.861C335.215 118.463 333.177 118.191 329.999 116.894ZM286.011 109.742C279.436 111.668 271.36 113.554 264.4 112.98C264.309 113.541 276.204 116.804 277.626 116.569C279.08 116.328 279.195 114.422 280.937 113.404C282.856 112.282 284.442 112.95 286.564 112.775C286.38 111.764 286.196 110.753 286.011 109.742ZM307.655 135.68C301.603 135.316 296.196 133.955 290.842 131.362C287.768 129.874 285.559 127.715 283.504 125.224C281.912 123.294 282.238 123.452 279.738 122.798C277.892 122.315 275.621 122.511 273.724 122.287C267.376 121.535 261.049 119.724 255.011 117.839C248.236 115.723 242.399 112.74 234.956 112.914C222.176 113.214 211.81 122.319 198.479 118.495C193.189 116.978 187.71 114.964 183.432 111.711C177.869 107.481 174.491 104.975 166.651 106.474C160.339 107.68 155.497 110.828 150.089 113.73C143.926 117.037 137.2 119.019 130.328 120.766C127.636 121.45 125.143 121.848 122.322 121.981C120.644 122.06 112.691 120.921 111.709 121.726C110.758 122.504 110.326 127.872 110.427 128.851C110.596 130.486 109.83 130.655 111.685 131.344C112.974 131.822 116.953 131.338 118.55 131.509C131.399 132.891 144.563 133.305 157.207 135.389C169.09 137.348 181.016 138.933 192.765 141.23C208.05 144.219 223.616 145.582 238.908 148.476C246.3 149.875 253.754 151.845 261.06 153.335C267.712 154.691 274.395 155.95 281.086 157.179C280.84 156.314 279.45 153.161 281.669 153.452C283.076 153.636 285.436 158.208 286.178 159.237C289.593 163.973 293.23 167.568 297.875 171.337C302.557 175.136 307.271 178.895 312.023 182.623C315.906 185.669 324.245 190.212 324.03 195.531C321.665 195.954 316.97 192.011 315.2 190.943C311.618 188.78 308.183 186.424 304.843 183.964C301.7 188.292 309.149 193.309 309.994 197.403C308.079 197.41 304.88 192.448 303.717 191.133C300.63 193.843 297.164 196.232 294.941 199.635C319.857 198.634 323.942 227.725 341.928 237.586C345.913 239.77 350.905 240.673 355.461 239.713C360.207 238.714 364.768 237.304 368.943 234.78C378.268 229.143 385.101 218.306 388.75 209C390.765 203.861 392.667 198.883 393.579 193.475C394.588 187.486 393.639 181.4 392.817 175.432C391.353 164.8 385.35 154.066 376.847 146.461C373.036 143.052 368.874 140.069 365.384 136.348C364.166 135.049 361.387 130.076 359.859 129.765C357.043 129.191 355.59 132.91 353.642 129.866C351.734 126.885 355.373 125.722 357.589 124.334C359.98 122.835 362.298 121.259 364.634 119.695C369.254 116.6 373.827 113.558 378.263 110.263C399.897 94.2008 419.022 76.2931 438.396 58.041C434.769 57.2332 429.61 54.9103 425.922 55.5298C422.233 56.1502 418.956 58.6073 415.067 59.0146C411.278 59.4112 407.598 58.6413 404.085 57.5198C399.943 56.1979 397.139 54.497 393.665 57.7954C388.082 63.0955 385.01 70.4597 379.149 75.4746C373.226 80.5428 364.936 83.5028 357.224 85.0315C350.083 86.4467 340.181 85.7781 334.949 91.0696C333.771 92.2599 332.72 93.1073 332.653 94.8866C332.535 98.0508 333.297 95.7832 334.378 97.7429C336.138 100.933 336.826 104.913 337.223 108.438C338.026 115.574 337.013 123.39 330.939 128.308C324.397 133.605 316.306 135.835 307.655 135.68ZM307.309 124.123C311.738 126.251 320.695 123.478 324.235 120.884C329.051 117.354 329.432 111.21 328.66 106.074C326.42 106.585 324.18 107.095 321.939 107.606C320.984 107.823 320.029 108.041 319.074 108.259C319.161 109.003 319.032 109.697 318.685 110.342C316.575 112.888 315.552 111.623 313.26 109.415C308.356 104.689 304.003 99.3606 302.003 93.0779C299.762 95.5421 297.232 97.131 293.641 96.7886C292.067 96.6392 286.034 94.8709 287.592 92.2791C288.087 91.455 292.993 92.4929 294.637 92.4149C298.069 92.2513 299.684 92.3136 300.94 89.275C301.986 86.745 301.616 85.7051 298.39 85.2417C294.293 84.6526 294.176 86.9425 291.257 88.0163C283.845 90.7439 288.906 79.8838 287.848 76.825C291.491 75.8099 295.337 75.1049 298.559 73.1705C294.99 73.556 291.595 74.6784 288.138 75.4954C288.432 71.4904 296.873 70.638 300.03 69.3798C296.619 68.9528 293.378 71.0665 289.954 70.9333C286.755 70.8092 282.269 69.5439 279.183 68.5805C276.01 67.5903 273.521 64.8303 270.458 67.2327C268.452 68.8074 265.758 73.0981 265.115 75.3814C267.112 75.1104 271.817 74.7448 272.372 76.8787C273.085 79.6194 267.207 78.0244 265.395 78.4732C262.645 79.1549 263.488 79.9071 262.491 82.465C261.508 84.9839 259.745 86.9993 256.955 88.0437C260.056 89.6144 260.91 89.586 260.285 92.4919C259.67 95.3491 260.076 98.5588 260.376 101.739C262.222 101.028 264.21 100.798 266.191 100.612C266.577 102.918 262.727 103.894 260.743 104.029C261.784 107.065 261.823 106.969 265.385 106.96C267.38 106.955 269.382 106.847 271.372 106.756C275.424 106.571 279.357 105.89 283.354 105.286C284.879 105.054 287.04 104.27 288.558 104.428C291.342 104.715 290.801 104.999 290.341 107.231C289.718 110.258 290.42 112.549 291.227 115.834C286.463 114.306 290.29 118.983 292.538 119.946C296.965 121.842 302.385 123.871 307.309 124.123ZM46.7557 307.059C50.1283 308.643 53.3141 310.135 56.3864 312.162C59.4437 314.178 62.7043 317.569 66.574 318.22C71.2029 318.999 72.3173 316.738 73.4628 313.399C74.7498 309.644 75.9282 307.94 79.587 305.88C86.062 302.235 93.6464 299.833 100.722 297.209C103.429 296.206 103.633 296.398 102.832 293.817C102.348 292.258 101.758 290.727 101.124 289.213C99.953 286.419 98.6698 283.461 96.7096 281.024C85.4889 287.958 72.1063 295.997 58.2933 297.664C52.6846 298.342 47.1571 299.529 41.656 299.98C38.9323 300.203 36.7005 300.852 34.3013 301.954C31.6147 303.188 27.1709 303.623 25.236 305.652C32.4993 305.606 39.5742 306.479 46.7557 307.059ZM321.942 316.149C319.693 317.02 322.73 322.022 323.379 324.105C324.354 327.234 325.275 330.375 326.258 333.502C328.34 340.122 330.301 346.769 332.275 353.415C345.29 346.766 359.216 342.961 373.669 339.78C388.069 336.611 402.778 334.355 417.492 332.186C425.532 331 433.966 329.381 441.411 326.297C446.04 324.38 445.135 322.61 445.06 318.365C444.988 314.38 444.322 310.318 443.673 306.371C442.448 298.916 441.153 290.788 437.954 283.783C434.837 276.957 430.666 270.395 426.657 263.966C421.898 256.337 417.846 248.123 411.636 241.35C405.166 234.292 398.222 227.891 391.204 221.32C387.002 228.82 381.008 237.916 373.259 242.637C364.734 247.83 351.324 250.5 341.63 246.153C331.865 241.776 326.094 232.796 320.014 224.971C314.154 217.43 309.063 209.272 298.679 206.581C287.696 203.735 276.132 207.609 265.424 210.036C253.215 212.803 241.269 216.773 229.402 220.523C208.8 227.036 188.361 232.995 168.28 240.756C143.564 250.307 118.815 259.783 94.9259 270.965C100.094 277.921 104.1 284.26 107.019 292.262C109.293 298.491 110.681 305.088 111.213 311.825C113.994 309.221 116.118 306.123 118.924 303.487C122.099 300.505 125.826 298.21 129.561 295.872C136.321 291.64 143.251 287.808 150.708 284.59C167.634 277.284 185.62 272.251 203.516 267.044C207.57 265.864 212.342 264.494 216.544 263.84C220.115 263.286 223.287 262.311 226.921 261.502C235.164 259.669 243.498 257.987 251.813 256.659C267.786 254.108 284.086 251.389 300.283 249.625C311.264 248.429 322.725 246.49 334.008 247.526C335.915 247.701 337.782 248.055 339.702 247.999C340.238 247.983 340.874 247.238 341.428 247.289C342.494 247.388 343.635 248.51 344.723 248.845C347.178 249.6 350.744 249.131 352.081 251.034C353.153 252.558 352.76 253.765 351.165 254.77C353.085 257.065 356.842 259.179 359.415 260.984C361.728 262.606 363.909 264.352 366.241 265.916C368.747 267.596 371.783 269.182 374.407 270.896C377.83 273.133 380.755 275.998 383.988 278.506C389.791 283.009 395.614 286.931 401.729 291.152C405.022 293.425 408.161 295.566 411.739 297.425C413.695 298.443 418.129 301.228 415.814 303.758C413.505 306.282 408.874 302.55 406.352 302.281C403.448 301.971 399.533 303.678 396.637 304.079C388.974 305.139 381.287 306.071 373.621 307.216C364.871 308.523 356.213 310.287 347.422 311.373C342.882 311.934 338.343 312.475 333.778 312.862C331.424 313.061 328.096 312.762 325.884 313.469C324.21 313.011 323.481 313.459 323.699 314.812C323.289 315.444 322.703 315.889 321.942 316.149ZM79.4772 127.662C84.2648 127.634 89.0138 127.893 93.8068 127.854C95.6518 127.839 97.2401 128.19 97.987 126.991C98.8995 125.525 98.4787 121.696 98.6348 120.018C93.0379 120.44 87.9021 120.571 82.3149 120.11C76.3306 119.618 70.5223 118.01 64.5154 117.662C65.7954 118.119 67.2606 120.607 66.4261 121.818C65.5948 123.023 64.2372 121.935 62.9211 121.389C57.8397 119.283 53.6073 116.17 47.8991 117.531C53.1543 120.082 58.1416 124.174 63.6298 125.698C68.8053 127.134 74.0261 127.624 79.4772 127.662ZM435.046 44.7091C437.376 45.1187 441.922 47.3077 444.012 46.2049C446.565 44.8578 446.029 39.3957 446.122 37.2696C446.407 30.7355 446.935 21.7445 441.476 16.4479C440.485 22.7264 442.626 29.2918 442.473 35.6403C442.357 40.4041 440.446 37.8026 439.769 34.4308C439.151 31.3461 439.218 28.3033 438.375 25.2344C436.826 27.7195 436.466 31.0922 435.373 33.8359C433.995 37.2959 432.047 40.4343 430.083 43.6416C431.743 43.9812 433.394 44.3397 435.046 44.7091ZM102.21 130.567C102.181 132.396 101.904 134.116 104.337 134.284C107.558 134.506 106.502 131.417 106.297 129.467C105.139 129.615 102.485 129.311 102.21 130.567ZM433.7 47.6947C431.68 47.4597 431.373 47.03 430.092 48.3588C429.279 49.2021 429.2 50.7321 429.906 51.2629C432.966 53.5675 433.449 48.9882 433.7 47.6947ZM435.588 51.9371C437.16 52.2278 438.698 53.0155 439.582 51.5486C440.877 49.3975 437.781 49.2175 436.085 48.5789C435.919 49.698 435.754 50.8177 435.588 51.9371ZM336.813 254.339C319.433 253.952 302.31 256.516 285.251 259.337C270.161 261.833 255.182 263.913 240.423 267.044C210.681 273.357 180.889 280.42 153.282 292.57C146.575 295.521 139.878 298.471 133.695 302.061C130.373 303.99 126.988 305.898 123.842 308.074C122.112 309.27 120.321 310.451 118.699 311.762C117.213 312.964 116.37 314.621 115.035 315.796C114.406 316.35 111.699 318.394 110.896 318.624C109.171 319.118 109.854 319.158 108.111 318.035C104.466 315.69 103.735 312.565 102.636 308.804C101.863 306.157 102.457 305.279 99.9164 305.37C98.624 305.416 96.6784 306.652 95.4807 307.12C91.6115 308.632 87.4308 309.836 83.7176 311.64C80.7158 313.098 78.3139 314.973 77.028 317.86C75.5096 321.269 74.6271 324.052 70.0203 324.435C61.8031 325.116 57.0816 317.405 50.0551 314.81C42.54 312.034 32.9491 312.581 25.0144 312.492C22.1244 312.459 18.9773 312.721 16.221 313.087C12.326 313.605 7.71804 315.597 3.67549 314.331C-0.976937 312.874 -0.906935 306.653 2.17571 303.945C5.39895 301.114 10.1815 300.726 14.3041 299.787C22.6383 297.888 30.2185 293.559 38.7257 292.23C47.1878 290.907 56.154 290.619 64.4035 288.21C68.6073 286.981 72.6917 286.022 76.6863 284.294C81.6628 282.141 87.0229 280.74 91.9386 278.623C90.247 275.826 89.7891 273.23 89.6858 270.096C89.6175 268.005 89.2559 268.003 90.7985 267.127C91.1041 267.276 91.4092 267.425 91.7153 267.575C92.6844 268.223 93.3747 267.927 93.7879 266.686C100.611 262.791 106.917 258.606 114.197 255.222C126.407 249.547 139.332 244.963 151.539 239.557C174.73 229.287 200.559 223.361 224.956 215.837C239.715 211.286 254.827 207.557 269.949 204.201C272.599 203.612 275.242 203.125 277.936 202.734C282.501 202.073 281.421 202.033 283.724 198.728C286.678 194.487 291.367 189.963 296.126 187.335C299.061 185.714 300.313 185.957 300.221 182.412C300.152 179.702 299.362 179.729 297.008 177.915C294.346 175.863 291.873 173.586 289.625 171.166C287.058 168.405 285.909 165.274 283.762 162.436C281.166 159.005 273.139 159.587 268.646 158.99C261.608 158.055 254.453 157.385 247.521 155.941C233.521 153.024 219.448 152.004 205.274 149.965C191.026 147.915 176.782 146.046 162.532 144.189C157.417 143.523 152.236 142.95 147.149 142.124C140.027 140.966 132.532 140.849 125.307 139.767C121.587 139.21 117.03 137.232 113.288 137.401C109.272 137.582 112.863 137.539 110.221 138.84C109.035 139.424 107.664 139.946 106.297 140.013C104.145 140.12 101.976 139.252 100.659 137.705C98.4637 135.127 99.522 133.151 95.0492 132.826C92.1044 132.613 88.6678 133.682 85.6756 133.823C82.7438 133.961 79.6951 134.361 76.7622 134.28C70.8968 134.117 63.9063 133.632 58.5801 131.272C52.9353 128.771 47.898 125.435 41.96 123.309C38.9802 122.241 34.7408 121.788 32.7436 119.208C31.0756 117.054 30.5601 112.672 33.117 110.905C37.0394 108.195 44.6444 112.296 48.9843 111.272C51.2033 110.748 49.3717 110.117 51.05 109.388C52.0895 108.935 51.9334 108.867 53.1672 108.704C56.2089 108.298 61.1907 110.303 64.283 110.78C70.3851 111.718 76.4339 113.151 82.5307 114.029C86.0119 114.531 89.5513 114.656 93.04 115.189C96.0785 115.654 98.5756 116.774 100.781 114.477C101.71 113.508 101.426 112.509 102.917 112.004C104.253 111.551 108.092 112.201 109.384 112.667C110.794 113.176 111.109 113.91 112.244 114.49C112.272 115.588 112.763 115.916 113.715 115.475C114.602 115.412 115.486 115.457 116.366 115.608C124.111 115.638 131.819 113.376 138.863 110.705C150.535 106.279 165.029 93.749 178.417 100.565C181.711 102.241 183.873 105.038 187.08 106.854C189.929 108.467 193.573 109.912 196.777 110.822C203.179 112.64 209.542 112.412 215.884 110.53C223.616 108.234 229.844 105.83 238.177 106.094C245.898 106.338 252.06 111.355 259.623 111.555C257.775 108.762 257.433 105.553 257.238 102.385C257.11 100.312 258.34 94.8871 257.008 93.2096C255.537 91.3568 244.053 90.6076 250.458 85.1687C252.554 83.3873 256.424 84.0326 258.592 82.0658C260.78 80.0813 260.823 76.9774 261.99 74.4996C263.31 71.6961 265.487 69.3803 267.719 67.143C268.664 66.1959 269.302 65.5946 269.84 64.456C270.465 63.1345 270.049 62.0182 271.047 60.6258C274.416 55.9264 280.293 57.5624 285.408 58.1884C288.509 58.5683 292.264 58.2062 295.274 59.0029C297.692 59.6431 300.838 61.5841 302.805 63.0089C307.141 66.1467 308.148 71.9377 308.482 76.6827C308.678 79.4604 308.103 82.078 308.056 84.8461C308.006 87.7433 306.67 89.0562 304.267 90.9779C304.222 90.443 303.945 90.0844 303.433 89.9016C302.386 91.1136 302.655 91.5867 304.238 91.3213C304.299 92.0461 304.574 92.697 305.062 93.2754C306.371 94.644 307.499 96.1565 308.774 97.5519C311.563 100.603 314.817 103.251 316.963 106.714C319.213 104.249 322.077 103.845 324.761 102.145C327.373 100.492 325.423 99.9994 326.391 97.6091C326.78 96.6513 327.8 96.4821 328.158 95.7406C328.498 95.0376 328.085 94.5939 328.294 93.8214C329.339 89.9862 328.905 87.6101 332.159 84.6035C336.512 80.5823 341.875 79.5191 347.859 78.7558C353.828 77.9935 358.067 77.722 363.375 75.502C365.215 74.7316 366.957 74.3801 368.706 73.5063C371.069 72.3241 373.271 71.0776 375.325 69.4826C380.099 65.776 383.068 60.6116 386.928 56.1573C390.019 52.593 393.745 48.0295 399.323 48.9707C405.667 50.0417 411.257 53.6709 418.01 51.7142C420.515 50.9884 420.244 51.4346 421.238 49.1482C421.568 48.3867 421.782 47.6195 422.103 46.871C423.307 44.0693 425.614 43.7186 427.044 41.4374C430.42 36.0524 432.269 29.3367 434.191 23.4267C435.084 20.6822 436.814 18.3017 437.869 15.67C438.31 14.5696 438.11 9.66844 439.479 9.23857C443.895 7.85331 447.468 18.7394 448.274 20.7984C450.378 26.1789 452.232 32.251 451.401 38.0118C451.059 40.3855 450.787 43.1355 450.112 45.4598C449.499 47.57 449.367 47.4312 449.718 49.3438C450.074 51.2888 450.498 52.4552 450.192 54.494C450.107 55.0633 449.831 57.1673 449.571 57.4586C448.361 58.8135 448.196 57.8663 446.69 58.4078C444.255 59.284 443.653 60.0367 441.929 62.0911C437.618 67.2266 433.117 72.3778 428.458 77.2535C420.285 85.8064 411.69 93.4735 402.516 101.08C393.511 108.546 384.098 116.121 373.877 122.219C371.393 123.702 367.31 125.002 365.311 126.946C363.121 129.076 366.441 130 368.685 131.511C373.145 134.511 377.731 137.584 381.62 141.083C389.911 148.541 394.646 159.531 397.551 169.51C399.063 174.704 399.372 180.657 399.945 186.036C400.616 192.345 399.785 199.249 397.671 205.251C396.869 207.527 395.926 209.757 395.148 212.042C394.79 213.095 393.031 216.364 393.508 217.578C394.297 219.585 399.478 222.023 401.288 223.418C403.761 225.326 406.292 227.297 408.364 229.57C417.181 239.241 424.391 249.39 430.867 260.516C437.454 271.831 443.671 282.042 446.27 294.76C446.949 298.083 447.553 301.41 448.267 304.728C449.035 308.299 448.293 313.449 449.828 316.711C450.777 318.729 452.555 319.364 451.831 322.154C451.205 324.566 448.025 328.849 446.296 330.749C442.36 335.074 435.174 336.777 429.501 338.345C422.616 340.248 415.251 341.125 408.161 342.208C382.62 346.106 357.589 350.365 333.949 360.357C334.744 361.449 335.386 363.807 333.772 364.558C331.628 365.557 330.575 362.592 329.837 361.282C327.691 357.469 327.051 352.538 325.768 348.36C322.64 338.168 320.264 327.869 317.717 317.566C309.023 319.288 300.22 320.204 291.571 321.801C287.582 322.538 283.54 322.607 279.523 323.072C275.209 323.571 274.933 324.849 275.274 328.724C276.024 337.269 279.648 345.466 281.715 353.775C282.719 357.805 284.474 361.642 285.428 365.652C285.739 366.959 285.402 370.474 286.38 371.448C286.338 371.407 289.674 372.03 290.2 372.155C289.917 367.108 290.545 362.155 290.277 357.118C290.001 351.913 289.245 345.088 290.481 340.046C291.605 335.463 295.894 330.617 300.627 328.683C304.75 326.997 312.934 324.294 317.386 326.792C318.168 327.232 320.052 328.594 319.613 329.649C319.019 331.074 312.429 332.167 311.091 332.609C305.852 334.336 300.313 337.364 297.379 341.754C294.738 345.705 295.793 351.81 295.882 356.339C295.931 358.914 296.285 361.305 295.954 363.87C295.486 367.5 295.241 368.815 296.818 371.948C298.666 375.62 297.524 380.986 291.989 379.665C288.679 378.875 288.546 377.176 286.553 375.325C285.799 374.625 284.951 374.935 284.212 374.052C283.222 372.869 283.227 370.25 282.726 368.755C281.123 363.973 278.853 359.324 277.157 354.513C274.876 348.044 273.01 341.495 271.375 334.873C270.105 329.724 268.728 324.51 271.368 319.499C273.712 315.051 279.453 315.381 284.213 315.221C295.237 314.851 306.631 312.602 317.879 312.059C318.688 312.019 320.377 312.28 321.103 311.962C322.105 311.524 322.484 310.249 323.781 309.435C326.26 307.877 331.163 307.336 334.028 306.858C340.526 305.772 346.989 304.89 353.447 303.758C360.872 302.456 368.229 300.9 375.662 299.716C382.778 298.582 389.967 298.369 397.167 297.599C385.743 290.662 375.681 282.206 364.689 274.691C359.592 271.206 354.869 267.778 350.294 263.749C348.389 262.072 346.504 260.44 344.775 258.612C343.858 257.642 343.048 255.79 341.882 255.114C340.416 254.263 338.745 254.49 336.813 254.339Z" fill="#3A3A3A"/>
<path fill-rule="evenodd" clip-rule="evenodd" d="M294.879 59.0529C291.099 58.743 286.769 58.7207 283.101 57.929C286.341 58.1924 291.912 58.0212 294.879 59.0529Z" fill="#3A3A3A"/>
<path fill-rule="evenodd" clip-rule="evenodd" d="M87.1694 114.642C85.5611 114.508 83.9529 114.375 82.3457 114.241C83.9873 114.017 85.5918 114.186 87.1694 114.642Z" fill="#3A3A3A"/>
<path fill-rule="evenodd" clip-rule="evenodd" d="M186.19 147.583C187.264 147.67 188.338 147.757 189.406 147.845C188.329 147.758 187.259 147.671 186.19 147.583Z" fill="#3A3A3A"/>
<path fill-rule="evenodd" clip-rule="evenodd" d="M295.668 356.671C295.716 355.488 295.763 354.305 295.81 353.124C295.763 354.308 295.716 355.489 295.668 356.671Z" fill="#3A3A3A"/>
<path fill-rule="evenodd" clip-rule="evenodd" d="M289.773 365.846C289.753 366.693 289.734 367.54 289.714 368.384C289.734 367.536 289.753 366.691 289.773 365.846Z" fill="#3A3A3A"/>
<path fill-rule="evenodd" clip-rule="evenodd" d="M313.795 326.251C312.714 326.252 311.634 326.253 310.554 326.255C311.634 326.253 312.715 326.252 313.795 326.251Z" fill="#3A3A3A"/>
<path fill-rule="evenodd" clip-rule="evenodd" d="M160.07 143.865C160.784 143.95 161.498 144.035 162.206 144.121C161.49 144.035 160.78 143.95 160.07 143.865Z" fill="#3A3A3A"/>
<path fill-rule="evenodd" clip-rule="evenodd" d="M280.956 57.7598C280.062 57.6894 279.168 57.619 278.275 57.5491C279.169 57.619 280.062 57.6894 280.956 57.7598Z" fill="#3A3A3A"/>
<path fill-rule="evenodd" clip-rule="evenodd" d="M289.931 352.639C289.905 353.486 289.878 354.332 289.852 355.175C289.878 354.328 289.905 353.484 289.931 352.639Z" fill="#3A3A3A"/>
<path fill-rule="evenodd" clip-rule="evenodd" d="M155.779 143.538C156.495 143.606 157.211 143.675 157.921 143.741C157.202 143.673 156.491 143.605 155.779 143.538Z" fill="#3A3A3A"/>
<path fill-rule="evenodd" clip-rule="evenodd" d="M166.988 144.977C167.705 145.04 168.421 145.102 169.131 145.164C168.411 145.101 167.699 145.039 166.988 144.977Z" fill="#3A3A3A"/>
<path fill-rule="evenodd" clip-rule="evenodd" d="M284.038 315.173C283.137 315.178 282.236 315.183 281.336 315.188C282.237 315.183 283.138 315.178 284.038 315.173Z" fill="#3A3A3A"/>
<path fill-rule="evenodd" clip-rule="evenodd" d="M252.815 157.14C253.353 157.181 253.892 157.222 254.424 157.264C253.884 157.224 253.35 157.182 252.815 157.14Z" fill="#3A3A3A"/>
<path fill-rule="evenodd" clip-rule="evenodd" d="M290.282 361.312C290.22 361.986 290.157 362.659 290.095 363.331C290.158 362.656 290.22 361.984 290.282 361.312Z" fill="#3A3A3A"/>
<path fill-rule="evenodd" clip-rule="evenodd" d="M336.662 254.547C337.201 254.59 337.739 254.631 338.271 254.674C337.731 254.633 337.196 254.59 336.662 254.547Z" fill="#3A3A3A"/>
<path fill-rule="evenodd" clip-rule="evenodd" d="M170.73 98.9013C169.829 98.9085 168.928 98.9151 168.027 98.9217C168.928 98.9151 169.829 98.9085 170.73 98.9013Z" fill="#3A3A3A"/>
<path fill-rule="evenodd" clip-rule="evenodd" d="M65.3834 110.785C64.6748 110.659 63.9667 110.534 63.2581 110.409C63.9661 110.534 64.6748 110.659 65.3834 110.785Z" fill="#3A3A3A"/>
<path fill-rule="evenodd" clip-rule="evenodd" d="M77.6139 112.85L75.4961 112.393L77.6139 112.85Z" fill="#3A3A3A"/>
<path fill-rule="evenodd" clip-rule="evenodd" d="M49.115 111.484C48.4069 111.355 47.6983 111.227 46.9902 111.098C47.6978 111.227 48.4069 111.355 49.115 111.484Z" fill="#3A3A3A"/>
<path fill-rule="evenodd" clip-rule="evenodd" d="M329.113 254.411C329.471 254.454 329.829 254.498 330.182 254.54C329.822 254.497 329.468 254.453 329.113 254.411Z" fill="#3A3A3A"/>
<path fill-rule="evenodd" clip-rule="evenodd" d="M255.022 92.7116C255.379 92.763 255.736 92.8144 256.088 92.8663C255.73 92.8139 255.377 92.763 255.022 92.7116Z" fill="#3A3A3A"/>
<path fill-rule="evenodd" clip-rule="evenodd" d="M375.665 299.809C374.941 299.848 374.217 299.889 373.493 299.929C374.218 299.889 374.941 299.848 375.665 299.809Z" fill="#3A3A3A"/>
<path fill-rule="evenodd" clip-rule="evenodd" d="M399.399 198.444C399.446 197.939 399.492 197.434 399.54 196.93C399.493 197.436 399.446 197.94 399.399 198.444Z" fill="#3A3A3A"/>
<path fill-rule="evenodd" clip-rule="evenodd" d="M271.529 159.187C271.888 159.216 272.247 159.244 272.601 159.273C272.24 159.243 271.885 159.215 271.529 159.187Z" fill="#3A3A3A"/>
<path fill-rule="evenodd" clip-rule="evenodd" d="M125.318 140.036C125.678 140.059 126.037 140.081 126.392 140.104C126.031 140.082 125.675 140.059 125.318 140.036Z" fill="#3A3A3A"/>
<path fill-rule="evenodd" clip-rule="evenodd" d="M69.3159 126.587C70.9758 126.725 72.5227 126.779 74.1149 127.256C72.555 127.144 70.7095 127.314 69.3159 126.587Z" fill="#3A3A3A"/>
<path fill-rule="evenodd" clip-rule="evenodd" d="M86.53 127.334C87.6895 127.018 89.6266 127.152 90.8232 127.63C89.3925 127.531 87.9607 127.433 86.53 127.334Z" fill="#3A3A3A"/>
<path fill-rule="evenodd" clip-rule="evenodd" d="M307.175 124.338C308.426 124.437 309.678 124.537 310.928 124.636C309.643 124.924 308.382 124.932 307.175 124.338Z" fill="#3A3A3A"/>
<path fill-rule="evenodd" clip-rule="evenodd" d="M433.68 47.5131C432.788 47.4066 431.895 47.3 431.009 47.193C431.903 47.2997 432.792 47.4064 433.68 47.5131Z" fill="#3A3A3A"/>
<path fill-rule="evenodd" clip-rule="evenodd" d="M43.3821 306.833C44.5082 306.338 45.5564 306.682 46.5986 307.093C45.5257 307.006 44.4544 306.92 43.3821 306.833Z" fill="#3A3A3A"/>
<path fill-rule="evenodd" clip-rule="evenodd" d="M110.471 127.363C110.454 128.21 110.437 129.057 110.419 129.901C110.436 129.053 110.454 128.208 110.471 127.363Z" fill="#3A3A3A"/>
<path fill-rule="evenodd" clip-rule="evenodd" d="M76.7922 127.501C77.6924 127.498 78.5937 127.496 79.4938 127.493C78.5931 127.496 77.6924 127.498 76.7922 127.501Z" fill="#3A3A3A"/>
<path fill-rule="evenodd" clip-rule="evenodd" d="M307.739 135.705C307.02 135.662 306.302 135.619 305.59 135.575C306.311 135.618 307.025 135.661 307.739 135.705Z" fill="#3A3A3A"/>
<path fill-rule="evenodd" clip-rule="evenodd" d="M108.766 296.535C108.765 297.383 108.764 298.23 108.763 299.077C108.764 298.228 108.765 297.382 108.766 296.535Z" fill="#3A3A3A"/>
<path fill-rule="evenodd" clip-rule="evenodd" d="M263.923 153.862C264.808 154.016 265.695 154.17 266.58 154.324C265.693 154.17 264.808 154.016 263.923 153.862Z" fill="#3A3A3A"/>
<path fill-rule="evenodd" clip-rule="evenodd" d="M80.7261 120.048C80.0072 120.011 79.2878 119.975 78.5754 119.941C79.2964 119.978 80.0115 120.013 80.7261 120.048Z" fill="#3A3A3A"/>
<path fill-rule="evenodd" clip-rule="evenodd" d="M258.079 152.81C258.966 152.963 259.851 153.116 260.737 153.268C259.831 153.229 258.869 153.497 258.079 152.81Z" fill="#3A3A3A"/>
<path fill-rule="evenodd" clip-rule="evenodd" d="M89.301 120.764C88.7614 120.737 88.2222 120.709 87.6885 120.682C88.2292 120.709 88.7657 120.736 89.301 120.764Z" fill="#3A3A3A"/>
<path fill-rule="evenodd" clip-rule="evenodd" d="M243.789 149.657C244.674 149.814 245.56 149.971 246.446 150.128C245.559 149.971 244.674 149.814 243.789 149.657Z" fill="#3A3A3A"/>
<path fill-rule="evenodd" clip-rule="evenodd" d="M435.418 52.052C436.304 52.2116 437.19 52.3711 438.075 52.5307C437.189 52.3711 436.304 52.2116 435.418 52.052Z" fill="#3A3A3A"/>
<path fill-rule="evenodd" clip-rule="evenodd" d="M211.317 144.552C212.209 144.635 213.102 144.719 213.994 144.801C213.101 144.718 212.209 144.635 211.317 144.552Z" fill="#3A3A3A"/>
<path fill-rule="evenodd" clip-rule="evenodd" d="M435.003 44.9072C435.888 45.0621 436.775 45.2164 437.66 45.3712C436.774 45.2163 435.888 45.0621 435.003 44.9072Z" fill="#3A3A3A"/>
<path fill-rule="evenodd" clip-rule="evenodd" d="M110.491 131.036C111.386 131.093 112.282 131.15 113.176 131.206C112.248 131.651 111.356 131.547 110.491 131.036Z" fill="#3A3A3A"/>
<path fill-rule="evenodd" clip-rule="evenodd" d="M287.8 79.9374C287.868 79.2643 287.935 78.5906 288.001 77.92C287.934 78.5947 287.867 79.2663 287.8 79.9374Z" fill="#3A3A3A"/>
<path fill-rule="evenodd" clip-rule="evenodd" d="M287.566 82.4603C287.633 81.7867 287.699 81.1135 287.766 80.4429C287.699 81.1175 287.633 81.7887 287.566 82.4603Z" fill="#3A3A3A"/>
<path fill-rule="evenodd" clip-rule="evenodd" d="M290.453 205.47C289.914 205.437 289.374 205.404 288.842 205.372C289.383 205.405 289.918 205.437 290.453 205.47Z" fill="#3A3A3A"/>
<path fill-rule="evenodd" clip-rule="evenodd" d="M337.298 111.47C337.215 112.142 337.132 112.814 337.05 113.483C337.133 112.811 337.215 112.14 337.298 111.47Z" fill="#3A3A3A"/>
<path fill-rule="evenodd" clip-rule="evenodd" d="M348.825 239.911C349.726 239.902 350.627 239.892 351.528 239.882C350.626 239.892 349.725 239.902 348.825 239.911Z" fill="#3A3A3A"/>
<path fill-rule="evenodd" clip-rule="evenodd" d="M288.512 104.312C289.266 103.946 289.982 103.984 290.656 104.486C289.94 104.428 289.226 104.37 288.512 104.312Z" fill="#3A3A3A"/>
<path fill-rule="evenodd" clip-rule="evenodd" d="M294.587 97.0552C294.23 97.0028 293.874 96.9498 293.522 96.8979C293.88 96.9509 294.234 97.0028 294.587 97.0552Z" fill="#3A3A3A"/>
<path fill-rule="evenodd" clip-rule="evenodd" d="M298.04 199.386C298.747 199.522 299.455 199.658 300.162 199.794C299.454 199.658 298.747 199.522 298.04 199.386Z" fill="#3A3A3A"/>
<path fill-rule="evenodd" clip-rule="evenodd" d="M273.611 253.024C274.332 253.008 275.053 252.993 275.775 252.977C275.053 252.992 274.332 253.008 273.611 253.024Z" fill="#3A3A3A"/>
<path fill-rule="evenodd" clip-rule="evenodd" d="M258.227 255.83C258.949 255.81 259.67 255.791 260.392 255.772C259.67 255.791 258.949 255.81 258.227 255.83Z" fill="#3A3A3A"/>
<path fill-rule="evenodd" clip-rule="evenodd" d="M251.652 256.835C252.375 256.801 253.099 256.768 253.822 256.734L251.652 256.835Z" fill="#3A3A3A"/>
<path fill-rule="evenodd" clip-rule="evenodd" d="M245.08 257.812L247.248 257.725C246.525 257.755 245.802 257.783 245.08 257.812Z" fill="#3A3A3A"/>
<path fill-rule="evenodd" clip-rule="evenodd" d="M383.714 306.183C383.173 306.16 382.633 306.135 382.101 306.112C382.643 306.136 383.178 306.16 383.714 306.183Z" fill="#3A3A3A"/>
<path fill-rule="evenodd" clip-rule="evenodd" d="M273.476 155.672C274.184 155.807 274.892 155.942 275.599 156.077C274.892 155.942 274.184 155.807 273.476 155.672Z" fill="#3A3A3A"/>
<path fill-rule="evenodd" clip-rule="evenodd" d="M406.738 58.4475C406.378 58.4283 406.018 58.4097 405.663 58.3911C406.024 58.4107 406.381 58.4288 406.738 58.4475Z" fill="#3A3A3A"/>
<path fill-rule="evenodd" clip-rule="evenodd" d="M86.6172 120.581C86.2594 120.542 85.9011 120.505 85.5481 120.467C85.9075 120.505 86.2621 120.543 86.6172 120.581Z" fill="#3A3A3A"/>
<path fill-rule="evenodd" clip-rule="evenodd" d="M237.986 148.17C238.694 148.307 239.401 148.444 240.108 148.581C239.401 148.444 238.694 148.307 237.986 148.17Z" fill="#3A3A3A"/>
<path fill-rule="evenodd" clip-rule="evenodd" d="M157.073 135.425C157.782 135.549 158.491 135.672 159.199 135.796C158.491 135.672 157.781 135.548 157.073 135.425Z" fill="#3A3A3A"/>
<path fill-rule="evenodd" clip-rule="evenodd" d="M102.079 130.739C102.077 131.248 102.075 131.757 102.073 132.264C102.075 131.754 102.077 131.247 102.079 130.739Z" fill="#3A3A3A"/>
<path fill-rule="evenodd" clip-rule="evenodd" d="M94.574 127.953C95.296 127.933 96.0176 127.913 96.7402 127.892C96.0181 127.913 95.296 127.933 94.574 127.953Z" fill="#3A3A3A"/>
<path fill-rule="evenodd" clip-rule="evenodd" d="M114.262 131.148C115.005 130.862 115.735 130.74 116.407 131.308C115.692 131.255 114.976 131.202 114.262 131.148Z" fill="#3A3A3A"/>
<path fill-rule="evenodd" clip-rule="evenodd" d="M362.081 172.047C364.671 172.424 365.897 172.974 366.598 175.338C366.923 176.435 365.985 178.497 366.301 179.189C366.721 180.107 367.349 179.621 368.082 180.492C370.759 183.675 372.156 190.014 366.929 192.211C364.971 189.967 365.652 187.361 366.994 185.041C364.172 184.428 362.708 184.336 361.836 181.676C361.732 181.357 361.52 177.45 361.434 177.365C360.85 176.792 358.487 177.371 357.677 176.943C355.888 175.997 355.043 172.831 355.494 171.051C356.114 168.594 358.872 167.34 360.968 165.962C354.242 166.118 348.059 170.899 341.333 171.219C339.463 171.307 338.993 172.091 338.344 170.105C337.768 168.341 338.391 168.57 339.66 167.693C342.175 165.956 346.033 164.811 349.002 163.82C353.315 162.381 360.753 159.009 365.424 160.895C367.754 161.835 369.408 164.719 368.694 166.973C367.997 169.171 363.973 170.725 362.081 172.047Z" fill="#3A3A3A"/>
<path fill-rule="evenodd" clip-rule="evenodd" d="M364.773 139.314C366.698 142.138 367.543 145.121 365.461 148.102C368.421 147.874 371.717 147.365 373.646 149.887C376.434 153.531 373.552 154.726 370.302 154.933C367.693 155.101 362.513 156.686 360.226 155.03C356.467 152.308 360.208 147.154 361.656 144.547C359.268 144.618 353.239 145.282 354.279 141.073C355.029 138.04 362.428 138.808 364.773 139.314Z" fill="#3A3A3A"/>
<path fill-rule="evenodd" clip-rule="evenodd" d="M333.959 157.606L331.629 160.189C332.809 160.437 334.411 159.495 335.451 159.098C334.954 158.601 334.457 158.104 333.959 157.606ZM330.419 154.128C327.65 153.762 324.661 157.168 324.024 153.362C323.651 151.132 325.87 148.275 328.478 147.932C333.028 147.334 339.389 157.046 340.526 160.393C341.575 163.478 340.457 163.052 338.05 164.195C335.967 165.184 333.258 167.481 330.553 166.785C328.08 166.149 327.317 162.42 327.328 160.477C327.345 157.481 329.258 156.517 330.419 154.128Z" fill="#3A3A3A"/>
<path fill-rule="evenodd" clip-rule="evenodd" d="M344.514 154.116C344.932 155.32 347.954 160.95 345.273 160.936C343.782 160.929 340.971 152.805 340.569 151.876C340.018 150.6 338.857 148.842 339.062 147.397C339.415 144.898 339.267 145.687 341.066 145.959C344.572 146.489 347.47 151.512 350.784 152.786C349.411 147.99 347.353 142.733 348.762 137.836C352.709 141.27 352.88 148.343 353.961 153.041C354.29 154.471 355.074 157.4 353.411 158.37C351.53 159.466 345.784 154.877 344.514 154.116Z" fill="#3A3A3A"/>
<path fill-rule="evenodd" clip-rule="evenodd" d="M319.327 164.458C320.635 161.874 322.042 158.849 317.21 159.806C317.916 161.357 318.622 162.908 319.327 164.458ZM317.762 153.646C321.906 153.336 324.264 158.455 324.693 161.431C325.035 163.804 322.412 172.087 318.875 169.586C317.556 168.655 316.815 166.109 315.953 164.821C314.771 163.058 313.118 161.377 312.221 159.481C310.323 155.466 313.726 153.657 317.762 153.646Z" fill="#3A3A3A"/>
<path fill-rule="evenodd" clip-rule="evenodd" d="M317.946 153.728C317.045 153.74 316.143 153.752 315.243 153.763C316.144 153.752 317.046 153.74 317.946 153.728Z" fill="#3A3A3A"/>
<path fill-rule="evenodd" clip-rule="evenodd" d="M365.171 139.583C364.465 139.431 363.759 139.279 363.052 139.127C363.758 139.279 364.464 139.431 365.171 139.583Z" fill="#3A3A3A"/>
<path fill-rule="evenodd" clip-rule="evenodd" d="M370.85 148.207C370.136 148.146 369.421 148.086 368.707 148.025C369.463 147.657 370.176 147.724 370.85 148.207Z" fill="#3A3A3A"/>
<path fill-rule="evenodd" clip-rule="evenodd" d="M271.683 82.1692C275.175 84.528 267.447 93.3631 264.385 86.2C263.531 84.2008 263.797 81.7179 266.051 82.2366C267.066 82.4696 267.205 83.9101 268.614 83.9643C270.011 84.018 270.697 82.888 271.683 82.1692Z" fill="#3A3A3A"/>
<path fill-rule="evenodd" clip-rule="evenodd" d="M291.964 90.4491C292.019 88.6824 295.623 85.1733 297.677 87.4926C299.739 89.8195 293.523 90.3944 291.964 90.4491Z" fill="#3A3A3A"/>
</svg>
