<svg width="454" height="429" viewBox="0 0 454 429" fill="none" xmlns="http://www.w3.org/2000/svg">
<path fill-rule="evenodd" clip-rule="evenodd" d="M231.398 181.45C247.964 179.79 263.769 187.568 277.009 199.691C294.074 215.315 308.538 237.66 318.328 261.205C319.37 262.216 320.396 263.252 321.415 264.298C326.863 269.89 332.187 275.797 336.906 282.372C339.54 286.042 346.45 294.966 343.45 300.595C342.813 301.791 341.768 302.476 340.721 302.95C337.785 304.274 334.724 304.945 331.829 306.494C328.254 308.407 324.548 311.084 322.258 315.167C321.606 316.329 321.437 317.699 320.561 318.21C319.633 318.753 317.882 318.542 316.867 318.667C314.828 318.919 312.787 319.171 310.747 319.423C305.954 320.015 300.943 320.08 296.254 321.538L274.684 328.249C270.272 329.621 265.201 330.378 261.017 332.633C254.774 336 248.817 340.929 242.843 344.991C239.954 346.955 237.065 348.92 234.176 350.884C232.766 351.843 231.8 351.856 230.147 352.016L218.216 353.173C216.291 353.359 215.367 354.336 215.115 351.909L212.342 325.232L210.876 311.125C210.789 310.286 210.815 306.13 210.269 305.629C209.926 305.314 207.918 305.991 207.547 306.049L202.131 306.884C198.231 307.486 194.331 308.088 190.431 308.689C190.115 308.738 188.361 308.713 188.164 309.039C187.934 309.421 188.372 311.615 188.412 312.087C188.825 317.04 189.239 321.994 189.653 326.947C189.701 327.522 190.255 330.186 189.963 330.657C189.76 330.984 188.291 331.024 187.993 331.085C184.23 331.859 180.468 332.633 176.706 333.407C174.012 333.961 170.491 333.933 167.943 335.21C166.481 335.942 165.034 337.816 163.77 338.988L145.421 355.999C142.638 358.579 138.887 357.922 135.498 358.247L96.4043 362C96.4367 360.466 96.4695 358.932 96.5018 357.397C96.6739 349.273 96.8454 341.148 97.0175 333.023L97.2427 322.396C97.2569 321.724 97.0436 319.756 97.3925 319.259C97.8563 318.599 99.929 318.313 100.572 318.073C102.73 317.268 104.888 316.464 107.045 315.659C113.375 313.299 119.704 310.938 126.033 308.578C132.289 306.245 138.544 303.912 144.799 301.579C146.94 300.781 149.08 299.983 151.22 299.185C151.714 299 153.441 298.755 153.785 298.228C154.218 297.565 154.024 294.733 154.093 293.892C154.433 289.787 154.917 285.7 155.507 281.641C159.759 252.361 169.699 222.619 188.129 203.085C200.312 190.173 215.593 183.034 231.398 181.45ZM234.32 240.168C232.68 237.742 229.925 233.784 227.027 234.441C224.673 234.975 223.39 238.653 222.569 241.098C219.27 250.924 218.247 262.188 217.221 272.691C216.577 279.28 216.059 285.899 215.728 292.526C227.48 291.387 239.231 290.248 250.983 289.109C250.428 284.391 249.984 279.629 249.316 274.934C248.981 272.581 248.055 270.462 247.264 268.288C243.724 258.564 239.86 248.364 234.32 240.168Z" fill="#FFE202"/>
<path fill-rule="evenodd" clip-rule="evenodd" d="M397.451 48.5984L397.739 48.6046C405.537 48.8661 412.415 55.1888 417.749 61.8801C420.386 65.1886 422.792 69.0803 423.924 73.6089C425.231 78.8401 424.8 84.5942 423.806 89.8444C421.609 101.447 418.924 113.109 415.905 124.417C414.419 129.979 412.265 135.433 411.144 141.127C410.219 145.817 414.112 149.234 414.261 154.054C414.411 158.916 411.815 163.484 408.246 165.222C406.727 165.962 404.888 165.344 403.487 166.102C402.206 166.796 401.757 168.842 401.511 170.413C401.176 172.555 401.236 174.695 401.331 176.857C401.39 178.179 401.128 180.337 401.64 181.516C401.992 182.326 402.633 182.59 403.185 183.145C403.938 183.901 404.44 184.842 405.1 185.711C406.189 187.146 407.237 187.923 407.533 190.015C407.69 189.54 407.847 189.065 408.004 188.59C408.816 190.461 409.418 191.358 408.646 193.133C411.04 192.837 412.459 198.31 413.087 200.386C414.237 204.185 415.026 208.132 416.178 211.932C417.758 217.143 419.833 222.286 420.84 227.738C421.687 232.321 422.357 237.028 423.109 241.642C423.533 244.24 423.902 246.88 424.678 249.357C424.979 250.319 425.539 250.966 425.885 251.824C426.359 252.997 426.174 253.617 426.197 254.903C426.237 257.194 427.384 258.682 427.745 260.908C428.13 263.286 428.445 265.69 428.834 268.073C429.617 272.873 431.068 277.667 431.418 282.529C431.823 288.174 432.694 293.751 433.131 299.398C433.514 304.333 432.863 309.63 433.681 314.404C434.407 318.641 433.508 322.515 433.188 326.722C433.106 327.79 434.412 334.149 432.314 332.928C432.708 334.427 433.26 335.142 433.29 336.786C433.317 338.325 433.003 339.906 432.745 341.398C432.249 344.28 431.918 347.421 430.945 350.122C429.845 353.176 428.169 353.542 425.89 354.59C424.347 355.299 421.569 357.831 420.354 355.123C419.629 357.903 418.214 355.981 416.627 355.826C416.638 355.827 415.719 356.255 415.547 356.284C414.989 356.379 414.33 356.047 413.775 355.989C412.391 355.845 411.034 356.077 409.68 356.43C406.561 357.245 403.544 358.371 400.379 358.939C394.196 360.047 388.137 359.523 381.945 360.008C369.828 360.957 357.511 360.161 345.385 359.75C344.083 359.706 342.68 359.935 341.396 359.683C340.011 359.411 339.709 358.586 338.631 357.759C336.837 356.386 334.847 357.721 332.987 358.223C327.525 359.696 321.821 359.805 316.315 361.23C305.129 364.124 294.823 369.836 284.108 374.654C279.463 376.742 274.011 380.124 269.002 380.271C262.931 380.437 264.365 372.903 265.481 368.061C261.973 369.234 256.465 374.594 252.9 371.483C248.652 367.777 254.057 361.614 254.312 357.257C246.719 359.243 238.105 363.598 230.398 360.058C228.915 359.377 227.624 357.937 226.032 357.703C224.377 357.459 222.627 358.196 220.954 358.183C217.142 358.153 213.44 357.514 209.63 358.105C201.134 359.423 192.758 360.145 184.193 360.429C175.571 360.715 166.948 361.359 158.322 361.332C153.943 361.318 149.483 360.664 145.113 360.957C143.398 361.072 139.705 362.643 138.499 360.446C137.289 362.274 136.261 361.052 134.708 361.255C134.996 361.218 133.9 362.016 133.735 362.094C132.918 362.476 132.155 362.359 131.303 362.348C129.033 362.319 126.913 363.658 124.654 363.528C124.083 363.496 123.651 363.286 123.167 363.039C123.052 362.981 123.079 362.358 122.895 362.306C121.791 361.995 122.076 362.847 121.375 363.277C120.597 363.753 119.446 362.983 119.889 364.447C117.779 364.331 115.78 365.227 113.86 363.65C114.768 366.177 111.597 364.078 110.769 364.037C109.392 363.967 108.186 364.835 106.812 365.034C105.165 365.274 103.51 364.311 101.898 364.899C100.636 365.358 100.203 366.465 98.8892 365.899C97.7729 365.419 97.0754 364.375 96.5337 363.234C95.7862 361.659 95.6904 360.956 93.8877 360.928C92.551 360.908 91.2071 361.27 89.8576 361.267C88.3111 361.263 86.6117 361.056 85.2001 361.982C83.6793 362.98 82.786 364.499 81.0994 365.28C73.5153 368.794 65.1899 367.864 57.2769 367.804C53.9384 367.779 51.4883 368.165 50.5511 363.368C49.7592 359.314 49.4418 355.075 48.6863 350.988C47.7606 345.98 46.7431 341.333 44.689 336.856C42.6967 332.514 41.0204 328.029 39.2855 323.519C35.6774 314.139 30.6551 306.158 25.0554 298.536C22.9282 295.639 20.4902 292.413 20.3912 288.242C20.3186 284.641 21.5777 280.91 23.2292 278.041C24.7039 275.481 27.1335 272.592 29.8819 273.189C31.5369 273.549 32.6218 275.231 33.857 276.493C35.207 277.872 36.6777 278.811 38.3048 279.563C42.0991 281.316 45.2809 283.235 48.5666 286.262C51.8914 289.324 54.9993 292.754 57.8745 296.468C63.3939 303.599 69.0494 311.006 72.2207 320.239C73.4706 323.877 74.269 327.385 75.1212 331.156C75.9582 334.86 78.2371 333.839 80.7997 333.307C83.9228 332.658 87.0613 332.31 90.2051 331.899C91.3885 331.744 93.0568 331.698 93.7693 330.289C94.5549 328.736 93.6549 326.723 93.5835 325.112C93.5454 324.251 93.772 323.616 93.8287 322.777C93.8939 321.822 93.67 320.95 93.6691 320C93.6682 317.955 94.4277 316.134 95.6899 314.896C98.0517 312.578 101.497 311.196 104.293 309.92C108.111 308.179 112.202 307.323 116.133 306.08C120.56 304.68 125.014 303.419 129.465 302.147C133.838 300.898 138.205 299.614 142.625 298.652C145.218 298.088 148.03 298.294 150.544 297.263C153.215 296.167 152.772 292.78 152.764 289.78C152.751 284.825 153.238 279.724 153.814 274.826C155.039 264.413 157.958 254.222 160.612 244.27C163.168 234.686 166.335 225.487 171.563 217.709C176.653 210.138 182.899 203.285 189.379 197.659C196.13 191.796 203.643 187.56 210.691 182.326C209.15 180.842 207.313 179.575 206.428 177.289C205.429 174.709 205.852 171.624 205.895 168.866C205.943 165.754 206.018 163.022 206.9 160.057C207.383 158.433 209.25 155.353 208.964 153.587C208.485 150.622 203.336 148.457 201.44 147.237C198.467 145.323 195.488 143.379 192.748 140.963C190.119 138.645 187.645 135.856 186.052 132.298C185.6 131.289 185.228 130.228 184.94 129.128C184.618 127.9 184.843 127.482 183.869 127.392C182.314 127.248 179.983 129.214 178.673 130.083C171.918 134.561 164.5 140.588 156.53 140.188C153.638 140.043 150.388 138.898 149.365 135.099C148.019 130.097 150.83 124.929 153.296 121.316C148.486 122.269 139.616 125.245 135.82 119.838C133.291 116.235 135.199 110.516 137.32 107.392C140.122 103.265 144.117 100.753 147.808 98.1267C143.279 95.9515 138.266 94.5606 134.284 90.9208C130.475 87.4402 130.946 82.0928 133.954 77.9871C137.17 73.5983 142.794 71.3505 147.217 69.7211C152.642 67.7224 158.031 67.8827 163.621 68.0168C173.655 68.257 182.273 72.9168 190.502 79.9618C194.853 83.687 199.142 87.7072 203.001 92.219C206.621 96.4503 210.482 100.385 214.048 104.662C217.504 108.806 220.222 113.941 223.869 117.813C226.97 121.104 230.371 125.77 234.31 127.232C238.488 128.781 242.249 131.344 246.462 132.87C251.241 134.599 255.347 137.492 259.776 140.252C278.364 151.835 298.318 159.374 317.915 167.689C327.938 171.943 338.028 174.941 348.261 178.189C353.4 179.82 358.172 180.69 363.475 180.395C364.698 180.328 365.866 180.287 367.072 180.501C367.956 180.658 368.628 181.079 369.418 180.413C370.554 179.457 370.981 176.968 371.658 175.551C367.884 174.076 364.19 172.482 362.468 167.609C361.383 164.538 360.82 160.957 360.344 157.663C360.089 155.89 360.083 154.101 359.865 152.326C359.745 151.347 359.375 150.323 359.404 149.322C359.319 149.879 356.507 148.047 356.099 147.707C354.525 146.394 354.239 143.746 354.252 141.512C354.267 138.988 354.872 136.214 356.232 134.301C356.876 133.395 357.642 132.715 358.578 132.374C359.242 132.132 360.118 132.449 360.704 132.205C363.302 131.123 363.593 123.023 363.961 120.074C364.773 113.576 365.582 107.373 367.335 101.145C370.532 89.7897 374.645 78.7541 379.545 68.4156C383.743 59.5569 387.937 48.7247 397.167 48.5984H397.451ZM317.657 321.371C313.921 322.186 310.341 323.85 306.733 325.262C303.362 326.58 299.946 327.42 296.488 328.277C289.607 329.983 282.574 331.544 275.793 333.768C273.883 334.394 272.879 335.807 271.212 336.79C269.977 337.518 268.818 336.78 267.533 336.718C264.736 336.584 261.632 337.733 258.942 338.59C252.591 340.612 246.956 344.123 241.208 348.005C240.694 348.352 237.217 350.356 237.382 351.186C237.516 351.864 241.936 350.045 242.639 349.91C246.198 349.227 249.675 347.813 253.208 346.935C256.108 346.214 259.041 345.726 261.929 344.925C265.142 344.035 271.988 340.938 272.26 347.625C272.554 354.852 266.22 357.075 262.412 360.446C262.836 361.368 268.945 358.327 269.702 358.02C272.3 356.964 274.71 355.062 277.354 354.253C281.955 352.843 281.398 359.246 278.858 362.094C276.036 365.258 271.368 366.214 269.805 371.084C271.857 372.016 274.541 370.265 276.426 369.394C278.902 368.25 281.387 367.124 283.877 366.034C289.469 363.586 294.779 360.214 300.4 357.882C311.933 353.098 324.123 351.726 336.179 350.876C335.104 345.626 333.93 340.406 332.964 335.121C332.551 332.859 332.173 330.587 331.86 328.3C331.642 326.709 331.828 322.902 330.958 321.647C329.899 320.119 327.14 322.266 325.639 322.225C324.168 322.185 323.095 321.228 321.736 320.927C320.446 320.641 318.919 321.095 317.657 321.371ZM100.963 351.762C100.963 354.272 100.617 357.316 103.238 357.609C105.357 357.847 109.503 358.152 111.193 356.253C109.573 355.258 107.732 355.084 106.011 354.511C104.218 353.912 102.563 352.93 100.963 351.762ZM144.211 306.032C143.414 306.039 142.069 307.156 141.342 307.467C140.011 308.037 138.659 308.518 137.301 308.971C133.219 310.333 127.964 310.545 126.09 316.065C125.154 318.82 124.506 325.905 121.255 325.879C118.366 325.856 116.635 320.602 114.574 318.732C112.444 316.8 109.066 318.115 106.769 318.954C104.434 319.806 100.811 320.899 101.073 324.627C101.261 327.308 101.645 329.747 101.627 332.485C101.604 335.97 101.371 339.448 101.371 342.933C103.01 340.103 104.44 334.415 107.344 333.277C110.277 332.128 111.937 338.586 112.7 341.061C113.646 344.127 114.834 347.605 114.906 350.929C114.929 351.972 114.426 354.839 115.002 355.697C115.513 356.459 117.48 355.907 118.115 355.823C122.047 355.308 125.959 354.666 129.903 354.236C131.929 354.015 132.48 353.455 132.282 350.709C132.127 348.553 132.078 346.498 132.293 344.334C133.25 334.669 137.974 325.829 145.961 324.151C150.773 323.139 156.394 323.879 161.199 324.85C163.05 325.225 165.061 326.355 166.943 326.256C168.333 326.184 167.885 326.084 168.169 324.436C168.369 323.284 168.795 322.3 169.49 321.502C170.04 320.87 170.738 321.227 171.256 320.402C171.631 319.805 171.575 318.991 171.752 318.303C172.097 316.964 172.721 315.157 173.964 314.819C175.964 314.275 178.09 317.648 179.1 319.388C180.142 321.188 180.458 326.559 182.135 327.262C184.07 328.073 186.372 324.877 186.776 322.864C187.319 320.156 186.635 317.226 186.308 314.544C186.285 314.352 186.19 312.57 186.085 312.454C185.802 312.141 183.675 312.228 183.298 312.205C181.444 312.094 179.587 312.088 177.732 312.082C170.458 312.059 163.332 311.158 156.106 310.197C157.156 312.353 158.952 315.892 157.108 318.168C155.741 319.854 153.274 319.008 151.558 319.355C149.132 319.846 145.044 322.746 142.733 320.626C139.476 317.637 143.16 312.503 144.37 309.678C144.629 309.073 145.589 306.942 145.182 306.232C144.83 305.617 144.727 306.027 144.211 306.032ZM89.9675 339.245C88.3045 339.884 86.629 340.499 84.9301 340.973C82.9372 341.528 79.847 340.989 78.8773 343.751C78.1396 345.851 78.5058 349.24 79.1052 351.332C79.7915 353.727 81.4023 354.344 83.3034 354.526C85.5219 354.74 87.7698 354.289 89.9622 353.907C90.8263 353.756 91.7476 353.484 92.6255 353.482C93.1464 353.481 94.198 354.081 94.6614 353.59C95.2612 352.954 94.8662 349.34 94.8192 348.473C94.7026 346.328 94.3794 344.211 94.2912 342.062C94.2282 340.518 94.6902 338.421 93.2541 338.092C92.3599 337.887 90.7447 338.947 89.9675 339.245ZM224.262 296.772C223.019 297.042 221.783 297.236 220.521 297.212C219.743 297.197 218.812 296.864 218.094 297.402C216.766 298.394 216.964 301.009 217.009 302.641C217.064 304.62 217.202 306.63 217.37 308.599C217.53 310.483 218.35 313.585 217.191 315.198C216.374 314.072 215.971 310.388 214.394 310.522C212.66 310.67 213.462 314.161 213.616 315.411C214.465 322.322 215.434 329.236 216.194 336.166C216.555 339.461 217.021 342.732 217.263 346.042C217.424 348.264 217.479 350.265 219.45 350.726C221.277 351.152 223.33 350.424 225.176 350.368C227.077 350.311 228.166 350.148 229.26 347.983C226.641 347.261 222.493 347.702 221.017 344.212C219.297 340.141 222.925 336.477 224.711 333.695C226.081 331.557 228.883 324.452 231.427 328.672C232.343 330.192 232.508 332.51 232.971 334.278C233.723 337.149 234.642 339.98 235.544 342.781C243.795 337.415 252.261 332.577 261.259 329.565C258.965 324.68 256.125 320.281 254.408 314.986C252.484 309.052 250.89 302.956 248.922 297.041C245.803 299.335 242.469 293.775 239.363 293.551C234.457 293.197 229.072 295.721 224.262 296.772ZM175.389 336.776C173.679 338.06 171.163 340.556 170.752 343.137C170.043 347.599 174.084 344.616 175.331 343.639C177.943 341.595 180.502 340.942 183.502 342.202C187.348 343.817 190.893 346.543 195.022 344.472C197.076 343.441 201.632 341.238 200.403 337.285C199.555 334.56 197.074 336.897 195.763 337.874C192.331 340.432 189.488 338.811 186.059 336.965C182.628 335.118 178.766 334.243 175.389 336.776ZM53.5739 313.881C52.2008 316.333 54.9922 315.803 56.2177 316.042C58.7803 316.541 61.4196 319.116 60.7133 322.759C60.0248 326.311 57.327 328.531 56.8131 332.26C56.3715 335.462 56.7971 339.515 59.2511 341.272C60.6295 342.259 63.6422 342.666 65.0294 341.532C67.1478 339.801 64.5169 337.222 63.1154 336.365C61.2582 335.228 59.7583 334.612 60.6774 331.626C61.7978 327.986 63.9738 325.192 63.7805 321.027C63.6209 317.576 62.1751 313.654 59.5411 312.22C57.655 311.194 54.8601 311.583 53.5739 313.881ZM241.056 303.302C243.43 303.174 243.524 306.788 243.404 308.565C243.241 310.996 243.591 313.586 243.631 316.024C243.685 319.253 244.222 329.829 239.689 328.258C236.774 327.248 234.376 323.729 232.033 321.468C229.878 319.386 224.398 316.89 224.042 312.944C223.642 308.487 227.963 307.653 230.438 306.945C233.973 305.934 237.404 303.499 241.056 303.302ZM229.492 185.835C225.728 186.292 221.985 186.997 218.403 188.572C215.979 189.638 212.256 190.402 210.538 193.017C209.053 195.279 209.696 198.503 209.213 201.175C208.56 204.791 206.579 204.296 204.658 202.039C202.359 199.337 201.694 197.38 198.493 199.916C191.867 205.166 186.614 212.916 181.358 220.096C185.422 221.647 193.395 222.022 194.745 228.42C195.483 231.918 193.259 234.462 191.26 236.371C188.679 238.836 185.985 241.115 183.461 243.679C181.105 246.072 175.823 255.598 174.329 247.223C173.404 242.038 175.137 236.681 174.402 231.56C171.206 238.052 167.961 244.528 165.031 251.219C162.537 256.915 161.087 263.007 159.891 269.305C161.755 269.459 163.696 268.266 165.54 268.97C167.315 269.648 168.146 271.764 168.271 273.956C168.482 277.673 167.12 281.455 166.435 285.024C165.965 287.475 165.425 293.038 163.055 293.836C160.354 294.745 158.659 289.51 157.455 287.383C156.308 289.604 156.327 292.852 156.16 295.397C156.045 297.147 155.27 300.419 156.832 301.387C158.295 302.293 161.378 301.158 162.941 301.074C165.843 300.919 168.8 300.623 171.703 300.731C174.445 300.833 178.479 302.68 179.55 298.434C180.28 295.543 180.922 285.154 184.812 290.791C186.54 293.294 187.892 296.147 189.561 298.698C191.245 301.27 192.776 301.439 195.291 301.308C200.269 301.051 205.13 302.256 210 303.228C214.274 304.081 213.714 299.511 213.65 295.442C213.553 289.135 214.546 282.54 215.087 276.267C216.375 261.352 219.017 246.617 223.082 232.51C219.682 231.051 213.585 236.938 211.071 232.467C209.004 228.792 211.659 223.73 212.74 220.294C214.089 216.008 214.771 211.531 216.97 207.732C217.663 206.533 218.651 204.926 219.994 205.33C221.147 205.677 221.606 207.529 222.255 208.574C224.314 211.891 226.944 214.378 228.774 217.996C229.893 220.21 230.764 222.575 231.128 225.173C231.228 225.888 231.101 227.351 231.5 227.95C232.738 229.807 236.636 229.78 238.369 230.919C244.284 234.808 246.363 246.13 248.66 253.269C249.307 255.279 249.949 257.295 250.293 259.426C250.523 260.85 250.512 262.661 251.125 263.939C252.463 266.728 256.622 264.237 258.663 263.805C262.083 263.081 265.487 262.391 268.921 261.783C271.016 261.413 274.066 260.456 275.663 262.795C277.318 265.219 276.366 269.038 275.535 271.64C274.179 275.886 272.446 279.942 271.015 284.15C269.873 287.506 269.305 291.829 267.111 294.415C265.211 296.656 262.066 297.298 259.829 295.474C258.552 294.434 255.274 284.367 254.409 284.817C255.971 292.592 258.26 300.521 260.679 307.942C261.422 310.221 262.697 314.869 264.574 316.106C266.13 317.131 269.66 315.194 271.251 314.819C272.761 314.462 275.74 312.918 277.183 314.049C278.932 315.421 279.145 319.08 279.342 321.351C279.488 323.035 279.223 324.292 280.849 324.209C281.995 324.15 283.151 323.446 284.251 323.092C286.803 322.271 289.452 321.728 292.051 321.2C298.06 319.977 304.068 318.758 310.075 317.504C315.239 316.427 320.336 316.433 325.003 313.347C327.368 311.783 330.079 311.305 332.598 310.259C335.096 309.221 337.586 308.548 340.2 308.158C345.915 307.307 351.475 306.473 357.123 305.015C360.214 304.216 363.299 303.38 366.373 302.486C369.109 301.69 371.755 300.425 374.478 299.645C376.743 298.996 378.604 299.484 379.575 296.244C380.271 293.92 380.109 291.317 380.288 288.885C381.105 277.775 378.017 266.602 377.385 255.553C377.18 251.975 377.117 248.386 376.904 244.81C376.806 243.172 376.865 238.401 375.348 237.518C375.21 238.829 375.318 241.033 374.136 241.682C374.713 241.365 373.956 245.236 373.915 245.624C373.753 247.17 374.156 248.823 373.944 250.339C374.112 250.872 374.039 251.274 373.724 251.544C373.509 251.763 373.353 252.04 373.255 252.375C373.24 253.456 373.491 252.819 373.503 253.192C373.622 256.91 373.123 260.765 373.337 264.573C373.562 268.599 374.276 272.548 374.818 276.519C375.304 280.082 375.828 283.654 376.234 287.234C376.518 289.746 376.729 292.63 375.656 294.917C373.619 299.259 367.721 298.787 364.286 299.497C358.576 300.678 352.859 301.743 347.128 302.746C344.928 303.131 342.702 304.01 340.476 304.054C338.098 304.101 336.826 302.891 335.327 300.681C332.307 296.227 330.359 291.168 327.844 286.324C326.431 283.602 325.255 282.885 322.877 282.054C320.667 281.283 318.894 279.252 317.097 277.563C313.321 274.014 308.446 270.156 305.968 264.931C303.361 259.432 307.035 257.606 310.553 256.106C309.697 253.239 308.018 250.937 306.635 248.47C305.062 245.666 303.636 242.754 301.943 240.055C298.492 234.555 295.045 229.083 291.696 223.48C288.833 218.691 285.939 214.154 282.286 210.275C278.616 206.378 274.531 203.185 270.501 199.923C268.396 198.218 264.7 193.864 262.04 194.309C259.459 194.742 258.438 200.798 257.794 203.343C257.054 206.264 256.793 210.337 255.069 212.637C252.535 216.016 249.905 210.693 248.696 208.239C246.482 203.746 244.217 199.292 242.006 194.794C240.999 192.743 239.544 190.792 238.946 188.467C238.938 188.44 238.659 186.44 238.941 186.72L238.961 186.743L238.942 186.716C238.309 185.926 235.974 185.763 235.1 185.667L235.021 185.658C233.183 185.44 231.324 185.612 229.492 185.835ZM204.817 311.845C202.701 311.829 200.591 312.139 198.485 312.356C196.634 312.547 194.939 312.19 193.092 312.05C190.807 311.877 189.676 312.179 190.203 315.152C190.585 317.315 191.045 320.197 192.808 321.112C195.19 322.347 198.398 322.181 200.936 322.649C202.799 322.992 204.657 323.302 206.512 323.694C207.744 323.954 208.377 324.226 208.954 322.467C209.436 320.993 209.125 319.024 208.961 317.501C208.834 316.332 208.91 314.277 208.472 313.238C207.818 311.686 206.105 311.855 204.817 311.845ZM303.471 282.196C306.58 285.776 308.672 290.354 311.02 294.695C312.453 297.346 315.257 301.572 313.222 304.785C311.486 307.525 307.452 306.898 305.025 307.03C301.211 307.237 298.096 309.408 294.467 310.528C285.326 313.349 292.918 293.991 294.184 289.951C295.073 287.117 295.989 284.295 297.064 281.563C297.548 280.332 298.515 276.74 299.72 276.27C301.467 275.587 302.365 280.922 303.471 282.196ZM224.934 241.495C223.481 244.994 223.245 249.837 222.556 253.658C220.451 265.343 219.22 277.243 218.252 289.152C223.066 286.746 228.148 286.58 233.232 285.991C236.915 285.564 240.296 285.076 243.98 285.274C244.608 285.308 246.414 285.709 246.931 285.037C247.626 284.134 246.785 281.615 246.579 280.666C245.463 275.508 244.972 270.179 243.703 265.053C242.41 259.826 240.837 254.606 239.164 249.552C237.94 245.856 236.259 242.251 233.294 240.438C230.697 238.852 226.546 237.614 224.934 241.495ZM205.107 264.236C207.09 268.004 209.603 271.3 211.54 275.103C212.914 277.8 214.522 282.789 211.223 284.504C210.065 285.106 208.697 284.846 207.484 284.872C205.607 284.913 203.749 285.116 201.869 285.06C200.091 285.006 198.33 284.735 196.556 284.618C195.439 284.545 194.035 284.653 193.05 283.845C190.411 281.676 192.319 277.246 193.169 274.413C194.072 271.402 195.291 268.556 196.467 265.703C197.282 263.725 198.501 259.693 200.356 258.887C202.552 257.931 204.192 262.498 205.107 264.236ZM301.293 221.547C305.653 227.934 309.438 234.901 313.003 242.016C314.742 245.488 316.432 249.001 318.118 252.515C319.222 254.814 320.05 257.755 321.394 259.837C324.461 264.587 325.314 254.223 325.766 251.971C327.433 243.664 329.498 235.424 331.335 227.169H329.453C321.949 227.164 314.754 227.024 307.448 224.239C305.38 223.451 303.494 221.74 301.293 221.547ZM285.443 223.157C287.817 225.366 303.011 238.334 296.62 243.338C295.297 244.373 293.136 243.903 291.642 244.052C289.726 244.242 287.781 244.476 285.888 244.903C283.439 245.457 281.059 246.423 278.598 246.913C276.641 247.302 274.049 247.756 272.3 246.221C269.417 243.688 271.167 238.715 272.119 235.495C273.473 230.92 274.754 224.796 278.112 222.071C278.893 221.437 279.85 219.173 280.691 218.966C282.007 218.64 284.48 222.262 285.443 223.157ZM369.272 115.589C368.126 116.694 368.074 118.987 367.777 120.606C366.778 126.051 365.383 131.352 364.555 136.855C363.748 142.223 363.495 147.507 363.89 152.946C364.155 156.575 364.185 161.039 365.936 164.128C368.031 167.825 372.179 167.636 375.316 168.731C378.334 169.784 381.327 173.047 378.035 176.439C376.864 177.644 375.328 177.84 374.172 179C372.745 180.433 371.925 183.001 371.319 185.1C370.82 186.828 370.835 187.158 372.326 187.769C373.007 188.047 373.695 188.224 374.411 188.15C376.043 187.979 377.498 186.621 378.864 185.601C382.348 183 386.372 179.527 390.532 179.134C391.862 179.009 393.373 179.695 394.666 179.151C395.87 178.643 395.501 178.332 395.71 176.921C396.539 171.326 396.875 165.834 399.139 160.773C400.257 158.275 403.212 153.167 405.192 157.055C406.019 158.679 406.318 159.472 408.153 158.974C409.646 158.569 411.286 157.081 410.989 154.909C410.711 152.859 408.571 151.464 407.275 150.566C405.548 149.37 404.337 149.508 402.457 149.225C397.29 148.447 400.913 138.927 401.658 135.355C402.126 133.11 402.673 130.208 401.444 128.181C399.574 125.097 395.499 126.111 392.932 126.548C389.382 127.153 385.506 127.476 382.184 125.446C378.669 123.299 377.171 118.456 373.875 116.101C372.657 115.231 370.523 114.382 369.272 115.589ZM384.698 154.918C387.14 154.877 385.953 159.265 385.284 160.74C383.875 163.851 380.857 165.055 378.207 163.907C376.111 163 373.844 158.99 377.127 158.325C378.701 158.007 380.26 158.136 381.752 157.193C382.602 156.656 383.7 154.935 384.698 154.918ZM378.571 131.586C380.088 132.747 377.498 140.16 377.062 141.661C376.352 144.11 375.719 145.69 377.526 147.578C378.783 148.891 381.261 150.023 380.078 152.639C378.983 155.06 375.225 154.045 373.698 152.86C371.477 151.138 372.131 147.84 372.621 145.133C372.941 143.359 375.868 129.519 378.571 131.586ZM139.6 82.9089C144.28 85.4276 149.066 87.7027 154.018 89.2204C158.346 90.5471 162.601 91.9777 167.061 91.666C171.187 91.3783 171.68 96.4855 169.323 100.023C168.042 101.944 166.557 101.896 164.69 101.97C162.506 102.057 160.522 102.821 158.415 103.505C155.207 104.546 151.958 105.43 148.849 106.9C147.244 107.659 145.661 108.551 144.23 109.749C143.33 110.503 141.323 111.862 142.385 112.915C143.919 114.438 148.475 112.352 150.302 112.215C154.555 111.895 158.8 111.412 163.029 110.741C165.101 110.412 167.324 110.087 169.286 109.139C170.57 108.519 171.991 106.979 173.444 107.37C176.51 108.195 174.991 113.987 173.599 115.871C171.531 118.669 168.393 119.905 165.723 121.494C163.856 122.606 162.001 123.783 160.189 125.027C159.332 125.615 155.342 127.816 155.469 129.487C155.601 131.244 158.751 130.358 159.53 130.198C164.729 129.133 169.42 126.6 174.223 124.009C176.326 122.874 178.458 121.785 180.516 120.527C181.954 119.648 183.367 118.309 184.956 117.909C188.701 116.967 188.537 122.237 190.012 125.084C194.395 133.546 202.864 137.156 209.453 142.046C211.945 143.895 214.323 146.025 216.61 148.253C218.244 149.844 218.897 152.034 220.722 149.936C222.242 148.187 222.975 145.622 223.95 143.397C225.084 140.808 226.6 138.521 227.763 135.953C229.481 132.158 229.996 128.539 226.222 127.143C222.26 125.677 219.125 123.491 215.757 120.373C207.494 112.719 200.637 102.945 192.397 95.2326C184.763 88.0871 176.668 81.3817 167.098 79.4629C158.028 77.6436 148.077 78.0916 139.6 82.9089ZM387.178 137.871C386.984 139.978 386.572 144.472 384.249 144.64C381.428 144.844 383.322 134.044 384.921 132.829C387.48 130.883 387.342 136.085 387.178 137.871ZM360.923 137.01C357.401 137.378 356.398 142.238 359.918 143.959L360.923 137.01ZM373.983 132.745C373.531 134.951 373.692 138.491 372.287 140.184C370.306 142.569 369.444 139.068 369.459 137.072C369.473 135.097 370.25 130.158 372.347 129.898C374.139 129.675 372.648 132.293 373.983 132.745ZM411.993 83.6675C410.705 87.043 412.089 90.3745 412.86 93.6925C411.279 94.3344 409.149 93.8489 408.184 95.9537C407.576 97.2804 407.682 99.2779 407.864 100.715C408.014 101.893 408.781 103.48 408.142 104.574C407.306 106.006 405.232 105.344 404.31 106.936C402.909 109.358 403.695 114.891 405.661 116.714C408.424 119.275 406.775 112.99 406.606 111.845C406.183 108.978 408.54 109.368 410.151 108.21C411.015 107.589 411.169 107.469 411.367 106.142C411.55 104.921 411.453 103.952 411.222 102.635C410.438 98.168 411.809 98.8975 414.625 97.9133C417.055 97.0637 416.86 94.6176 416.243 92.0464C415.759 90.031 414.316 86.7246 415.879 85.0064C416.499 84.3244 417.442 84.7556 417.576 83.3323C417.666 82.3715 416.643 80.7963 416.105 80.2438C414.253 78.339 412.746 81.6934 411.993 83.6675Z" fill="#3A3A3A"/>
</svg>
