<svg width="454" height="356" viewBox="0 0 454 356" fill="none" xmlns="http://www.w3.org/2000/svg">
<path d="M0 0H453.75V356H0V0Z" fill="white" fill-opacity="0.01"/>
<path fill-rule="evenodd" clip-rule="evenodd" d="M275.536 230.956C274.824 241.883 260.65 247.564 252.053 249.895C253.777 239.176 256.002 228.064 254.617 217.192C254.162 213.611 253.563 210.049 252.921 206.501C252.683 205.188 252.438 203.877 252.184 202.568C252.123 202.25 251.624 200.857 251.783 200.539C252.067 199.972 254.472 200.061 255.085 200.086C256.663 200.149 258.213 200.566 259.658 201.226C262.694 202.613 265.252 205.001 267.36 207.637C272.331 213.851 276.074 222.716 275.536 230.956ZM259.126 156.677C250.898 161.774 240.986 164.51 231.601 165.843C217.304 167.874 202.706 165.536 188.729 162.296C185.297 161.5 181.872 160.643 178.49 159.636C178.338 169.999 181.125 179.853 186.567 188.495C191.067 195.64 196.94 201.612 202.073 208.23C206.852 214.391 210.706 221.341 210.897 229.473C210.977 232.866 210.71 235.972 207.994 238.171C205.264 240.381 201.578 241.2 198.237 241.704C189.874 242.965 181.114 242.283 172.803 240.895C171.19 240.626 169.579 240.319 167.986 239.935C166.178 239.5 165.544 238.986 164.034 240.406C160.775 243.47 159.28 248.066 158.542 252.462C157.158 260.696 157.628 270.3 159.622 278.424C161.543 286.249 170.61 290.586 177.327 292.477C197.588 298.181 219.942 290.303 235.489 276.28C235.827 275.974 236.164 275.665 236.492 275.346C237.596 277.751 238.802 280.114 240.12 282.399C241.037 283.988 242.002 285.585 243.158 287C243.575 287.51 244.065 288.201 244.636 288.535C245.699 289.158 246.779 288.7 247.981 288.482C256.855 286.87 265.707 284.75 274.145 281.412C286.972 276.337 298.476 267.977 304.555 254.771C307.627 248.1 309.228 240.791 310.003 233.461C310.892 225.045 311.084 216.441 308.82 208.238C304.671 193.206 294.087 181.019 282.495 171.62C275.323 165.803 267.438 160.548 259.126 156.677Z" fill="#FFE202"/>
<path fill-rule="evenodd" clip-rule="evenodd" d="M404.112 57.1324C402.237 57.9121 400.218 58.1291 398.223 58.2816C396.658 58.4012 395.429 59.0575 393.955 59.0946C389.849 59.1971 385.725 59.3899 381.639 60.0319C377.535 60.6767 373.755 59.8344 370.515 63.0602C369.361 64.2079 367.915 65.5276 368.609 67.3804C368.927 68.2287 369.375 68.8373 369.639 69.7482C369.937 70.7777 370.309 71.7502 370.74 72.7306C371.569 74.6107 375.717 81.613 372.351 82.4696C368.701 83.3981 363.752 82.3129 360.236 81.2505C358.185 80.6308 356.166 79.9044 354.144 79.1887C352.544 78.6222 350.441 78.301 348.967 77.4138C347.988 76.8246 347.786 75.8197 347.139 74.8648C345.963 73.1279 344.864 71.6487 343.344 70.2034C340.192 67.2057 336.25 65.1703 332.364 63.3814C332.113 63.2651 331.655 62.9949 331.384 62.968C331.092 62.9397 330.77 63.2549 330.58 63.2164C330.062 63.1112 329.882 62.77 329.314 62.433C328.552 61.9806 325.446 60.4746 324.902 61.6585C325.411 60.1033 325.782 60.552 327.158 60.7777C327.764 60.8779 328.169 60.5872 328.714 60.6164C329.216 60.6428 329.422 60.9418 329.841 61.0225C330.609 61.1699 331.324 61.0586 332.126 61.0526C332.341 60.5552 332.647 60.5589 333.042 61.0633C333.263 61.1384 333.485 61.213 333.705 61.2886C334.504 61.5175 335.357 61.4735 336.174 61.5407C337.402 61.6427 340.601 63.2085 341.217 61.6237C341.874 59.9313 339.879 59.5095 339.546 58.3284C339.222 57.1695 340.741 56.4895 341.351 55.79C342.046 54.9941 342.47 54.2956 343.286 53.5947C343.763 53.1831 344.39 52.7997 344.744 52.2513C345.069 51.747 345.055 50.9316 345.478 50.5117C345.982 50.0106 346.059 50.3573 346.517 50.1153C347.416 49.6398 347.019 49.6639 347.55 49.014C348.005 48.4586 348.34 48.4753 348.935 48.0498C349.805 47.4263 350.111 46.2083 350.957 45.5384C351.575 45.048 352.561 45.0488 353.103 44.5394C353.423 44.2394 353.325 43.7531 353.601 43.4698C354.132 42.9255 354.495 43.1466 355.158 42.9672C356.275 42.6646 356.636 42.0186 357.459 41.2705C358.21 40.5875 358.687 40.5905 359.628 40.3072C360.913 39.9206 361.743 38.9077 362.902 38.3126C363.994 37.7528 365.121 37.3603 366.225 36.7639C367.023 36.3331 367.791 36.0658 368.519 35.6261C368.765 35.4778 368.787 34.9344 369.104 34.8608C369.468 34.776 369.759 35.4093 370.147 35.4425C370.959 35.5123 371.883 34.57 372.417 34.0245C372.648 33.7875 372.962 33.1465 373.26 33.0141C373.884 32.7368 374.256 33.2861 374.812 33.0692C375.592 32.7649 375.282 31.8739 375.76 31.3826C376.178 30.9539 377.066 30.9829 377.809 31.1187C380.8 31.6642 376.145 33.8749 375.269 34.3221C373.797 35.0752 363.083 40.5539 365.59 43.2862C366.916 44.7315 370.153 43.6446 371.595 43.2639C374.122 42.5961 376.757 41.3104 379.349 41.0154C379.669 40.9788 380.625 41.2188 380.886 41.1142C381.475 40.8784 381.328 40.4068 381.807 40.1588C382.528 39.7865 384 39.8046 384.732 39.8882C385.304 39.9538 385.93 40.311 386.512 40.2627C387.153 40.2093 387.772 39.8193 388.408 39.6936C389.495 39.4793 390.621 39.5843 391.72 39.6176C393.299 39.6659 396.457 39.9155 394.162 42.111C392.305 43.888 389.091 44.6571 386.748 45.4325C383.281 46.5785 379.876 47.6215 376.454 48.9273C374.123 49.8164 369.149 51.3785 371.925 54.7123C372.199 54.4416 372.473 54.1713 372.746 53.9006C373.07 54.2432 373.405 54.9098 373.923 54.9292C374.354 54.945 374.196 54.4601 374.604 54.3085C375.886 53.8325 377.644 53.8686 378.996 53.7792C382.382 53.5548 385.757 53.0853 389.148 52.9397C392.342 52.803 395.57 52.981 398.701 53.6818C399.507 53.8622 407.016 55.9254 404.112 57.1324ZM376.417 91.4118C376.587 92.8998 375.956 94.1036 375.78 95.541C375.569 97.2789 375.724 98.8095 375.253 100.537C374.338 103.895 373.687 107.331 372.704 110.67C370.969 116.565 368.168 121.772 365.289 127.121C363.819 129.848 361.607 132.1 359.585 134.381C357.513 136.718 355.857 139.019 353.38 140.939C348.43 144.775 343.089 148.187 337.229 150.26C331.095 152.43 324.645 153.087 318.202 152.811C315.343 152.689 312.312 152.991 309.498 152.508C306.506 151.993 303.264 151.361 300.324 150.601C294.926 149.207 289.725 146.841 284.453 144.727C278.566 142.366 273.265 139.353 267.897 135.948C266.476 135.048 264.975 134.627 263.643 133.537C262.52 132.619 261.415 131.74 260.235 130.901C258.879 129.939 257.582 128.887 256.197 127.972C255.37 127.425 254.205 126.89 253.771 125.901C253.173 124.539 253.894 122.83 254.266 121.509C254.751 119.79 255.267 118.093 255.849 116.408C256.836 113.555 259.347 109.154 257.966 106.138C255.054 108.025 253.77 111.735 252.526 114.888C251.039 118.656 250.001 122.414 249.777 126.501C249.327 134.72 250.642 143.372 253.492 151.036C253.916 152.174 254.66 153.408 254.113 154.626C253.539 155.903 251.982 156.983 250.785 157.535C246.999 159.282 243.197 159.791 239.243 160.758C238.166 161.02 236.987 161.811 235.977 161.91C235.295 161.978 234.731 161.744 233.95 161.749C233.166 161.755 232.552 162.214 231.85 162.263C231.238 162.307 230.694 161.932 230.109 161.967C228.802 162.047 228.561 164.391 227.913 162.327C227.795 162.412 227.146 163.181 227.065 163.182C226.88 163.182 226.554 162.609 226.378 162.507C226.034 162.307 225.581 162.296 225.197 162.244C224.349 162.128 223.435 162.117 222.6 162.32C221.052 162.698 219.495 162.539 218.171 162.511C217.87 162.505 217.656 162.759 217.282 162.744C217.111 162.736 216.866 162.421 216.685 162.372C215.638 162.09 214.552 162.301 213.486 162.239C210.981 162.094 208.562 162.024 206.117 161.446C201.104 160.258 195.994 160.021 190.961 158.935C188.398 158.382 185.893 158.08 183.369 157.351C182.482 157.094 181.572 156.973 180.786 156.624C180.036 156.29 180.331 155.845 179.166 156.738C178.642 155.396 178.58 155.533 177.317 155.089C176.828 154.917 175.705 154.491 175.342 154.153C175.305 154.119 174.528 152.076 174.461 151.825C174.137 150.605 174.407 149.21 174.542 147.982C174.847 145.214 175.288 142.468 175.315 139.677C175.326 138.446 175.538 138.411 175.904 137.483C176.017 137.196 176.35 137.219 176.378 136.781C176.415 136.197 175.845 135.791 175.906 135.11C175.988 134.193 176.868 133.264 177.177 132.41C177.548 131.381 177.543 130.293 177.765 129.228C178.061 127.812 178.634 126.482 178.922 125.06C179.168 123.855 179.191 122.897 179.805 121.863C180.418 120.831 180.238 119.989 180.726 118.961C181.175 118.019 181.742 117.681 182.049 116.543C182.793 113.79 183.923 111.064 185.523 108.73C186.931 114.582 188.429 120.629 192.348 125.255C193.963 127.159 196.048 129.081 198.482 129.661C201.235 130.317 203.436 128.619 205.228 126.607C209.499 121.813 211.268 116.461 211.526 109.96C211.59 108.345 211.581 106.726 211.56 105.109C211.55 104.39 211.198 102.543 211.669 101.938C212.186 101.275 213.66 101.689 214.428 101.252C215.371 100.714 216.408 99.2735 215.987 98.0859C218.502 99.2772 220.907 100.845 223.704 101.177C224.811 101.309 225.991 101.109 226.981 101.053C226.951 101.055 227.748 101.225 227.795 101.236C227.992 100.999 228.204 100.942 228.433 101.063C228.636 101.086 228.784 101.2 228.877 101.406C232.864 101.823 236.878 99.762 240.291 97.5792C242.284 96.3036 244.474 94.4156 245.034 91.9324C245.234 91.0465 245.061 90.2117 245.937 89.7598C246.648 89.3917 248.021 89.9225 248.772 89.9799C251.413 90.1825 254.015 89.9201 256.593 90.7434C258.166 91.2459 260.912 94.7665 262.009 92.2898C262.485 92.757 262.227 93.5891 262.733 94.0438C263.175 94.4401 264.66 94.7192 265.271 95.0585C266.217 95.5832 266.771 96.2818 267.6 96.9127C268.617 97.6882 269.682 97.748 270.667 98.6579C274.078 101.809 278.074 104.092 281.883 106.705C286.403 109.805 290.402 113.46 295.252 115.988C300.211 118.574 305.01 120.734 310.43 122.079C312.889 122.69 315.41 123.199 317.934 123.387C319.124 123.475 320.26 123.431 321.408 123.805C322.105 124.032 322.331 124.145 323.016 124.166C323.415 124.178 323.993 123.937 324.485 123.946C325.495 123.965 326.011 123.922 326.922 124.271C327.953 124.667 328.811 124.905 329.985 124.938C331.335 124.978 332.131 124.435 333.358 124.101C334.347 123.831 335.238 123.96 336.122 123.399C340.056 120.91 343.217 117.109 345.28 112.793C347.649 107.84 349.473 101.802 349.844 96.2516C350.057 93.0745 349.387 89.9762 348.227 87.0592C347.9 86.2364 345.936 82.7315 346.541 82.0951C347.228 81.3715 349.473 83.0296 350.107 83.3898C352.115 84.5319 355.743 84.8977 357.151 86.819C357.51 86.0992 359.504 87.1662 360.144 87.4666C360.673 87.7151 360.823 88.1642 361.489 88.218C362.116 88.2685 362.764 87.7452 363.34 87.5783C362.919 88.8081 364.336 88.8656 365.306 88.9309C366.005 88.9778 366.757 88.8628 367.379 88.8164C368.571 88.7279 368.59 88.4479 369.679 87.8092C369.636 88.2769 369.685 88.7339 369.824 89.1799C370.523 88.1207 371.857 88.8563 372.803 88.3909C372.12 87.3067 375.036 87.0096 375.715 87.2376C377.425 87.8119 376.266 90.0935 376.417 91.4118ZM242.547 165.934C243.675 165.582 244.81 165.26 245.941 164.924C245.084 165.747 244.194 167.231 242.97 167.463C241.494 167.742 240.912 166.443 242.547 165.934ZM186.854 166.523C188.753 166.761 190.821 166.579 192.486 167.752C191.674 168.728 191.148 169.75 189.794 169.19C188.657 168.72 187.721 167.379 186.854 166.523ZM250.303 219.982C249.056 218.813 249.221 218.289 249.806 216.775C250.058 216.123 250.457 214.098 251.403 214.692C251.739 214.902 252.146 217.109 252.206 217.556C252.34 218.555 251.749 221.339 250.303 219.982ZM257.337 213.188C256.897 211.495 256.912 209.651 256.479 207.916C256.022 206.083 255.46 204.245 255.298 202.351C261.887 203.569 265.629 210.41 268.484 216.119C270 219.152 271.487 222.507 272.059 225.899C272.617 229.203 271.649 231.712 270.524 234.657C269.95 236.161 269.002 236.683 267.896 237.676C266.915 238.556 266.548 240.041 265.526 240.832C264.772 241.417 263.791 241.72 263.001 242.31C262.221 242.893 261.442 243.47 260.637 244.015C259.717 244.636 256.959 246.904 255.717 246.42C254.787 246.058 255.202 244.868 255.436 244.121C255.929 242.548 256.276 241.033 256.58 239.393C257.393 235.017 257.834 230.669 258.045 226.218C258.25 221.871 258.442 217.431 257.337 213.188ZM251.826 232.926C251.925 233.141 252.336 234.978 251.418 234.601C250.78 234.338 251.732 233.263 251.826 232.926ZM255.708 159.987C256.486 159.651 256.797 160.645 257.481 160.675C258.389 160.714 258.579 159.658 259.531 159.627C261.86 159.551 265.234 161.904 267.127 163.133C266.2 164.359 265.818 165.613 266.279 167.123C266.685 168.452 268.236 169.939 268.18 171.349C268.121 172.762 266.442 173.671 265.919 174.929C265.438 176.083 265.254 178.393 266.739 178.902C269.294 179.777 269.879 174.771 271.815 174.732C272.643 174.716 273.719 176.344 274.314 176.851C275.647 177.986 277.15 178.815 278.701 179.569C279.748 180.078 281.204 181.08 281.98 179.713C282.603 178.618 282.094 176.882 281.49 175.94C280.796 174.859 274.583 169.911 274.975 169.475C275.184 169.243 276.731 169.884 276.951 170.079C277.446 170.517 277.628 171.231 278.124 171.699C278.883 172.412 279.862 172.694 280.799 173.024C282.755 173.712 283.993 176.131 285.889 177.257C286.982 177.906 287.65 179.154 288.575 180.12C289.786 181.384 291.02 182.71 290.838 184.572C290.711 185.862 290.528 188.868 289.831 189.957C289.073 191.138 287.814 190.685 286.663 190.964C285.368 191.278 284.333 192.335 284.591 193.844C284.858 195.413 286.058 195.525 287.311 195.565C290.845 195.676 289.544 198.024 290.776 200.603C291.446 202.003 292.563 202.553 293.331 200.914C293.95 199.595 292.845 197.516 293.516 196.39C294.334 195.018 298.713 195.391 299.626 196.457C300.318 197.265 300.685 198.377 301.376 199.222C302.423 200.506 302.854 202.305 303.483 203.879C304.15 205.55 304.732 207.245 305.243 208.977C305.602 210.192 306.378 212.119 304.521 211.08C303.224 210.355 302.256 208.718 300.612 208.667C298.987 208.616 298.061 210.382 298.536 211.917C298.995 213.403 301.091 214.058 301.333 215.565C301.6 217.213 298.901 218.895 298.081 220.107C296.194 222.898 297.773 226.04 300.866 223.67C301.962 222.831 303.11 221.137 304.347 220.607C306.303 219.767 306.291 222.878 307.229 224.023C307.733 224.638 307.915 224.013 307.617 224.933C307.506 225.272 306.948 225.379 306.885 225.8C306.84 226.11 307.104 226.273 307.113 226.512C307.144 227.324 307.146 227.443 306.972 228.325C306.779 229.302 306.849 230.516 306.791 231.51C306.657 233.78 306.629 235.948 306.401 238.217C306.275 239.48 306.01 242.052 307.435 242.668C306.927 243.499 306.252 245.812 305.255 245.639C305.336 246.186 305.29 246.886 305.799 247.243C305.921 246.91 306.042 246.576 306.163 246.242C306.443 247.005 306.197 247.093 306.18 247.612C306.201 246.969 305.619 248.509 305.934 248.319C305.666 248.553 305.313 248.687 304.911 248.99C304.349 249.413 304.053 249.997 303.617 250.569C302.828 251.603 302.874 252.647 302.183 253.725C301.203 255.254 299.945 256.764 298.913 258.292C298.072 259.537 296.47 260.254 295.797 261.591C295.368 262.442 295.198 263.431 294.467 264.029C293.42 264.885 292.021 265.692 290.884 266.577C290.169 267.133 289.625 267.905 288.912 268.444C288.55 268.718 287.462 268.995 287.461 269.552C286.092 269.151 285.123 267.688 284.046 266.798C283.327 266.203 281.614 265.43 281.717 264.237C281.802 263.262 283.128 262.052 283.433 261.029C283.693 260.162 284.053 258.545 283.337 257.805C281.834 256.252 280.13 259.585 279.323 260.472C277.658 262.302 276.951 260.457 275.582 259.128C273.396 257.006 272.022 259.208 272.792 261.851C273.181 263.189 274.665 264.382 274.762 265.748C274.867 267.25 273.312 268.004 272.697 269.204C272.116 270.336 271.847 272.323 272.939 273.26C274.144 274.292 275.192 273.071 275.98 272.117C276.592 271.377 277.272 269.747 278.266 269.655C279.511 269.539 281.553 271.905 282.5 272.635C281.061 273.071 280.195 274.332 278.978 275.139C277.408 276.181 275.216 276.428 273.459 277.143C271.803 277.818 270.314 278.367 268.738 279.203C266.868 280.195 264.58 280.443 262.599 281.165C260.831 281.81 259.153 282.715 257.347 283.248C255.312 283.848 253.199 284.209 251.146 284.752C249.391 285.215 247.332 285.661 245.524 285.665C243.694 285.668 243.732 284.483 243.147 282.904C242.452 281.028 241.301 279.382 240.566 277.552C239.868 275.811 240.923 275.15 241.935 273.818C242.888 272.563 242.636 272.366 243.865 273.248C245.483 274.408 246.552 273.623 247.811 272.289C248.931 271.104 249.342 270.118 250.954 270.944C252.567 271.77 254.103 273.114 255.836 273.653C257.201 274.077 258.218 273.769 258.447 272.207C258.693 270.519 257.773 269.321 256.614 268.319C255.731 267.557 253.803 266.652 253.481 265.415C253.141 264.111 254.931 262.21 255.122 260.752C255.363 258.912 254.606 257.56 252.937 258.833C251.727 259.757 250.921 261.761 249.24 261.885C249.707 259.837 250.719 258.017 251.588 256.139C252.316 254.568 252.94 252.784 254.895 252.609C255.528 252.552 255.94 252.621 256.545 252.507C257.343 252.357 258.426 252.238 259.279 252.012C261.286 251.482 263.059 249.86 264.908 248.931C265.332 250.124 266.081 253.522 267.807 251.538C269.084 250.071 267.67 247.545 268.846 245.912C271.272 242.544 276.556 245.017 279.743 243.28C281.13 242.524 282.26 240.113 280.304 239.385C279.16 238.961 275.86 240.529 275.172 239.373C274.681 238.548 276.736 235.328 276.984 234.442C277.757 231.687 277.632 228.826 277.632 225.989C279.183 226.652 281.145 228.206 282.817 228.419C284.535 228.637 284.837 226.526 284.387 225.14C283.766 223.23 281.698 221.664 280.281 220.434C279.655 219.892 278.019 219.018 277.677 218.194C277.323 217.342 277.83 216.93 278.227 216.19C278.847 215.033 280.35 212.044 278.715 210.961C277.21 209.964 276.366 212.758 275.408 213.355C273.781 214.369 273.224 212.046 272.577 210.864C271.404 208.717 269.777 206.801 268.317 204.87C266.988 203.111 266.169 201.922 265.975 199.681C265.827 197.984 265.496 196.671 267.409 196.285C270.799 195.602 275.763 197.286 278.518 194.399C279.962 192.886 278.93 191.321 277.107 191.399C274.711 191.501 272.433 191.625 270.021 191.421C268.739 191.313 266.059 191.639 265.412 190.257C264.579 188.477 265.991 185.617 264.457 184.058C262.499 182.066 262.019 186.567 261.955 187.81C261.907 188.716 262.129 190.094 261.59 190.878C261.088 191.608 260.169 191.598 259.426 191.862C257.554 192.527 256.587 194.934 259.07 195.443C259.906 195.614 261.071 195.365 261.765 196.013C262.492 196.691 262.214 197.896 262.282 198.81C260.543 196.701 256.927 197.636 254.571 196.852C253.33 196.44 253.121 195.89 252.599 194.633C251.967 193.111 250.528 191.188 250.472 189.506C250.426 188.077 251.563 187.002 252.093 185.771C252.549 184.715 252.961 182.996 252.893 181.81C252.731 178.951 247.801 181.87 246.785 182.964C244.942 184.949 242.67 187.517 243.669 190.329C244.56 192.838 245.033 194.262 241.941 194.064C240.809 193.992 238.432 194.226 237.554 193.726C236.902 193.355 237.147 192.69 237.126 191.725C237.107 190.89 237.168 189.624 236.655 188.894C234.852 186.327 234.43 192.716 233.417 193.408C231.835 194.49 228.486 193.356 228.744 196.568C228.971 199.378 232.601 198.23 233.606 200.648C234.089 201.813 233.986 203.169 234.595 204.293C235.463 205.895 236.532 205.81 237.107 204.14C237.512 202.966 236.973 201.761 237.284 200.654C237.733 199.053 239.87 199.201 241.185 199.021C242.784 198.8 244.177 198.38 245.697 197.865C247.573 197.23 247.471 198.273 247.776 199.782C248.131 201.533 248.672 203.221 249.005 204.999C249.314 206.655 250.135 208.438 250.269 210.096C250.371 211.363 249.96 211.248 248.958 211.979C247.861 212.778 246.654 214.856 245.382 215.197C243.468 215.711 241.539 211.134 239.798 213.476C239.05 214.482 239.34 216.623 239.872 217.662C240.574 219.034 241.865 219.383 240.783 220.955C239.97 222.137 238.947 223.052 238.871 224.641C238.8 226.117 239.759 227.512 241.258 227.079C242.47 226.729 243.186 225.431 244.103 224.643C245.687 223.282 246.987 224.543 248.608 225.313C249.883 225.919 252.228 226.314 252.868 227.74C253.681 229.55 252.639 230.249 251.129 229.734C251.718 231.757 250.944 232.932 250.731 235.023C250.56 236.715 250.188 238.264 249.951 239.9C249.636 242.085 249.603 241.848 247.454 241.922C245.628 241.985 243.853 241.934 242.03 241.85C240.423 241.776 239.331 241.928 239.258 239.9C239.226 239.005 239.766 235.97 238.08 236.334C236.595 236.655 237.022 239.428 236.526 240.47C235.807 241.978 234.592 241.517 233.24 241.889C231.865 242.269 230.753 243.331 231.107 244.973C231.487 246.726 233.022 246.604 234.357 247.009C236.412 247.633 235.961 250.796 237.161 252.515C237.65 253.216 238.166 253.924 238.988 253.349C240.495 252.293 239.072 249.715 239.47 248.421C239.889 247.061 241.301 247.339 242.636 247.163C244.606 246.903 246.669 245.908 248.632 245.92C248.255 247.106 247.201 247.795 246.821 249.042C246.618 249.711 246.808 250.961 246.525 251.514C246.221 252.108 245.264 252.286 244.868 253.112C244.349 254.195 244.189 255.354 243.583 256.414C242.149 258.921 240.914 261.484 239.389 263.965C237.816 266.528 236.119 268.966 234.139 271.188C232.219 273.343 231.646 272.299 229.995 270.537C229.323 269.82 227.896 268.99 227.709 267.919C227.525 266.863 228.359 266.002 228.816 265.143C229.422 264.003 230.516 262.043 230.25 260.676C229.75 258.109 227.556 260.472 226.724 261.433C225.272 263.112 224.46 264.877 222.265 263.551C220.86 262.702 219.088 260.378 217.243 261.238C215.565 262.02 216.035 264.28 217.068 265.427C217.646 266.07 218.47 266.437 219.084 267.038C220.406 268.335 219.658 268.686 219.054 270.138C218.561 271.326 218.49 273.662 219.399 274.652C221.19 276.599 222.574 272.671 224.236 272.591C225.024 272.554 228.298 274.801 228.531 275.611C228.941 277.031 225.408 278.726 224.47 279.393C222.287 280.943 219.908 282.523 217.453 283.551C214.555 284.764 216.714 280.941 215.13 279.671C213.07 278.019 212.91 282.545 212.699 283.67C212.137 286.661 209.117 286.739 206.681 287.48C205.13 287.953 203.578 288.454 202.011 288.865C200.681 289.213 199.192 289.205 197.903 289.637C196.773 290.015 195.999 290.783 194.735 290.792C194.324 290.795 193.967 290.649 193.57 290.64C192.771 290.619 192.038 291.098 191.273 291.048C190.003 290.965 190.556 290.546 190.113 289.618C189.698 288.748 188.641 288.428 187.819 288.156C185.462 287.376 183.5 288.059 183.158 284.924C183.053 283.961 183.192 280.008 181.441 280.471C179.397 281.009 181.196 285.708 179.927 286.885C179.309 287.458 178.377 287.172 177.632 287.342C176.41 287.619 175.874 288.585 174.536 288.52C173.408 288.466 172.357 287.941 171.374 287.421C169.907 286.644 168.158 286.13 166.935 284.946C165.259 283.322 164.524 280.794 163.81 278.598C162.759 275.365 162.311 272.143 162.142 268.752C162.083 267.57 161.603 266.736 161.403 265.652C161.189 264.498 161.82 264.267 161.964 263.174C162.105 262.112 162.037 260.977 162.251 259.839C162.558 258.202 162.665 256.528 162.963 254.886C163.455 252.171 164.203 249.474 164.816 246.784C165.006 245.948 165.352 243.269 166.338 243.011C167.065 242.821 168.745 243.955 169.419 244.287C170.752 244.945 171.898 245.854 173.325 246.309C174.061 246.544 174.99 246.521 175.473 247.236C176.236 248.367 175.619 250.583 175.935 251.92C176.323 253.557 177.605 254.253 178.638 252.609C179.189 251.733 179.043 250.688 179.117 249.719C179.222 248.322 179.245 247.984 180.69 248.078C182.154 248.174 183.583 248.752 185.084 248.822C186.437 248.885 187.797 248.846 189.149 248.769C192.432 248.581 195.435 248.022 198.513 246.799C200.599 245.971 203.018 244.16 205.316 244.224C208.561 244.314 207.682 247.456 208.126 249.807C208.397 251.237 210.684 255.629 211.563 252.065C211.997 250.302 210.549 247.731 211.407 246.139C212.42 244.258 216.144 245.819 217.838 245.383C219.209 245.03 221.5 242.997 220.532 241.242C220.073 240.411 219.183 240.569 218.388 240.507C216.883 240.389 215.388 240.174 213.895 239.944C213.046 239.813 211.748 239.737 211.409 238.717C211.121 237.851 212.472 235.605 212.765 234.777C213.735 232.034 214.085 229.804 214.089 226.813C214.089 225.465 214.174 224.043 213.967 222.71C213.89 222.221 213.19 220.626 213.518 220.16C213.959 219.531 214.862 220.329 215.225 220.799C215.945 221.737 215.694 221.662 215.285 222.633C214.682 224.063 213.511 227.06 215.498 228.16C217.575 229.31 218.326 225.422 220.294 225.849C221.212 226.047 222.117 227.31 222.857 227.899C223.723 228.59 224.657 229.322 225.675 229.746C227.344 230.441 229.22 229.92 228.545 227.724C228.013 225.992 226.331 224.544 225.128 223.316C223.211 221.36 223.298 220.538 224.622 218.234C225.177 217.27 227.304 213.176 224.838 212.843C223.533 212.667 222.121 214.881 221.431 215.729C220.248 217.183 219.569 217.807 217.808 216.639C216.087 215.498 215.288 214.544 213.207 214.439C210.812 214.318 209.734 210.553 208.464 208.62C205.015 203.368 199.734 200.77 195.281 196.746C193.111 194.785 191.646 192.219 189.995 189.805C189.21 188.655 188.195 187.7 187.555 186.447C187.152 185.659 186.061 183.76 186.345 182.83C186.698 181.673 188.607 180.958 189.4 180.141C190.067 179.455 190.423 178.6 191.471 178.862C192.403 179.095 193.244 180.416 194.007 180.996C194.755 181.566 195.6 182.094 196.429 182.52C197.931 183.291 199.743 183.702 199.831 181.36C199.908 179.333 198.141 177.162 196.864 175.794C195.935 174.799 194.528 173.934 194.712 172.354C194.803 171.57 195.439 170.175 195.81 169.518C197.091 167.255 200.999 168.636 203.123 168.781C205.682 168.956 208.503 168.506 210.537 170.4C211.2 171.018 212.738 172.232 213.064 173.092C213.442 174.092 212.823 174.542 212.48 175.511C212.035 176.763 211.729 179.235 213.009 180.098C215.146 181.538 216.26 177.266 218.481 178.2C220.587 179.087 222.06 181.635 224.464 182.038C227.611 182.565 225.819 178.485 224.73 177.285C223.318 175.728 220.579 174.119 221.476 171.817C221.732 171.16 222.317 169.787 222.844 169.379C223.874 168.579 225.535 169.018 226.716 169.031C229.694 169.065 232.505 168.808 235.424 168.264C236.304 168.099 236.504 167.969 237.124 168.655C237.983 169.603 238.434 170.84 239.432 171.773C237.99 173.399 235.851 175.32 236.854 177.824C237.717 179.978 239.609 178.922 240.889 177.771C241.491 177.23 242.112 176.086 242.908 175.869C243.942 175.587 245.105 176.57 245.952 177.069C247.222 177.819 249.94 180.04 251.384 178.729C253.293 176.994 251.034 174.384 249.719 173.313C248.923 172.665 247.864 172.203 247.194 171.403C246.303 170.339 246.826 170.183 247.366 169.224C248.353 167.469 247.991 165.209 249.571 163.838C250.447 163.078 251.7 162.6 252.701 162.043C253.685 161.493 254.742 160.404 255.708 159.987ZM271.807 166.811C271.423 166.565 271.039 166.319 270.655 166.073C271.533 165.625 272.113 165.678 271.807 166.811ZM293.008 188.135C293.162 187.316 293.766 185.851 294.598 186.617C295.133 187.109 294.548 188.958 295.822 188.447C295.887 189.625 295.048 189.525 296.285 190.573C294.725 190.383 292.57 190.457 293.008 188.135ZM232.429 287.432C232.822 286.328 232.819 284.618 234.029 285.626C234.092 284.29 233.79 280.054 236.108 280.226C237.053 280.296 237.043 281.168 237.293 281.924C237.728 283.242 238.464 284.442 239.083 285.671C236.783 285.768 234.481 286.319 232.429 287.432ZM233.182 302.657C234.497 303.697 235.156 302.47 236.397 302.022C237.543 301.609 238.731 301.856 240.001 301.563C241.574 301.2 243.428 301.255 244.966 301.24C245.345 301.237 246.137 301.3 246.52 301.346C247.217 301.43 247.155 301.581 247.877 301.784C248.156 301.716 248.437 301.667 248.721 301.637C249.07 301.621 249.345 301.772 249.546 302.09C250.195 302.316 250.431 302.165 251.053 302.324C252.533 302.702 253.638 303.635 254.605 304.872C256.574 307.39 256.632 311.175 256.587 314.291C256.574 315.179 256.51 316.062 256.604 316.948C256.689 317.76 257.238 318.987 257.014 319.794C256.674 321.016 255.623 320.741 254.398 320.795C253.677 320.828 252.957 321.314 252.383 321.358C251.829 321.399 251.605 321.185 251.043 321.054C249.578 320.711 247.849 321.2 246.404 321.617C244.92 322.046 243.62 322.468 242.116 322.771C241.137 322.968 240.257 323.08 239.269 323.209C238.46 323.315 238.111 323.761 237.404 323.945C236.723 324.121 236.059 323.857 235.372 323.996C234.435 324.185 233.782 324.904 232.929 325.262C231.752 325.756 229.872 325.018 229.35 326.54C229.146 325.072 227.801 325.471 226.799 325.341C225.148 325.127 223.522 324.353 221.934 323.858C220.632 323.454 216.131 319.721 215.269 321.236C215.27 321.083 215.427 320.216 215.291 320.115C214.81 319.762 214.814 319.956 214.297 319.735C213.506 319.397 213.173 319.091 212.608 318.521C211.464 317.368 209.925 316.765 208.721 315.719C205.694 313.091 204.658 307.679 203.92 303.911C202.954 305.702 203.31 303.404 203.477 302.636C203.872 300.824 203.364 299.93 203.249 298.181C203.143 296.57 203.845 296.252 205.234 296.084C206.946 295.876 208.593 295.586 210.27 295.139C211.871 294.712 213.44 294.231 214.885 293.382C216.207 292.605 217.594 292.299 218.946 291.619C220.437 290.869 221.9 290.08 223.404 289.349C224.082 289.02 227.068 286.663 227.586 286.807C228.65 287.101 227.646 289.051 227.321 289.562C226.488 290.876 225.119 291.485 223.884 292.312C222.771 293.057 219.393 296.588 222.822 296.234C225.094 295.999 226.633 293.508 228.087 296.347C228.6 297.349 229.355 298.154 228.765 299.19C227.941 300.635 225.565 301.324 224.32 302.296C223.258 303.125 221.086 307.033 223.275 307.452C223.904 307.572 224.874 307.417 225.342 306.905C225.657 306.56 225.635 305.85 225.954 305.614C226.407 305.279 227.285 305.694 227.802 305.51C228.537 305.248 228.71 304.828 228.98 304.089C229.766 304.464 229.777 304.967 230.674 304.483C230.971 304.323 231.081 303.734 231.425 303.577C231.888 303.366 232.025 304.058 232.279 303.956C232.967 303.68 232.964 303.369 233.182 302.657ZM186.029 291.163C184.712 291.267 183.273 291.378 182.149 290.499C183.514 290.585 184.719 290.908 186.088 290.613C186.632 290.496 187.503 289.958 188.061 290.145C190.042 290.81 186.556 291.122 186.029 291.163ZM182.37 169.923C182.351 169.438 181.958 162.916 184.087 165.478C184.671 166.179 184.042 167.117 183.959 167.892C183.819 169.199 184.257 170.508 184.914 171.608C185.528 172.634 186.674 173.532 186.502 174.87C186.352 176.043 185.22 177.046 184.662 178.019C183.29 175.757 182.481 172.645 182.37 169.923ZM177.689 101.474C172.754 102.017 167.844 102.979 163.086 104.462C158.414 105.919 154.059 108.196 149.669 110.378C148.764 106.325 147.817 102.283 146.923 98.2273C146.493 96.2753 146.083 94.3182 145.68 92.3593C145.394 90.9668 144.352 88.3701 144.787 87.0003C145.017 86.2744 145.322 86.2711 145.818 85.8229C146.121 85.5494 146.649 84.88 146.964 84.7368C147.729 84.3887 149.694 84.0837 150.477 84.1333C151.191 84.1782 151.564 84.4749 152.298 84.2603C152.924 84.0777 153.449 83.5742 154.035 83.2984C155.528 82.5962 157.392 82.3607 158.988 81.9889C160.525 81.6315 162.112 81.5518 163.652 81.1977C165.001 80.8871 165.642 79.8483 166.793 79.8858C169.787 79.9837 173.099 79.6165 176.07 78.8679C179.403 78.0284 183.03 78.1907 186.45 78.1007C187.812 78.0651 188.77 77.7443 188.777 79.3314C188.785 81.2681 188.045 83.4426 187.668 85.3334C186.831 89.5257 186.123 93.6007 185.806 97.8574C185.648 99.9869 184.814 99.8381 183.159 100.491C181.318 101.218 179.647 101.259 177.689 101.474ZM151.743 144.485C152.959 144.673 152.819 141.193 152.908 140.486C155.807 146.206 159.072 151.71 161.627 157.618C162.224 158.999 162.766 160.412 163.397 161.777C163.829 162.711 164.795 163.966 164.772 165.053C164.747 166.187 163.871 166.612 162.948 167.032C161.951 167.486 161.561 167.713 160.858 167.188C160.007 166.551 159.297 164.592 158.771 163.647C157.969 162.204 157.2 160.741 156.414 159.29C154.991 156.657 153.31 154.137 152.141 151.374C151.045 148.785 149.387 146.557 148.205 144.014C147.035 141.496 145.434 139.108 144.09 136.643C145.44 136.055 147.124 134.586 148.658 134.668C150.243 134.752 150.205 136.353 150.273 137.686C150.345 139.101 149.893 144.199 151.743 144.485ZM155.636 170.327C154.913 171.224 153.282 171.752 152.282 172.25C150.897 172.939 149.479 173.552 148.101 174.256C143.578 176.564 139.074 178.678 134.466 180.798C132.085 181.894 129.732 183.059 127.408 184.282C126.19 184.923 123.508 187.168 122.107 187.225C120.501 187.29 120.464 183.898 120.11 182.626C119.813 181.561 119.261 180.732 118.89 179.723C118.739 179.31 118.856 178.998 118.626 178.59C118.363 178.124 117.628 177.749 117.25 177.348C115.645 175.643 114.315 173.472 112.959 171.551C111.718 169.792 109.6 167.588 109.004 165.432C107.833 161.193 114.637 158.846 117.24 157.143C121.798 154.161 126.378 151.098 130.723 147.785C132.702 146.276 134.64 144.707 136.629 143.211C137.558 142.514 140.13 139.799 141.321 140.766C141.765 141.126 141.773 142.123 141.959 142.645C142.363 143.787 142.977 144.784 143.599 145.807C144.152 146.714 144.938 147.652 145.283 148.664C145.695 149.87 145.675 150.554 146.429 151.636C147.799 153.604 148.446 155.875 149.72 157.882C150.948 159.817 152.128 161.244 152.931 163.406C153.392 164.645 154.119 165.744 154.762 166.883C155.065 167.422 155.381 167.95 155.652 168.508C156.138 169.503 156.309 169.49 155.636 170.327ZM116.759 186.884C115.89 187.535 114.61 186.441 113.767 186.426C113.4 186.419 113.036 186.719 112.791 186.71C112.054 186.687 111.451 186.169 110.773 185.928C107.642 184.814 103.908 184.771 101.233 182.508C95.9185 178.012 98.4523 168.991 99.42 163.146C99.6172 161.954 99.9721 160.304 99.0518 159.328C98.0428 158.258 96.5252 158.897 95.6017 159.762C94.6543 160.65 94.01 161.893 93.2226 162.929C91.9682 164.58 90.5989 166.14 89.216 167.672C84.3023 173.116 79.0988 179.344 73.0201 183.339C70.4921 185.001 68.2039 187.253 65.4331 188.519C62.1 190.042 65.5217 184.162 66.1208 183.206C70.0437 176.953 75.755 172.003 80.5513 166.513C81.4566 165.477 82.7421 164.08 82.758 162.588C82.7824 160.346 80.8903 160.548 79.3939 161.17C77.9945 161.752 77.2935 163.201 76.1676 164.19C74.766 165.423 73.1282 166.422 71.568 167.416C68.203 169.562 64.6311 171.362 61.0697 173.117C59.4041 173.938 57.7304 174.741 56.0568 175.544C55.5973 175.765 52.8517 177.587 52.9829 176.025C53.0006 175.815 54.7522 173.589 54.9685 173.507C56.047 173.094 56.5819 174.339 57.5416 172.708C58.2236 171.549 58.318 170.948 59.2809 170.068C59.4448 169.919 59.5574 169.541 59.6903 169.296C59.6739 169.388 60.4055 168.643 60.2655 168.773C60.4578 168.595 60.737 168.27 60.8929 168.057C61.6458 167.028 63.0926 167.009 63.7466 165.834C63.9961 165.387 63.8547 164.813 64.1556 164.369C64.577 163.746 65.504 163.48 65.9985 162.933C66.4226 162.462 66.7722 162.078 67.0354 161.79C67.2166 161.592 67.5348 161.452 67.7493 161.225C68.2832 160.66 68.2411 160.16 68.9882 159.685C69.6591 159.259 69.9675 159.658 70.1997 158.602C71.0159 159.15 70.9135 158.349 71.245 157.775C71.6757 157.028 72.2229 156.696 72.8167 156.156C74.123 154.967 75.3478 153.198 76.4591 151.701C79.2233 147.981 81.4588 143.63 82.2821 138.961C82.4793 137.845 82.5879 136.717 82.6663 135.585C82.7079 134.99 82.5223 133.541 82.8745 132.958C83.4218 132.053 84.46 132.412 85.2501 132.016C85.5186 131.881 85.7836 131.485 86.0353 131.395C86.3876 131.269 86.8187 131.392 87.1843 131.27C87.3265 131.224 87.3593 130.786 87.5942 130.73C88.055 130.62 88.5127 130.795 88.9683 130.802C89.9648 130.816 90.9485 130.632 91.9044 130.3C92.7737 129.997 93.5013 129.304 94.369 129.055C94.2803 129.081 95.7989 129.207 95.7169 129.117C95.7896 128.726 95.8623 128.335 95.9349 127.944C96.5114 128.365 98.4771 128.92 99.0868 128.824C100.067 128.669 99.8605 127.745 100.691 128.959C101.162 128.53 101.632 128.101 102.102 127.671C102.458 129.235 104.912 128.477 106.025 128.563C107.592 128.685 108.826 128.377 110.255 128.948C111.992 129.643 113.515 130.376 115.386 130.565C116.693 130.697 117.237 131.34 118.517 131.737C120.238 132.27 120.374 132.858 119.836 134.697C119.4 136.189 119.023 137.339 119.66 138.87C120.791 141.584 123.865 142.702 125.847 144.577C121.204 147.986 116.62 151.339 112.133 154.972C110.252 156.494 108.252 158.018 107.181 160.307C106.193 162.419 105.633 164.958 105.039 167.22C103.676 172.405 107.516 175.895 111.461 178.176C112.278 178.647 117.901 186.03 116.759 186.884ZM109.102 193.152C108.824 192.154 108.861 191.888 109.781 191.53C110.129 191.395 111.464 191.218 111.681 191.718C112.17 192.853 109.598 192.838 109.102 193.152ZM148.225 120.885C148.554 123.098 148.879 125.312 149.173 127.53C149.336 128.755 149.704 129.839 148.831 130.763C148.336 131.288 147.133 131.484 146.5 131.764C145.587 132.167 144.697 132.629 143.819 133.11C142.254 133.968 140.618 134.484 139.073 135.258C138.4 135.593 138.002 136.255 137.42 136.712C136.624 137.337 135.656 137.641 134.835 138.235C133.367 139.298 132.021 140.556 130.554 141.626C128.892 142.839 128.546 142.449 127.612 140.658C126.774 139.049 125.768 138.315 124.561 137.054C124.092 136.564 122.413 133.769 123.839 133.529C124.205 133.467 125.468 134.041 125.754 134.225C126.189 134.505 126.883 136.091 127.237 136.118C127.874 136.167 128.689 134.27 129.086 133.771C131.687 130.496 134.548 127.257 137.561 124.392C139.123 122.907 140.764 121.554 142.535 120.355C143.794 119.503 144.893 118.309 146.135 117.501C146.397 117.263 146.695 117.093 147.029 116.991C147.677 116.683 147.92 116.949 147.759 117.788C148.13 118.609 148.09 119.979 148.225 120.885ZM91.3385 117.985C91.9704 117.312 92.7689 116.774 93.3201 116.023C93.6312 115.599 93.8363 114.841 94.1922 114.567C94.8116 114.09 95.6979 114.31 96.4184 113.67C97.1141 113.051 97.7251 112.31 98.4048 111.668C99.8782 110.277 101.399 108.999 102.844 107.583C103.666 106.779 104.527 105.735 105.257 105.204C105.45 105.063 105.667 104.853 105.873 104.745C106.312 104.513 106.532 104.749 107.173 104.533C107.598 104.391 107.901 103.828 108.241 103.562C109.051 102.93 110.105 102.68 110.884 102.071C111.663 101.462 112.038 100.517 113.111 100.01C114.408 99.3959 115.38 99.8807 116.317 98.707C116.7 98.2287 116.804 97.6256 117.405 97.3238C118.128 96.9599 118.763 97.3461 119.454 96.9326C119.919 96.6535 120.238 96.0686 120.718 95.7631C121.579 95.2184 122.531 95.1605 123.336 94.486C124.015 93.9173 123.638 93.9757 124.442 93.7355C124.796 93.6299 125.188 93.5844 125.566 93.4495C126.775 93.018 128.749 92.4895 129.465 91.2899C129.829 91.8448 129.954 91.9574 130.544 91.785C130.853 91.5212 131.137 91.2315 131.396 90.9149C131.586 91.1657 131.79 91.181 132.007 90.9599C133.283 90.501 134.454 89.7125 135.711 89.2749C135.889 89.3755 136.067 89.4765 136.245 89.5767C136.492 89.591 136.593 89.4645 136.546 89.1965C137.041 89.102 137.61 88.8744 138.066 88.6667C138.94 88.2685 139.905 87.322 140.934 87.6608C142.653 88.2263 142.735 91.8948 143.032 93.3485C143.763 96.9312 144.499 100.513 145.233 104.094C145.531 105.552 145.794 107.021 146.187 108.453C146.444 109.39 147.083 110.771 146.852 111.766C146.569 112.987 145.431 113.384 144.479 113.949C143.167 114.727 141.899 115.59 140.657 116.486C135.386 120.289 131.457 125.52 127.72 130.886C127.027 129.833 125.173 128.356 124.016 127.881C123.207 127.549 122.478 127.817 121.672 127.411C121.098 127.122 120.62 126.557 120.077 126.193C116.758 123.97 112.753 122.132 108.906 121.25C101.014 119.438 93.2873 122.242 85.6347 123.573C87.1874 121.34 89.5093 119.932 91.3385 117.985ZM144.168 57.3795C145.518 52.7742 147.793 48.3159 151.03 44.8613C152.662 43.1197 154.58 41.5975 156.73 40.6292C158.6 39.7874 160.825 38.98 160.796 41.687C160.733 47.5636 159.435 53.3736 159.276 59.2596C159.122 65.0275 160.045 69.6573 163.382 74.3053C161.268 74.8189 159.155 75.3399 157.048 75.8864C155.449 76.3013 153.79 76.7667 152.277 77.0518C150.781 77.3327 149.405 77.5162 147.926 78.0451C146.929 78.4016 145.367 79.4914 144.288 79.255C142.495 78.8619 142.919 72.1317 142.827 70.5149C142.568 65.9485 142.879 61.7743 144.168 57.3795ZM176.943 66.2461C179.393 63.1348 181.939 59.5053 186.061 58.9277C190.046 58.3692 191.515 63.3694 191.262 66.7412C191.176 67.882 191.014 70.8445 190.222 71.7688C189.345 72.7913 187.79 72.0205 186.676 71.8629C181.869 71.1819 176.941 72.3185 172.121 72.3185C173.728 70.2938 175.344 68.2769 176.943 66.2461ZM196.667 78.6528C198.338 78.9036 199.674 79.1701 198.866 81.161C197.25 85.1489 196.009 88.9546 197.425 93.3017C198.506 96.6216 201.931 100.652 205.353 101.317C206.553 101.55 208.357 101.133 209.094 102.407C209.75 103.542 209.039 106.946 208.962 108.206C208.678 112.902 207.528 117.561 204.623 121.25C202.038 124.533 198.884 127.102 195.124 124.003C191.955 121.392 190.084 116.72 189.146 112.727C188.646 110.595 188.585 108.469 188.489 106.291C188.405 104.364 188.054 103.142 190.136 102.743C190.694 102.636 192.089 102.669 192.09 101.778C192.094 100.58 190.582 101.029 190.003 100.969C187.773 100.736 188.818 98.0224 189.025 96.2674C189.38 93.279 189.953 90.3239 190.479 87.3656C190.927 84.8457 190.951 81.5435 191.924 79.1878C192.492 77.812 195.551 78.4855 196.667 78.6528ZM200.773 87.5023C201.026 85.8781 201.161 83.8482 202.702 82.9503C204.395 81.9639 205.243 83.571 206.078 84.8842C208.294 88.3682 210.746 91.6283 211.109 95.9531C211.152 96.4691 211.364 97.5046 210.889 97.8615C210.677 98.021 210.17 97.6006 209.842 97.6256C208.087 97.7577 206.817 98.2495 205.096 97.213C201.729 95.1837 200.16 91.422 200.773 87.5023ZM214.013 97.2311C213.651 93.4491 211.981 90.0954 210.116 86.9025C209.197 85.3283 207.411 83.6072 206.777 81.944C206.436 81.053 207.038 79.9498 208.275 80.3318C208.89 80.5223 210.077 82.2309 210.488 82.8219C211.545 84.3414 212.422 86.0361 213.258 87.6951C214.152 89.4682 216.694 95.9749 214.013 97.2311ZM202.928 59.5721C203.123 56.0139 203.143 51.9278 205.346 48.975C207.053 46.6851 210.179 45.6885 212.715 44.8033C216.131 43.6106 220.234 43.4265 223.807 43.8119C226.951 44.1515 229.325 46.3913 231.265 48.854C233.239 51.3586 234.767 54.5834 236.125 57.4972C236.464 58.2264 239.345 62.9049 237.396 62.796C236.624 62.7524 235.952 61.1741 235.36 60.7077C234.896 60.3429 234.347 60.3879 233.931 60.0959C233.485 59.783 233.582 59.4933 233.236 59.1067C230.856 56.4478 228.667 57.9789 226.1 59.3792C225.98 58.4517 226.191 56.7287 225.449 56.051C224.479 55.1638 223.466 56.5692 222.77 57.2581C222.136 57.8862 221.356 59.0302 220.558 59.37C219.522 59.8108 219.874 59.3421 218.974 58.9718C217.162 58.2264 215.769 60.4329 214.853 61.7159C214.511 62.1943 213.952 63.4028 213.341 63.5321C212.749 63.6568 212.671 63.216 212.161 63.0533C210.719 62.593 210.319 63.6693 209.86 65.0057C209.343 66.5085 208.903 67.9566 208.137 69.3602C206.783 71.8439 206.201 72.6611 207.272 75.4039C205.708 75.6468 205.38 75.8419 204.604 74.3896C203.805 72.8929 203.598 71.6515 203.648 69.9313C203.753 66.3337 202.726 63.2262 202.928 59.5721ZM239.24 76.5942C240.878 79.6884 241.919 83.9942 241.902 87.5195C241.893 89.2684 241.795 91.4192 241.014 93.0059C240.266 94.5282 238.698 95.2903 237.254 95.9388C233.773 97.5027 229.853 97.4847 226.194 96.7875C224.294 96.425 222.447 96.6591 220.822 95.4655C219.599 94.5662 218.124 93.6934 217.765 92.0455C217.615 91.3557 217.847 90.7777 217.799 90.1009C217.858 89.7788 217.836 89.4649 217.732 89.1581C217.519 89.0297 217.303 88.9045 217.087 88.7826C216.916 88.2685 217.243 87.6956 217.159 87.1588C217.058 86.5108 216.544 85.9833 216.303 85.396C215.641 83.7764 216.114 82.8706 217.353 81.7706C217.65 81.5263 217.948 81.2848 218.248 81.0452C218.518 80.5992 218.816 80.5974 219.141 81.0391C219.732 81.0475 219.714 81.238 220.335 81.0489C221.695 80.6345 222.835 79.121 224.167 78.5893C224.685 78.3826 225.457 78.5583 225.877 78.1772C226.252 77.8365 226.011 77.1217 226.341 76.7875C227.394 75.7186 229.052 76.7319 230.026 75.1781C230.822 73.9103 230.653 72.1118 230.735 70.6725C233.176 71.1606 234.234 73.6086 236.24 74.8397C236.636 73.2308 236.694 73.279 238.226 72.8372C237.532 74.1801 238.654 75.4868 239.24 76.5942ZM241.109 59.5141C241.559 60.1204 241.902 61.6255 241.109 61.7706V59.5141ZM243.193 64.9885C246.921 64.9964 249.304 69.9267 250.392 72.9809C251.575 76.3022 252.822 80.7323 250.614 83.9669C249.767 85.2073 248.729 85.3209 247.366 85.16C245.724 84.9663 244.883 84.7178 245.525 82.8826C246.729 79.4436 245.824 75.0715 243.69 72.1924C246.624 71.5996 244.764 68.784 243.292 67.7304C241.572 66.5002 240.182 64.9816 243.193 64.9885ZM158.084 243.226C157.207 245.66 156.315 248.086 155.579 250.593C154.882 252.97 155.286 255.647 154.419 257.932C153.885 257.655 153.732 257.165 153.268 256.867C152.982 256.682 152.484 256.61 152.239 256.407C151.817 256.059 150.794 254.762 150.517 254.26C149.559 252.52 150.197 249.692 150.71 247.904C151.343 245.69 152.426 243.563 153.88 241.819C154.9 240.596 155.463 240.985 156.826 241.587C157.633 241.943 158.463 242.171 158.084 243.226ZM151.44 262.427C150.739 263.909 149.444 265.131 148.675 266.626C147.868 268.195 147.257 269.963 146.228 271.398C145.18 272.861 144.238 272.616 142.796 273.247C142.278 273.473 142.06 273.892 141.643 274.22C140.861 274.833 140.005 275.209 139.183 275.755C138.599 274.255 136.814 266.727 134.543 266.888C132.569 267.028 133.578 270.969 133.833 272.132C134.048 273.115 134.294 274.112 134.622 275.061C134.952 276.018 135.982 277.453 135.601 278.503C135.117 279.837 133.912 279.749 133.308 278.776C132.803 277.962 132.547 276.855 132.175 275.97C131.848 275.191 130.353 270.929 129.061 271.59C127.817 272.226 129.753 276.358 130.076 277.17C130.859 279.13 132.359 281.014 130.376 282.584C127.366 284.969 123.66 286.764 120.288 288.482C118.319 289.485 116.55 290.805 114.483 291.62C112.565 292.376 110.347 292.505 108.492 293.375C108.036 293.589 108.342 293.855 107.675 293.98C107.116 294.083 106.139 293.804 105.539 293.81C104.546 293.82 103.55 293.899 102.559 293.768C102 293.695 100.729 293.055 100.93 294.112C100.14 293.882 99.8343 293.048 99.2578 292.527C98.7443 292.062 98.0885 291.81 97.5151 291.445C96.3297 290.691 95.4435 289.831 95.0877 288.393C94.2529 285.016 96.0178 281.502 98.1961 279.148C99.4466 277.798 100.913 276.675 102.06 275.221C102.462 274.711 102.748 274.118 103.259 273.703C103.884 273.195 104.742 273.132 105.347 272.618C105.798 272.235 105.932 271.626 106.405 271.274C107.103 270.756 107.92 270.971 108.58 270.289C108.956 269.9 110.248 268.068 110.158 267.56C110.511 267.684 110.866 267.808 111.219 267.932C111.434 266.803 113.296 265.41 114.214 264.869C114.678 264.596 115.583 264.609 115.929 264.315C116.388 263.923 116.351 263.102 116.715 262.61C117.761 261.201 119.95 260.568 121.336 259.587C123.098 258.338 124.81 256.923 126.402 255.445C129.62 252.457 132.457 248.986 134.774 245.193C135.708 243.665 136.574 242.107 137.239 240.433C137.648 239.403 138.057 237.57 139.067 236.972C140.111 236.355 142.509 237.191 143.677 237.279C145.395 237.409 148.071 237.328 149.61 238.211C151.255 239.155 149.917 239.935 149.071 241.061C147.831 242.707 147.089 244.723 146.47 246.699C145.993 248.218 145.904 249.689 145.592 251.221C145.263 252.841 145.266 255.027 146.029 256.515C146.784 257.988 152.228 260.76 151.44 262.427ZM86.5391 292.286C82.8426 287.021 85.9028 279.314 89.5191 275.059C93.882 269.925 100.091 267.038 105.192 262.863C111.09 258.036 117.147 253.552 122.373 247.89C125.022 245.02 127.329 241.927 129.42 238.592C131.195 235.76 132.484 231.988 136.071 231.578C133.956 234.338 133.832 238.314 132.196 241.386C130.464 244.639 127.91 247.345 125.309 249.846C119.818 255.126 113.888 259.963 107.957 264.683C104.929 267.091 101.986 269.609 98.9685 272.029C96.2664 274.197 93.4282 276.052 91.8711 279.355C89.1845 285.055 89.0241 293.499 94.9734 297.01C91.9079 296.371 88.46 295.021 86.5391 292.286ZM408.836 54.8537C407.742 52.5647 405.692 51.7493 403.635 50.8538C401.62 49.9772 399.779 48.8976 397.545 48.6172C396.551 48.4925 393.75 48.8021 393.619 47.2961C393.509 46.0411 396.437 44.7815 397.112 43.8254C398.112 42.4082 398.792 40.1072 398.404 38.3172C398.036 36.6197 396.458 36.0834 394.984 35.7758C390.401 34.8197 385.528 35.5228 380.933 35.9157C381.496 35.0928 382.288 34.4179 382.739 33.4323L383.468 35.0168C383.883 34.1106 384.332 33.2213 384.849 32.3728C385.197 32.783 385.547 33.1936 385.896 33.6038C385.316 31.4734 387.267 31.4843 387.062 29.6885C386.982 28.99 386.529 28.684 386.419 28.1225C386.201 27.0063 387.024 26.3082 386.087 25.273C385.043 24.1202 383.336 24.5775 382.122 24.6851C381.969 24.6989 381.748 25.0146 381.551 25.0402C381.278 25.0764 381.121 24.683 380.783 24.704C379.877 24.7599 379.079 25.4958 378.179 25.7194C374.007 26.7558 369.834 28.6042 365.83 30.3298C361.754 32.0866 357.752 34.1321 354.198 36.8891C350.394 39.8399 347.647 43.6333 344.609 47.3707C343.181 49.1271 341.704 50.8139 340.617 52.8373C340.056 53.883 339.548 57.1677 338.536 57.6451C337.438 58.1634 334.678 56.6972 333.555 56.4265C330.912 55.79 328.281 55.5244 325.571 55.6523C323.416 55.7534 321.142 55.6931 319.004 55.9689C317.764 56.1289 314.672 57.5691 314.473 59.1799C314.385 59.8956 315.169 60.4908 315.345 61.1615C315.611 62.1758 315.171 63.2507 315.478 64.2673C316.102 66.3402 319 67.1028 320.707 67.7554C325.474 69.5785 330.307 70.9923 335.124 72.624C337.216 73.3337 339.006 74.4629 340.901 75.5967C342.474 76.5363 343.908 77.4768 342.32 79.2415C340.816 80.9131 341.003 81.588 341.452 83.8908C341.924 86.3212 342.088 88.7789 342.704 91.1856C343.317 93.5826 344.463 95.872 344.24 98.4081C344.017 100.936 343.017 103.532 342.082 105.849C341.138 108.189 340.095 110.501 339.069 112.804C338.12 114.934 337.092 117.093 334.896 118.002C330.703 119.737 325.346 119.463 320.976 118.832C316.016 118.117 310.892 116.904 306.202 115.053C301.691 113.273 296.731 110.543 293.001 107.317C291.008 105.594 288.85 104.317 286.735 102.775C284.592 101.212 282.965 99.1052 281.087 97.2344C277.408 93.5673 272.878 91.0405 268.215 89.0246C262.973 86.7583 257.562 86.9938 252.007 86.7486C252.881 84.9514 254.007 83.234 254.42 81.2334C254.85 79.1497 254.539 76.8858 254.266 74.804C253.737 70.7522 252.735 67.1862 250.29 63.9136C249.172 62.4173 247.866 61.2505 246.004 61.0331C244.876 60.901 242.791 61.8077 241.976 60.8079C241.618 60.367 241.702 59.4399 241.476 58.8971C241.276 58.4151 240.874 57.9297 240.656 57.4064C239.724 55.168 238.56 53.1896 237.399 51.0661C236.936 50.2215 236.579 48.975 235.949 48.2644C235.606 47.8778 235.165 47.7021 234.973 47.4194C234.614 46.89 234.449 45.9226 234.15 45.3253C233.637 44.3032 232.986 43.3534 232.234 42.5099C231.032 41.1617 229.485 39.9719 227.837 39.3002C226.922 38.927 226.252 38.8388 225.296 38.8934C225.016 38.9094 224.704 39.0783 224.424 39.0561C223.754 39.0027 223.859 38.7513 223.322 38.6345C219.728 37.8515 214.908 38.9502 211.537 40.2988C207.985 41.7194 205.101 43.5925 202.943 46.9586C197.642 55.2254 198.878 65.8994 201.126 75.0047C199.766 74.6311 198.412 74.1894 197.038 73.8728C196.198 73.6786 195.05 73.7152 194.299 73.2507C192.628 72.2175 193.987 69.5665 193.997 67.8537C194.023 63.501 192.059 56.6949 187.778 54.8565C183.316 52.9406 177.888 58.3177 175.13 61.3669C173.361 63.323 171.752 65.4312 170.059 67.4574C168.876 68.874 167.313 71.1319 165.239 70.762C160.715 69.9549 162.095 60.9511 162.296 57.9079C162.614 53.0973 163.291 48.2093 163.294 43.3862C163.296 40.4543 162.812 36.4991 159.37 36.1553C154.634 35.6825 150.147 40.1895 147.385 43.6572C140.1 52.8011 138.491 64.8875 140.44 76.362C140.725 78.0442 141.637 80.1195 139.897 81.1638C137.611 82.5359 134.689 83.3666 132.232 84.3743C126.739 86.6262 121.652 89.63 116.48 92.566C111.359 95.4734 106.32 98.3589 101.7 102.104C97.095 105.838 92.5362 109.794 88.3408 114.028C86.2502 116.138 84.2323 118.339 82.3286 120.636C80.5376 122.797 79.0864 125.252 77.1393 127.271C75.8139 128.647 73.3759 130.491 73.0848 132.589C72.8495 134.282 75.5795 135.456 76.8114 136.239C77.656 136.775 78.2413 136.759 78.3025 137.715C78.3778 138.909 77.1756 140.821 76.7476 141.958C75.6571 144.86 74.232 147.264 72.3581 149.679C68.2079 155.028 63.1927 159.563 58.4323 164.315C54.0096 168.73 49.6755 173.076 46.4332 178.554C45.6387 179.897 43.6618 182.653 45.5408 183.91C46.0269 184.235 47.5188 184.492 48.0138 184.143C48.6275 183.71 48.3164 183.058 49.0414 182.624C48.8597 184.083 55.1918 181.233 55.6846 180.969C57.0152 180.255 58.2187 179.419 59.5791 178.78C60.3771 178.404 60.4737 177.882 61.0914 177.463C61.422 177.239 61.426 177.54 61.8678 177.401C62.2657 177.275 63.1998 177.227 63.4967 176.826C63.5047 176.814 63.829 175.844 63.5534 176.044C64.6319 175.259 65.2696 176.448 64.6222 177.564C62.7075 180.862 60.2867 183.289 59.5366 187.252C59.264 188.692 58.7992 191.365 59.6394 192.677C59.6699 192.725 59.9526 192.586 59.9872 192.637C60.0191 192.685 60.3275 193.133 60.4542 193.261C61.1965 194.004 61.1486 194.335 62.3876 194.304C62.937 194.29 64.0328 194.216 64.5358 193.956C64.9142 193.761 65.099 193.28 65.3901 193.109C65.6843 192.934 65.6498 192.844 65.9258 192.743C65.9826 192.722 66.0911 193.227 66.1988 193.206C66.789 193.09 67.0434 192.721 67.545 192.424C68.99 191.568 70.4066 190.627 71.7825 189.766C73.1677 188.898 74.2023 187.689 75.5818 186.682C77.0476 185.611 78.2462 184.791 79.3735 183.306C80.1538 182.277 81.0853 181.903 81.609 181.396C82.2307 180.795 83.3026 178.475 84.3045 178.199C84.7609 178.073 85.126 178.496 85.3759 178.322C85.6573 178.127 85.3507 177.754 85.4916 177.535C85.7552 177.126 85.788 177.058 86.2365 176.682C86.8103 176.202 87.5157 176.073 87.9974 175.447C88.5331 174.751 88.6067 173.97 89.2656 173.318C90.8511 171.748 92.2624 170.095 93.9422 168.574C93.2935 172.359 92.6506 176.117 93.1535 179.966C93.6405 183.696 95.1537 185.367 98.1239 187.26C98.778 187.677 99.4639 188.284 100.166 188.579C100.593 188.759 101.236 188.652 101.554 188.784C102.631 189.231 102.265 190.145 102.412 191.176C102.641 192.773 104.045 194.002 104.951 195.247C105.712 196.294 107.086 198.675 108.36 199.036C109.511 199.363 110.597 197.955 111.555 197.355C113 196.451 114.575 195.803 116.098 195.064C119.075 193.621 121.951 191.9 124.894 190.374C126.238 189.677 127.596 189.393 129.019 188.943C130.728 188.403 132.186 187.369 133.825 186.663C136.772 185.394 139.596 183.88 142.526 182.548C148.589 179.791 155.202 177.897 160.597 173.76C163.038 171.889 166.18 171.69 168.586 169.871C171.093 167.975 169.555 165.076 168.482 162.75C165.549 156.394 163.799 149.794 159.761 144.004C157.664 140.995 155.725 137.887 153.896 134.689C152.277 131.859 152.31 128.653 151.904 125.456C151.632 123.319 151.377 121.174 151.045 119.046C150.835 117.694 150.154 115.991 150.977 114.766C151.861 113.449 153.961 112.888 155.288 112.193C156.938 111.33 158.535 110.401 160.246 109.67C164.157 108.001 168.275 106.845 172.378 105.825C173.601 105.521 178.837 103.345 179.833 104.62C178.609 105.476 178.252 107.03 177.703 108.363C176.885 110.348 176.041 112.24 175.444 114.32C174.212 118.622 173.163 122.993 172.158 127.358C171.16 131.692 169.971 136.061 169.665 140.526C169.509 142.805 169.616 145.086 169.612 147.367C169.608 149.802 169.126 152.19 169.212 154.631C169.269 156.255 169.399 158.205 170.308 159.59C171.15 160.873 172.582 161.016 173.83 161.702C175.477 162.607 176.122 162.993 176.137 164.963C176.155 167.259 176.013 169.514 176.218 171.808C176.933 179.799 179.499 189.28 184.62 195.449C184.961 195.859 194.897 208.971 195.997 207.052C196.754 207.99 197.887 208.333 198.819 209.152C200.285 210.438 201.722 211.466 202.934 213.059C205.139 215.957 207.014 219.354 207.566 223.06C208.04 226.25 207.755 230.064 206.035 232.828C204.31 235.602 200.623 237.421 197.839 238.787C194.18 240.581 190.466 240.783 186.493 240.333C184.533 240.111 182.588 239.764 180.642 239.437C179.833 239.301 178.888 239.3 178.122 238.981C177.3 238.639 177.021 238.261 176.201 238.219C175.588 238.187 175.253 238.329 174.605 238.188C173.803 238.012 172.932 237.693 172.133 237.478C171.243 237.239 170.514 236.898 169.695 236.459C168.936 236.052 168.081 235.973 167.351 235.588C166.092 234.923 165.704 233.812 164.002 234.428C162.205 235.078 162.58 236.704 161.433 237.819C160.414 238.811 159.151 237.894 158.136 237.305C156.643 236.437 155.092 235.716 153.502 235.059C151.784 234.35 150.03 233.733 148.242 233.244C146.287 232.71 144.14 232.604 142.257 231.826C140.602 231.144 139.89 229.822 138.691 228.588C137.43 227.289 135.719 226.795 133.971 226.91C130.787 227.121 128.613 230.722 126.931 233.222C122.233 240.208 117.04 246.159 110.759 251.647C107.759 254.268 104.376 256.498 101.474 259.218C100.25 260.366 99.3615 261.442 97.9121 262.296C96.008 263.419 94.2803 264.827 92.46 266.093C85.3405 271.043 80.1184 278.254 82.0871 287.67C82.9734 291.908 84.7436 294.883 88.051 297.433C89.5527 298.591 90.9268 299.554 92.8398 299.487C94.6459 299.424 96.2393 299.358 95.1754 297.109C96.5234 297.546 97.6516 298.624 99.1231 299.176C100.818 299.811 103.024 300.207 104.824 300.246C107.707 300.307 111.097 298.717 113.621 298.043C114.326 297.856 115.686 297.547 116.49 296.853C117.13 296.301 116.991 295.648 117.959 295.386C119.227 295.043 119.71 295.444 120.924 294.641C122.686 293.473 124.597 292.78 126.425 291.705C128.887 290.256 131.254 288.622 133.694 287.13C134.019 288.068 135.93 293.641 137.111 290.954C138.138 288.615 134.803 286.613 136.83 284.245C138.764 281.987 139.168 284.361 141.044 285.409C143.649 286.865 143.258 284.146 142.501 282.536C142.198 281.892 141.562 280.921 141.749 280.17C142.111 278.72 143.232 279.571 144.114 279.719C145.503 279.952 146.625 279.552 147.668 278.578C148.537 277.765 149.975 277.063 150.501 275.992C150.763 275.455 150.809 274.719 151.028 274.149C151.316 273.399 151.522 273.581 151.627 272.65C151.526 272.168 151.487 271.681 151.507 271.187C151.735 271.139 151.962 271.091 152.19 271.042C152.197 271.008 152.213 270.069 152.121 270.209C152.334 269.886 152.791 269.749 153.053 269.3C153.295 268.888 153.07 268.097 153.167 267.61C153.364 266.624 153.9 265.828 154.338 264.949C155.265 269.053 154.997 273.332 155.883 277.438C156.611 280.809 158.268 283.831 160.2 286.595C161.096 287.877 162.283 288.786 163.22 290.003C164.014 291.033 164.411 291.94 165.582 292.549C166.361 292.954 167.238 293.162 168.041 293.511C168.554 293.735 169.723 294.764 170.205 294.746C169.785 294.762 170.994 294.801 170.714 294.751C170.735 294.755 170.571 294.201 170.716 294.209C172.468 295.945 174.298 295.949 176.325 297.028C177.254 297.522 177.602 297.491 178.591 297.674C179.874 297.911 180.954 298.676 182.182 298.758C184.073 298.883 186.202 299.149 188.174 299.076C188.71 299.056 189.718 298.695 190.139 299.185C190.416 299.509 189.89 301.851 189.856 302.388C189.51 308.012 190.228 313.917 192.496 319.064C194.377 323.331 196.383 328.38 199.709 331.639C203.397 335.25 208.562 337.796 213.494 338.771C218.955 339.849 224.367 339.041 229.845 338.706C235.402 338.366 240.544 337.541 245.904 335.856C250.888 334.289 255.609 332.246 260.378 330.091C263.622 328.626 267.734 326.517 266.034 322.07C265.623 320.994 264.028 318.004 262.618 319.479C261.369 320.785 263.456 323.255 264.4 324.084C257.282 329.277 248.645 330.995 240.317 332.835C235.743 333.845 231.237 333.802 226.585 333.816C222.642 333.828 218.7 333.947 214.784 333.37C211.24 332.849 207.114 331.872 204.477 329.161C201.719 326.325 199.109 322.94 197.226 319.402C195.16 315.52 194.659 311.322 194.492 306.944C194.404 304.639 194.305 302.305 194.536 300.006C194.703 298.336 195.518 298.138 195.922 296.819C196.855 298.188 197.47 297.682 198.616 296.882C199.357 299.047 199.027 301.296 198.899 303.528C198.776 305.702 199.053 307.907 199.307 310.066C199.739 313.737 201.42 317.565 203.553 320.52C204.517 321.856 205.962 322.421 207.269 323.343C208.936 324.52 210.664 325.615 212.403 326.671C215.679 328.659 219.255 330.359 222.947 330.658C224.241 330.763 225.181 331.468 226.723 331.37C227.638 331.311 228.559 330.984 229.473 331.01C230.388 331.035 231.174 331.342 232.114 331.271C236.02 330.975 240.046 329.636 243.914 328.9C248.101 328.105 252.314 327.247 256.312 325.676C258.044 324.995 259.474 324.116 260.441 322.405C261.131 321.182 260.951 318.989 262.237 318.258C261.395 317.12 261.708 316.92 262.436 315.903C262.776 315.428 263.873 314.173 262.542 314.196C262.947 312.364 262.27 310.591 261.982 308.799C261.858 308.025 261.891 306.853 261.434 306.186C261.166 305.798 260.722 305.79 260.483 305.504C260.236 305.498 260.043 305.391 259.905 305.181C259.888 304.876 260.025 304.689 260.315 304.622C260.248 304.016 260.677 304.234 260.248 303.286C259.664 301.993 258.555 300.867 257.504 299.988C256.61 299.239 255.951 297.909 254.918 297.509C253.574 296.988 252.165 296.423 250.752 295.94C247.55 294.845 244.377 294.426 241.017 295.034C239.479 295.312 237.963 295.653 236.477 296.15C235.607 296.442 234.278 297.228 233.508 296.38C233.243 296.09 232.691 293.619 232.725 293.352C232.863 292.28 234.955 291.848 235.718 291.474C236.884 290.902 239.043 290.291 239.784 289.157C240.094 288.681 239.744 286.662 239.794 286.625C240.284 286.281 242.337 291.185 242.896 291.52C243.705 292.003 245.977 291.364 246.813 291.268C249.307 290.981 251.843 290.818 254.286 290.196C258.97 289.002 263.57 287.156 268.129 285.524C276.801 282.421 285.174 278.33 292.971 273.249C296.612 270.876 300.229 267.843 303 264.397C304.249 262.842 305.132 260.999 306.408 259.475C307.88 257.717 307.416 256.131 308.076 253.929C309.412 249.472 311.034 245.423 311.761 240.752C312.51 235.943 312.819 231.032 312.612 226.163C312.201 216.54 311.755 207.416 307.713 198.574C304.009 190.471 299.208 182.554 293.501 175.845C292.175 174.286 290.773 172.8 289.143 171.588C287.389 170.282 285.458 169.257 283.87 167.714C282.567 166.449 281.477 164.957 280.114 163.755C278.44 162.281 276.45 161.63 274.49 160.688C272.611 159.786 270.898 158.612 268.976 157.791C267.807 157.291 266.623 156.83 265.404 156.481C264.503 156.224 263.307 156.208 262.483 155.718C261.18 154.943 259.846 152.69 258.995 151.416C257.753 149.559 257.08 147.398 256.489 145.238C255.77 142.611 255.102 139.967 254.399 137.335C254.159 136.436 253.261 133.305 255.051 134.065C255.575 134.287 256.067 135.275 256.47 135.697C257.235 136.498 258.179 137.213 259.128 137.758C260.659 138.637 262.252 139.694 263.72 140.3C265.014 140.833 266.344 141.879 267.549 142.631C267.732 142.746 267.786 143.139 268.022 143.249C268.578 143.507 268.948 142.795 269.473 142.969C270.19 143.207 270.308 143.914 270.706 144.477C271.283 145.292 271.581 145.357 272.463 145.776C273.443 146.243 274.163 147.166 275.118 147.623C276.279 148.178 278.834 147.747 279.009 149.661C280.813 148.428 283.076 150.823 284.202 152.065C285.336 150.244 287.343 152.376 289.059 151.771C288.11 153.152 288.282 153.015 289.78 153.185C291.044 153.33 291.801 154.208 293.05 154.719C293.916 155.072 294.872 155.666 295.771 155.915C296.622 156.15 297.266 155.623 298.007 155.755C298.517 155.845 299.003 156.308 299.488 156.434C300.104 156.594 300.981 156.789 301.677 156.962C302.524 157.172 303.367 156.979 304.211 157.146C305.197 157.341 306.048 157.956 307.048 158.155C308.164 158.377 309.324 158.229 310.433 158.512C311.444 158.77 312.059 159.066 313.106 159.077C314.668 159.093 316.411 159.309 317.953 159.125C318.774 159.026 319.229 158.591 320.159 159.017C320.779 159.301 321.15 160.178 321.995 159.776C321.103 159.402 321.886 157.946 322.869 159.062C323.102 158.436 323.252 158.087 323.899 157.881C323.867 158.494 323.771 159.108 324.517 159.237C324.574 158.81 324.632 158.385 324.689 157.958C326.311 159.251 326.696 159.707 328.227 158.13C328.186 158.646 327.978 159.23 328.479 159.596C328.8 159.037 329.121 158.479 329.442 157.921C329.985 159.723 332.574 159.101 333.829 158.782C334.316 158.658 335.66 158.462 335.978 158.045C336.198 157.755 336.171 157.529 336.253 157.351C336.325 157.193 335.5 156.806 336.202 156.58C336.731 156.409 337.143 157.622 337.764 157.574C338.318 157.53 338.541 156.55 338.94 156.351C338.978 156.332 339.248 156.747 339.436 156.656C339.727 156.515 339.892 156.144 340.214 156.012C340.91 155.727 341.811 155.798 342.59 155.46C343.579 155.032 344.576 154.827 345.585 154.474C346.865 154.027 347.445 153.147 348.484 152.428C348.728 152.259 348.981 152.357 349.22 152.238C349.543 152.077 349.88 151.701 350.264 151.523C351.467 150.965 352.494 150.585 353.635 149.815C354.653 149.128 355.996 148.621 356.901 147.797C357.655 147.111 358.062 146.11 358.82 145.412C359.909 144.409 362.722 143.152 362.266 141.195C364.087 141.486 364.533 140.252 365.201 138.892C365.837 137.598 367.14 137.21 367.992 136.03C368.36 135.52 368.953 134.812 369.157 134.23C369.278 133.884 368.974 133.522 369.056 133.286C369.434 132.198 370.891 131.724 371.566 130.743C372.425 129.495 372.7 127.917 373.416 126.635C373.557 126.383 373.904 126.234 374.038 125.965C374.125 125.792 373.945 125.363 374.05 125.194C374.299 124.791 374.692 124.652 374.943 124.279C375.55 123.375 375.661 122.091 376.206 121.066C376.34 120.814 376.808 120.11 376.867 119.959C377.064 119.455 377.005 119.124 377.107 118.562C377.137 118.394 377.449 117.417 377.512 117.277C377.713 116.842 377.906 116.777 378.213 116.299C378.979 115.102 379.454 113.221 379.517 111.767C379.544 111.151 379.348 110.513 379.561 109.925C379.745 109.417 380.312 109.103 380.527 108.57C381.088 107.174 380.996 105.199 381.15 103.705C381.318 102.077 381.816 100.471 381.953 98.8549C382.02 98.0724 381.669 97.3794 381.695 96.6424C381.725 95.7983 382.143 95.6407 382.305 94.9384C382.489 94.1365 382.219 93.2127 382.384 92.3528C382.537 91.5527 382.759 90.8125 382.823 89.992C382.988 87.8551 382.755 85.6194 382.666 83.4815C382.632 82.6518 382.526 81.7864 382.736 80.9742C382.905 80.3206 383.594 79.5896 383.572 78.8809C383.501 76.6902 381.826 78.5861 380.864 78.4359C379.744 78.2611 379.538 75.6338 379.244 74.6372C378.523 72.2026 377.802 69.7681 377.081 67.3341C380.517 66.3982 384.089 66.668 387.597 66.4153C391.043 66.1673 394.408 65.3849 397.75 64.5037C400.572 63.7602 403.659 63.3286 406.195 61.7405C408.324 60.4074 410.08 57.4569 408.836 54.8537Z" fill="#3A3A3A"/>
<path fill-rule="evenodd" clip-rule="evenodd" d="M75.2051 101.981C76.5792 101.233 76.2327 100.201 77.2421 99.241C82.89 93.8713 89.5186 89.1826 96.1618 85.3111C103.161 81.2319 111.014 79.5048 118.168 75.8901C119.13 75.4038 120.38 74.6436 120.021 73.2891C119.602 71.7066 118.161 72.4348 117.134 72.8084C113.713 74.0531 110.071 74.5217 106.601 75.6152C99.1927 77.9491 92.2553 81.974 85.9799 86.685C82.3291 89.425 78.8316 92.4547 75.7138 95.858C74.5657 97.1105 73.0347 98.5721 72.7361 100.377C72.3661 102.61 73.628 102.838 75.2051 101.981Z" fill="#3A3A3A"/>
<path fill-rule="evenodd" clip-rule="evenodd" d="M96.5987 242.38C96.5659 240.406 94.5112 241.124 93.4543 241.389C89.157 242.468 85.3156 243.294 81.5128 245.793C74.4549 250.43 69.1074 257.475 65.6475 265.271C65.1867 266.309 63.3318 269.597 64.8185 270.575C65.7986 271.221 66.3933 269.341 66.7593 268.643C68.6226 265.092 71.1178 261.947 73.6267 258.861C79.1967 252.009 85.8926 247.66 93.9037 244.485C94.8865 244.095 96.6235 243.815 96.5987 242.38Z" fill="#3A3A3A"/>
<path fill-rule="evenodd" clip-rule="evenodd" d="M334.1 193.904C332.614 190.775 330.21 186.915 326.884 185.626C325.044 184.913 323.955 186.093 324.502 188.064C324.936 189.632 326.386 190.398 327.468 191.438C330.254 194.113 331.97 198.107 332.987 201.817C334.063 205.738 334.277 209.993 334.258 214.052C334.248 216.195 333.701 218.058 333.404 220.144C333.288 220.964 333.089 222.772 333.99 223.283C335.986 224.418 336.908 218.494 337.112 217.354C337.863 213.152 337.79 209.283 337.158 205.088C336.579 201.252 335.767 197.413 334.1 193.904Z" fill="#3A3A3A"/>
<path fill-rule="evenodd" clip-rule="evenodd" d="M328.39 43.5687C329.202 42.423 328.609 40.8192 328.851 39.513C329.104 38.1439 329.86 36.759 330.498 35.5613C331.879 32.9758 333.418 30.4368 335.059 28.0252C336.753 25.5348 338.819 23.4128 340.62 21.0201C341.228 20.2107 342.307 19.0537 342.044 18.0795C341.618 16.5021 340.691 17.2709 339.947 17.932C335.884 21.5466 332.306 26.0034 329.415 30.6845C328.044 32.9062 326.748 35.3392 326.294 37.9746C326.06 39.3357 326.057 40.7559 326.443 42.0885C326.686 42.926 327.414 44.9453 328.39 43.5687Z" fill="#3A3A3A"/>
<path fill-rule="evenodd" clip-rule="evenodd" d="M77.9817 236.379C80.0178 236.182 82.0654 236.111 84.1064 236.002C85.617 235.921 87.3163 236.018 88.7028 235.257C90.0982 234.492 89.4916 233.345 88.3315 233.175C87.6646 233.077 86.5391 233.548 85.8244 233.581C85.0502 233.615 84.2721 233.59 83.4976 233.594C81.2337 233.602 78.7943 233.584 76.6116 234.371C75.8986 234.629 74.8187 235.025 74.5254 235.878C73.8984 237.701 77.0374 236.47 77.9817 236.379Z" fill="#3A3A3A"/>
<path fill-rule="evenodd" clip-rule="evenodd" d="M95.8104 69.5313C98.7673 69.1605 101.625 68.2334 104.538 67.6424C107.308 67.0811 107.78 64.7967 104.501 64.8992C103.4 64.9335 92.7843 67.0403 95.8104 69.5313Z" fill="#3A3A3A"/>
<path fill-rule="evenodd" clip-rule="evenodd" d="M340.147 184.101C338.16 183.581 339.188 185.887 339.802 186.599C340.94 187.917 341.561 188.904 341.898 190.662C342.096 191.685 341.911 193.994 342.741 194.777C343.558 195.547 343.615 195.035 343.76 194.085C344.169 191.405 343.351 184.941 340.147 184.101Z" fill="#3A3A3A"/>
<path fill-rule="evenodd" clip-rule="evenodd" d="M318.338 38.2284C318.901 37.6044 318.297 34.8907 318.364 34.0954C318.445 33.1318 318.663 32.3164 318.937 31.4121C319.071 30.9736 319.742 29.4259 319.38 28.9454C318.88 28.2793 318.047 29.4049 317.784 29.848C316.927 31.29 316.727 33.6944 316.869 35.3183C316.92 35.9061 317.26 39.4222 318.338 38.2284Z" fill="#3A3A3A"/>
<path fill-rule="evenodd" clip-rule="evenodd" d="M201.37 267.062C201.463 265.525 202.878 264.46 202.882 262.825C202.887 260.989 201.706 260.193 200.235 261.387C199.348 262.107 198.657 263.86 197.457 264.09C195.05 264.551 194.107 260.029 191.736 260.552C189.684 261.005 190.762 264.693 191.381 265.937C192.038 267.256 193.23 268.181 192.842 269.804C192.381 271.73 190.8 272.841 191.415 275.04C192.558 279.126 195.037 275.306 196.529 274.022C197.591 273.106 198.233 273.269 199.265 274.166C200.679 275.395 201.759 276.23 203.474 277.059C204.986 277.789 206.444 278.299 206.491 275.848C206.528 273.92 205.137 272.002 203.915 270.694C202.902 269.609 201.266 268.773 201.37 267.062Z" fill="#3A3A3A"/>
<path fill-rule="evenodd" clip-rule="evenodd" d="M174.879 260.966C173.11 258.994 170.875 264.026 169.446 264.583C167.129 265.485 166.595 260.648 164.462 260.8C162.802 260.918 162.933 263.407 163.295 264.543C163.684 265.765 164.848 266.764 165.043 268.017C165.343 269.936 161.872 273.772 164.294 275.626C166.362 277.209 167.132 271.861 169.718 274.043C170.987 275.114 174.538 279.1 176.297 277.116C178.377 274.772 173.431 270.769 172.529 268.986C171.308 266.572 177.471 263.858 174.879 260.966Z" fill="#3A3A3A"/>
<path fill-rule="evenodd" clip-rule="evenodd" d="M217.732 192.419C217.225 192.185 216.405 192.572 215.856 192.548C215.267 192.522 214.653 192.241 214.072 192.138C212.808 191.912 210.587 192.239 209.691 191.061C208.776 189.859 209.471 187.447 209.08 185.985C208.868 185.19 208.622 184.21 207.599 184.564C206.411 184.975 206.44 187.256 206.298 188.257C206.089 189.733 205.921 190.859 204.503 191.384C203.452 191.773 202.348 191.577 201.499 192.48C200.877 193.141 200.457 194.348 200.944 195.212C201.675 196.51 203.259 195.838 204.357 196.248C206.033 196.874 205.634 199.737 205.978 201.382C206.198 202.438 206.681 205.396 208.131 205.348C210.109 205.284 209.341 201.128 209.231 199.915C209.12 198.684 208.855 197.64 210.168 197.257C211.277 196.935 212.827 197.534 213.972 197.527C215.419 197.517 217.123 197.137 217.996 195.781C218.495 195.006 218.811 192.917 217.732 192.419Z" fill="#3A3A3A"/>
<path fill-rule="evenodd" clip-rule="evenodd" d="M290.392 243.57C293.535 243.854 291.63 247.907 293.716 249.517C295.707 251.055 295.974 246.812 295.974 245.601C295.973 242.667 299.384 243.751 301.461 243.266C303.233 242.852 305.168 240.926 303.051 239.286C301.524 238.102 298.991 238.652 297.218 238.338C294.815 237.913 295.529 236.235 295.475 234.3C295.456 233.591 295.223 231.063 294.347 230.864C292.744 230.499 292.648 235.208 292.54 236.104C292.083 239.895 289.594 237.585 287.616 239.486C285.031 241.97 288.519 243.401 290.392 243.57Z" fill="#3A3A3A"/>
<path fill-rule="evenodd" clip-rule="evenodd" d="M140.873 172.885C135.962 177.096 130.384 176.492 125.889 171.959C123.988 170.042 122.84 168.11 123.01 165.304C123.162 162.78 123.871 159.99 125.803 158.285C127.43 156.849 130.499 156.333 132.56 156.132C135.448 155.851 138.031 157.496 140.029 159.551C141.769 161.341 143.802 163.621 144.07 166.278C144.352 169.074 142.83 171.206 140.873 172.885ZM141.62 156.126C137.214 151.688 129.402 152.133 124.853 156.181C119.748 160.724 118.875 169.259 123.781 174.236C128.952 179.482 135.778 178.916 141.251 174.565C144.187 172.231 145.78 169.236 146.189 165.394C146.575 161.763 144.029 158.553 141.62 156.126Z" fill="#3A3A3A"/>
<path fill-rule="evenodd" clip-rule="evenodd" d="M226.811 79.729C226.316 81.4098 226.659 83.2005 226.747 84.9128C225.35 83.9987 224.48 82.3689 222.981 81.6115C222.262 83.69 225.845 89.6349 228.101 87.6862C230.164 85.903 228.641 80.9268 226.811 79.729Z" fill="#3A3A3A"/>
<path fill-rule="evenodd" clip-rule="evenodd" d="M234.139 89.9783C233.027 90.4118 231.994 90.2917 230.897 90.5137C230.174 90.6602 230.08 90.2301 229.987 91.0964C229.787 92.9455 232.639 93.6607 233.923 93.6348C235.491 93.6028 237.209 92.5 237.057 90.7047C236.9 88.8343 235.348 89.5074 234.139 89.9783Z" fill="#3A3A3A"/>
<path fill-rule="evenodd" clip-rule="evenodd" d="M235.05 82.2073C234.546 81.728 233.384 79.9183 232.531 80.228C231.877 80.4653 232.339 81.2825 232.531 81.6914C233.248 83.2248 234.657 84.5296 235.783 85.7599C234.949 86.0695 233.344 86.2689 233.768 87.6113C234.158 88.8443 235.924 88.6547 236.771 88.1355C239.671 86.3569 236.501 83.5854 235.05 82.2073Z" fill="#3A3A3A"/>
<path fill-rule="evenodd" clip-rule="evenodd" d="M237.978 79.2961C238.177 80.143 238.283 80.9422 237.845 81.7362L235.43 77.2042C233.487 78.0385 236.895 84.568 238.879 83.8453C240.252 83.3456 239.593 80.2765 239.376 79.311C239.26 78.7941 238.984 77.1504 238.299 76.9835C236.951 76.6553 237.831 78.6717 237.978 79.2961Z" fill="#3A3A3A"/>
<path fill-rule="evenodd" clip-rule="evenodd" d="M138.327 170.707C137.207 169.843 135.35 171.866 134.166 171.874C131.771 171.887 133.075 168.95 131.577 167.998C130.796 167.501 127.525 168.002 128.041 165.945C128.352 164.709 129.567 165.601 130.233 164.846C131.069 163.899 129.878 163.143 129.137 162.754C129.462 162.301 131.336 162.101 131.807 162.415C132.62 162.958 132.573 164.586 133.319 165.424C134.287 164.132 133.761 162.508 134.792 161.348C135.192 160.897 136.363 160.558 135.908 159.753C135.644 159.286 134.488 159.441 134.092 159.069C133.747 158.745 133.764 157.7 133.207 157.614C132.296 157.472 132.318 158.927 132.045 159.348C131.222 160.611 127.607 160.175 129.105 162.738C128.107 162.217 125.383 161.805 125.912 163.624C126.047 164.089 126.562 164.374 126.69 164.904C126.801 165.364 126.557 166.019 126.534 166.48C126.49 167.355 126.423 168.377 127.042 169.081C127.892 170.048 129.029 169.344 129.94 169.765C131.183 170.337 130.735 171.528 131.391 172.57C132.249 173.932 133.569 173.514 134.784 173.102C136.233 172.61 136.462 172.565 137.522 173.828C138.007 173.173 139.335 171.484 138.327 170.707Z" fill="#3A3A3A"/>
<path fill-rule="evenodd" clip-rule="evenodd" d="M140.275 165.387C139.106 165.161 139.567 161.517 138.144 163.101C137.611 163.694 138.157 164.852 137.562 165.488C137.162 165.915 136.655 165.663 136.256 165.943C135.896 166.194 135.805 166.676 135.593 167.044C136.345 167.398 136.927 167.444 137.73 167.29C137.73 167.922 137.328 169.785 138.36 169.649C139.319 169.522 139.048 167.653 139.537 167.072C140.033 166.481 142.032 166.755 142.218 165.925C142.448 164.897 140.786 165.486 140.275 165.387Z" fill="#3A3A3A"/>
</svg>
