<svg width="16" height="16" viewBox="0 0 16 16" fill="none" xmlns="http://www.w3.org/2000/svg">
<path d="M5.3335 7.00001C4.78121 7.00001 4.3335 7.44772 4.3335 8.00001C4.3335 8.55229 4.78121 9.00001 5.3335 9.00001H10.6668C11.2191 9.00001 11.6668 8.55229 11.6668 8.00001C11.6668 7.44772 11.2191 7.00001 10.6668 7.00001H5.3335Z" fill="#3A3A3A"/>
<path fill-rule="evenodd" clip-rule="evenodd" d="M8.00016 0.333344C3.76598 0.333344 0.333496 3.76583 0.333496 8.00001C0.333496 12.2342 3.76598 15.6667 8.00016 15.6667C12.2343 15.6667 15.6668 12.2342 15.6668 8.00001C15.6668 3.76583 12.2343 0.333344 8.00016 0.333344ZM2.3335 8.00001C2.3335 4.8704 4.87055 2.33334 8.00016 2.33334C11.1298 2.33334 13.6668 4.8704 13.6668 8.00001C13.6668 11.1296 11.1298 13.6667 8.00016 13.6667C4.87055 13.6667 2.3335 11.1296 2.3335 8.00001Z" fill="#3A3A3A"/>
</svg>
