<svg width="16" height="16" viewBox="0 0 16 16" fill="none" xmlns="http://www.w3.org/2000/svg">
<path d="M8.00015 4.33331C8.55244 4.33331 9.00015 4.78103 9.00015 5.33331V7H10.6668C11.2191 7 11.6668 7.44772 11.6668 8C11.6668 8.55229 11.2191 9 10.6668 9H9.00015V10.6666C9.00015 11.2189 8.55244 11.6666 8.00015 11.6666C7.44787 11.6666 7.00015 11.2189 7.00015 10.6666V9H5.3335C4.78121 9 4.3335 8.55229 4.3335 8C4.3335 7.44772 4.78121 7 5.3335 7H7.00015V5.33331C7.00015 4.78103 7.44787 4.33331 8.00015 4.33331Z" fill="#3A3A3A"/>
<path fill-rule="evenodd" clip-rule="evenodd" d="M0.333496 7.99998C0.333496 3.7658 3.76598 0.333313 8.00016 0.333313C12.2343 0.333313 15.6668 3.7658 15.6668 7.99998C15.6668 12.2342 12.2343 15.6666 8.00016 15.6666C3.76598 15.6666 0.333496 12.2342 0.333496 7.99998ZM8.00016 2.33331C4.87055 2.33331 2.3335 4.87037 2.3335 7.99998C2.3335 11.1296 4.87055 13.6666 8.00016 13.6666C11.1298 13.6666 13.6668 11.1296 13.6668 7.99998C13.6668 4.87037 11.1298 2.33331 8.00016 2.33331Z" fill="#3A3A3A"/>
</svg>
