<svg width="17" height="16" viewBox="0 0 17 16" fill="none" xmlns="http://www.w3.org/2000/svg">
<g clip-path="url(#clip0)">
<path fill-rule="evenodd" clip-rule="evenodd" d="M5.19978 1.33334C4.05022 1.33334 2.94774 1.79 2.13488 2.60287C1.32202 3.41573 0.865356 4.51821 0.865356 5.66777C0.865356 6.81733 1.32202 7.9198 2.13488 8.73267L8.02852 14.6263C8.06107 14.6589 8.09614 14.6873 8.13311 14.7117C8.39189 14.8826 8.74357 14.8541 8.97138 14.6263L14.865 8.73267C15.6779 7.9198 16.1346 6.81733 16.1346 5.66777C16.1346 4.51821 15.6779 3.41573 14.865 2.60287C14.0522 1.79 12.9497 1.33334 11.8001 1.33334C10.6506 1.33334 9.5481 1.79 8.73523 2.60287L8.49996 2.83814L8.26468 2.60287C7.45182 1.79 6.34934 1.33334 5.19978 1.33334ZM8.97138 4.25243C8.74357 4.48025 8.39189 4.50872 8.13311 4.33786C8.09614 4.31345 8.06107 4.28498 8.02852 4.25243L7.32182 3.54573C6.75902 2.98293 5.9957 2.66675 5.19978 2.66675C4.40386 2.66675 3.64054 2.98293 3.07774 3.54573C2.51494 4.10853 2.19876 4.87185 2.19876 5.66777C2.19876 6.46369 2.51494 7.22701 3.07774 7.78981L8.49996 13.212L13.9222 7.78981C14.485 7.22701 14.8012 6.46369 14.8012 5.66777C14.8012 4.87185 14.485 4.10853 13.9222 3.54573C13.3594 2.98293 12.5961 2.66675 11.8001 2.66675C11.0042 2.66675 10.2409 2.98293 9.67809 3.54573L8.97138 4.25243Z" fill="#3A3A3A"/>
</g>
<defs>
<clipPath id="clip0">
<rect width="16" height="16" fill="white" transform="translate(0.5)"/>
</clipPath>
</defs>
</svg>
