<svg width="453" height="339" viewBox="0 0 453 339" fill="none" xmlns="http://www.w3.org/2000/svg">
<path fill-rule="evenodd" clip-rule="evenodd" d="M192.62 142.543C187.738 146.253 188.514 153.553 189.985 158.856C192.149 166.666 196.46 173.895 201.378 180.126C210.103 191.181 224.915 203.594 238.568 193.889C250.726 185.246 258.396 167.805 261.043 153.115C261.861 148.575 262.951 141.81 259.107 138.397C253.424 133.352 243.398 134.27 236.537 134.92C232.019 135.347 227.659 136.798 223.194 136.117C212.82 134.533 201.274 135.968 192.62 142.543Z" fill="#FFE202"/>
<path fill-rule="evenodd" clip-rule="evenodd" d="M402.964 200.393C393.073 213.544 376.256 215.622 361.32 215.493C352.352 215.415 343.365 214.707 334.573 212.792C329.832 211.759 325.124 210.391 320.544 208.747C317.519 207.661 313.015 207.118 311.727 203.72C308.331 194.756 310.83 183.514 312.228 174.415C312.94 169.787 313.474 165.131 314.166 160.5C314.608 157.536 314.82 154.257 316.005 151.485C317.392 148.237 319.145 148.886 322.08 149.783C326.122 151.02 330.273 151.534 334.43 152.199C344.574 153.823 353.425 157.097 362.644 161.737C371.76 166.325 380.603 170.854 388.735 177.234C392.854 180.467 396.404 183.977 399.712 188.097C402.267 191.28 406.079 196.25 402.964 200.393ZM359.726 258.805C359.647 260.221 344.144 255.946 342.104 255.466C328.719 252.319 315.069 248.736 302.432 243.05C290.637 237.744 280.245 231.672 270.963 222.244C266.637 217.85 262.745 213.222 259.021 208.293C257.155 205.823 254.605 206.11 252.524 204.02C250.652 202.139 249.216 200.67 249.802 197.858C254.479 199.15 263.117 207.271 267.966 203.17C270.73 200.833 266.897 198.391 265.127 197.037C261.8 194.49 258.955 191.348 256.311 188.05C260.851 188.973 265.078 190.755 269.03 193.236C270.785 194.339 276.803 198.335 278.204 194.525C279.066 192.18 274.986 189.232 273.714 187.934C270.589 184.749 267.217 181.029 265.559 176.746C269.66 175.749 273.525 179.07 276.318 181.776C279.417 184.78 283.217 187.933 285.817 191.394C287.158 193.179 287.449 195.288 288.497 197.213C289.676 199.38 291.561 201.236 293.363 202.839C296.835 205.928 300.896 208.202 305.063 210.083C314.588 214.381 324.796 217.423 334.948 219.556C339.929 220.604 344.787 221.085 349.843 221.263C353.771 221.401 355.51 222.633 357.01 226.427C361.069 236.693 360.332 247.986 359.726 258.805ZM243.143 180.58C240.871 182.808 237.92 184.205 235.545 186.347C233.456 188.231 231.046 190.242 228.715 191.766C226.225 193.392 224.365 192.252 222.124 190.78C219.493 189.053 216.468 188.353 213.758 186.809C204.388 181.463 192.925 168.367 194.674 156.341C195.415 151.244 197.929 146.229 202.495 143.916C206.641 141.817 212.668 140.651 217.105 142.407C219.607 143.397 221.397 145.583 223 147.732C224.87 150.238 225.585 149.843 227.489 147.427C230.896 143.104 236.514 139.311 242.068 139.402C244.828 139.448 247.57 140.058 250.056 141.259C250.393 141.422 250.58 141.914 250.919 142.081C251.334 142.287 252.016 141.86 252.305 142.051C253.033 142.535 253.76 144.043 254.179 144.809C255.864 147.881 258.898 153.907 255.841 156.493C255.839 156.495 255.977 159.994 255.935 160.392C255.719 162.48 255.031 164.203 254.144 166.112C251.48 171.846 247.548 176.261 243.143 180.58ZM247.672 229.101C245.521 229.801 243.203 222.734 245.267 221.606C247.235 220.53 249.62 228.466 247.672 229.101ZM213.876 220.65C213.13 223.32 212.815 226.35 210.993 228.523C209.325 226.448 209.16 222.618 210.778 220.485C211.702 219.268 214.691 217.733 213.876 220.65ZM282.734 173.873C282.722 173.94 285.324 175.244 284.055 176.67C282.321 178.617 282.559 174.827 282.734 173.873ZM293.484 152.114C293.455 154.813 288.002 154.161 288.041 151.446C288.089 148.105 293.516 149.252 293.484 152.114ZM286.976 129.552C287.515 127.081 297 123.643 296.741 127.95C296.612 130.11 285.831 134.807 286.976 129.552ZM189.75 213.369C188.687 214.708 187.176 215.236 185.902 216.265C184.566 217.342 183.611 218.74 182.444 220.006C179.238 223.479 175.38 226.333 171.922 229.524C165.565 235.389 159.475 241.694 152.427 246.668C139.831 255.556 125.225 260.418 110.725 264.674C109.523 265.027 106.063 266.45 104.875 265.39C103.593 264.247 104.245 260.224 104.304 258.703C104.544 252.466 105.238 246.155 105.163 239.927C105.132 237.369 104.417 233.733 105.69 231.392C107.112 228.779 111.082 228.014 113.537 227.03C121.001 224.04 128.191 218.996 134.784 214.325C142.889 208.583 151.074 202.745 159.415 197.384C167.586 192.132 176.6 188.615 185.715 185.616C186.137 186.546 181.788 189.539 181.29 189.958C178.906 191.97 176.312 194.056 174.541 196.712C173.288 198.593 172.003 202.848 175.463 202.957C177.141 203.01 179.62 201.309 181.142 200.759C183.654 199.85 186.243 199.213 188.871 198.797C186.611 201.405 178.954 206.088 180.347 210.424C181.699 214.631 189.518 209.721 192.209 209.721C191.768 211.188 190.659 212.224 189.75 213.369ZM97.3743 225.112C92.3666 226.958 87.234 228.008 82.0659 229.199C77.1398 230.335 72.5866 231.191 67.5409 230.526C60.5748 229.608 52.8656 226.584 51.9824 218.287C50.9351 208.457 57.5588 199.424 63.2463 192.371C70.1684 183.791 77.9409 176.12 86.3648 169.174C94.779 162.235 103.861 156.117 113.376 150.953C120.615 147.023 128.79 144.638 136.444 141.689C137.9 141.128 141.928 139.157 143.289 140.791C144.39 142.112 142.892 144.312 142.391 145.539C141.412 147.93 141.277 150.337 141.025 152.904C139.896 164.37 138.538 175.832 137.913 187.347C137.739 190.556 137.432 193.913 137.61 197.124C137.709 198.903 138.592 201.168 138.004 202.904C136.874 206.243 131.697 208.452 128.953 209.943C124.041 212.613 118.84 214.605 113.877 217.158C108.427 219.962 103.121 222.994 97.3743 225.112ZM166.822 150.614C168.196 150.416 170.255 150.023 171.48 150.957C173.078 152.174 172.659 153.867 171.183 154.75C170.018 155.448 167.29 155.639 166.138 155.005C164.177 153.927 164.509 150.947 166.822 150.614ZM174.434 177.163C173.323 179.102 169.264 180.373 169.617 176.755C169.921 173.657 176.479 173.593 174.434 177.163ZM172.927 122.542C174.713 123.266 177.953 123.887 178.482 126.294C178.975 128.535 176.95 128.387 175.487 127.77C174.285 127.264 168.929 122.503 172.927 122.542ZM452.683 208.014C451.64 203.76 452.434 199.052 451.859 194.695C451.301 190.472 450.296 186.591 448.854 182.611C445.663 173.8 442.005 165.869 436.831 158.136C427.087 143.573 415.781 130.746 402.13 120.11C388.652 109.61 373.728 101.076 357.918 95.0951C341.154 88.7522 324.279 86.545 306.6 85.3291C301.32 84.9664 296.046 84.5362 290.797 83.8372C286.96 83.3266 282.15 82.6973 278.357 83.9289C275.974 84.7032 274.642 86.8813 277.238 88.3108C279.079 89.3241 281.489 89.4456 283.522 89.715C281.066 97.8917 277.07 106.097 270.738 111.727C264.556 117.224 256.283 119.109 248.481 120.503C244.251 121.258 239.513 121.843 235.217 121.517C232.501 121.312 230.381 119.994 229.285 122.926C228.525 124.963 228.165 127.198 227.162 124.122C225.976 120.486 225.394 120.509 221.705 119.476C214.161 117.363 205.511 115.436 198.929 110.868C192.101 106.128 189.726 98.4608 185.914 91.3211C184.972 89.5564 182.128 85.9849 183.581 83.9626C184.91 82.1136 189.231 82.298 191.209 82.1051C193.298 81.9016 195.399 81.8931 197.494 81.8076C198.708 81.7587 201.15 82.28 200.661 80.3798C199.924 77.5157 192.03 77.8829 190.07 77.8363C186.425 77.7508 182.729 77.8391 179.102 78.2592C161.118 80.3438 142.973 84.1982 125.57 89.3382C91.806 99.31 59.1052 117.684 34.4645 144.156C10.8116 169.566 3.31802 211.85 17.8587 244.295C25.4155 261.156 41.8147 268.083 57.7117 273.677C66.097 276.627 74.9759 278.936 83.8896 278.379C88.167 278.111 92.2255 276.905 96.3972 275.995C98.2167 275.598 100.287 274.966 102.156 275.125C103.57 275.246 104.93 276.607 106.256 275.884C107.198 275.371 107.607 273.897 108.758 273.27C110.141 272.517 111.816 272.244 113.308 271.865C117.456 270.809 121.473 269.096 125.528 267.692C129.721 266.239 133.678 264.369 137.701 262.478C139.733 261.522 144.433 257.64 145.757 260.479C146.361 261.774 146.104 264.273 146.251 265.632C146.508 268.008 146.811 270.38 147.142 272.746C147.87 277.956 148.743 283.144 149.637 288.326C151.25 297.675 153.33 306.626 156.807 315.421C159.583 322.443 162.02 330.403 167.175 335.989C169.425 338.428 172.496 339.525 175.723 338.759C179.395 337.887 181.222 334.392 183.451 331.566C188.354 325.347 196.451 320.582 203.926 318.866C213.08 316.766 221.998 319.838 230.736 322.45C239.979 325.212 249.388 327.844 258.461 331.164C266.915 334.259 276.043 338.829 285.211 338.431C293.207 338.085 300.674 331.265 306.441 326.066C312.232 320.845 319.473 313.199 327.8 313.815C331.935 314.12 335.703 316.211 339.731 317.06C344.152 317.994 348.858 318.126 353.354 318.474C358.935 318.906 371.422 317.38 373.487 310.343C373.793 309.299 373.795 307.149 372.48 306.731C371.269 306.348 370.651 307.83 369.505 307.762C367.173 307.625 365.35 303.363 364.069 301.712C358.898 295.051 351.805 290.082 346.003 284.065C339.451 277.27 333.858 269.038 328.921 260.918C331.153 260.311 333.56 261.321 335.721 261.8C338.345 262.383 340.903 263.087 343.489 263.833C346.34 264.656 349.232 265.222 352.125 265.849C354.283 266.315 357.148 266.457 359.097 267.591C360.797 268.582 361.747 269.646 363.858 269.934C366.006 270.226 368.21 269.98 370.368 269.965C376.202 269.923 382.025 269.809 387.832 269.163C408.352 266.878 430.104 257.782 442.443 239.728C445.798 234.817 448.502 229.377 450.211 223.605C451.544 219.098 453.843 212.746 452.683 208.014Z" fill="#3A3A3A"/>
<path fill-rule="evenodd" clip-rule="evenodd" d="M215.215 51.8709C211.563 53.0586 207.247 51.6611 205.148 48.2448C203.014 44.7711 201.553 40.7514 201.259 36.6135C200.978 32.6489 201.837 28.6348 204.068 25.3798C206.442 21.9174 211.28 18.0366 215.618 19.2389C216.532 19.4925 217.358 20.1027 218.178 20.7083C219.047 21.3505 219.909 21.9877 220.861 22.1868C221.105 22.2379 221.276 22.2863 221.404 22.3217C221.576 22.3701 221.668 22.396 221.75 22.3763C221.844 22.3538 221.924 22.2723 222.097 22.0974C222.195 21.9973 222.324 21.8668 222.502 21.6998C222.869 21.3562 223.224 20.8388 223.57 20.3327H223.571C223.804 19.9924 224.034 19.6567 224.261 19.3829C224.7 18.8559 225.137 18.3234 225.576 17.7897C228.397 14.3593 231.272 10.8631 234.72 8.1499C241.864 2.52799 251.359 -0.127301 260.223 0.00468505C265.615 0.0847088 270.669 1.76065 275.694 3.66598C276.116 3.82586 276.54 3.98456 276.966 4.14382L276.968 4.14438C281.003 5.65381 285.165 7.2107 288.397 10.235C294.824 16.2505 296.498 26.2104 297.549 34.7313C298.688 43.9591 295.55 51.8979 292.3 60.1224V60.1235L292.299 60.1252V60.1258C291.804 61.3776 291.306 62.6356 290.821 63.9054C287.385 72.9026 281.078 80.1913 273.581 85.7452C269.653 88.6543 265.313 90.4105 260.771 91.9502C259.829 92.2697 258.893 92.6116 257.957 92.9529H257.957H257.956C254.313 94.2823 250.682 95.6073 246.754 95.6011C239.259 95.5898 229.663 91.8586 226.47 84.1188C225.016 80.5945 226.432 79.9619 229.34 81.8773C229.849 82.2119 230.355 82.5498 230.861 82.8873V82.8878H230.861L230.863 82.8895C234.555 85.3538 238.224 87.8034 242.56 88.8871C252.123 91.2782 263.578 87.574 271.964 82.6859C280.346 77.7996 285.974 70.4586 289.735 61.3185C293.53 52.097 295.004 43.0104 293.541 33.0695C292.301 24.6448 289.834 16.9495 282.591 12.3764C266.954 2.50533 245.886 3.30067 231.981 16.129C230.073 17.8875 228.188 19.5988 226.223 21.2786C224.974 22.3459 223.503 23.6264 223.685 25.4721C223.724 25.8792 223.967 26.5861 224.24 27.3785C225.025 29.6639 226.058 32.6652 223.183 31.2756C221.998 30.7026 221.017 29.9226 220.05 29.1538C218.457 27.8874 216.902 26.6513 214.536 26.423C210.489 26.0316 205.661 29.2899 204.45 33.3912C203.295 37.3047 205.355 42.6589 208.58 44.9033C210.395 46.1663 212.375 46.1045 214.423 46.0404C214.629 46.0342 214.836 46.0274 215.043 46.0224C215.201 46.0184 215.399 46.0077 215.623 45.9954C217.001 45.9189 219.407 45.7862 220.048 46.8586C221.366 49.0647 216.716 51.3833 215.215 51.8709ZM263.933 69.3282C264.618 67.9161 265.296 66.5198 266.064 65.2579C266.419 64.6724 267 64.2681 267.556 63.8806H267.557C267.717 63.7693 267.875 63.6591 268.025 63.5466C269.9 66.6092 268.047 69.89 266.452 72.7153C266.267 73.0432 266.085 73.3648 265.913 73.6792C265.408 74.6015 264.915 75.562 264.418 76.5309C263.356 78.601 262.274 80.7081 261.02 82.5605C257.963 87.0751 251.312 82.1911 251.114 77.551C250.963 73.9992 253.363 75.5451 254.904 76.8717C256.491 78.2382 257.242 78.5785 258.904 77.086C261.139 75.0795 262.551 72.1715 263.933 69.3282ZM245.928 56.8174C246.601 52.1588 243.557 55.7765 242.907 57.9191C242.103 60.5627 241.438 64.2968 242.653 66.9202C244.885 71.7357 251.176 69.4407 254.204 66.8825C255.623 65.683 257.612 63.1844 257.544 61.102C257.427 57.4787 254.764 59.6511 253.126 60.9873H253.125C252.917 61.1577 252.724 61.3146 252.556 61.4439C252.488 61.4962 252.416 61.5519 252.34 61.6104C250.821 62.7869 247.801 65.1246 246.031 63.9678C244.405 62.9055 245.057 60.3822 245.57 58.3971C245.723 57.8049 245.864 57.2605 245.928 56.8174ZM254.929 38.0296C258.521 37.2799 263.148 37.6663 266.273 39.801C270.3 42.5509 265.005 44.531 262.711 44.7773C259.935 45.0742 256.385 45.2711 253.835 43.8432C250.22 41.8193 251.425 38.7617 254.929 38.0296ZM213.913 31.0467C211.167 30.4872 207.334 31.9403 209.224 35.364C210.636 37.9193 214.112 38.7792 216.833 39.4523C217.164 39.5339 217.484 39.6132 217.787 39.6919C220.812 40.4792 222.308 39.3185 221.267 35.8212C220.258 32.4363 216.875 31.6507 213.913 31.0467ZM271.268 66.8572C271.52 65.751 272.994 61.593 273.99 64.6454C274.143 65.1145 274.162 65.8028 274.182 66.5378C274.232 68.3953 274.29 70.5542 276.545 70.2404C277.708 70.079 278.259 68.8553 278.77 67.7215C279.023 67.1598 279.266 66.6199 279.569 66.242C282.643 62.405 281.7 69.6623 280.897 71.4787C279.127 75.4815 274.171 78.2399 271.713 73.1613C270.799 71.2723 270.803 68.8879 271.268 66.8572ZM282.842 50.7197H282.842C284.268 52.4557 286.645 55.3502 288.205 53.2537C289.726 51.2073 287.108 48.0362 285.802 46.4554C285.746 46.3868 285.691 46.321 285.64 46.2586C285.603 46.213 285.563 46.1646 285.521 46.1135C284.341 44.6705 281.314 40.9707 279.777 43.742C278.817 45.4769 281.071 48.747 282.142 49.8953C282.333 50.0995 282.57 50.3885 282.842 50.7197ZM240.951 84.7734C239.479 83.002 239.633 79.7189 240.467 77.6691C241.146 76 242.282 78.0662 242.94 79.2623C243.101 79.5542 243.233 79.7937 243.323 79.9152C243.617 80.3128 244.041 80.6811 244.476 81.0596C245.382 81.848 246.338 82.6792 246.276 83.9001C246.123 86.8828 242.244 86.3295 240.951 84.7734Z" fill="#3A3A3A"/>
<path fill-rule="evenodd" clip-rule="evenodd" d="M369.18 62.7283C367.564 62.2689 365.951 61.8094 364.345 61.3365C360.611 60.2354 364.139 57.7576 366.358 57.932C368.075 58.0664 369.753 58.6973 371.403 59.3176C372.132 59.5915 372.855 59.8637 373.575 60.0903C380.753 62.3493 387.407 64.8197 394.113 68.326C395.113 68.8496 399.519 71.3313 396.604 72.4301C395.074 73.0071 391.994 71.2706 389.837 70.0547C389.148 69.6661 388.553 69.331 388.133 69.1409C382.046 66.3898 375.596 64.5543 369.18 62.7283ZM430.137 118.483C406.126 102.87 382.216 87.5778 355.058 78.6335C353.643 78.1679 353.203 76.8447 353.945 75.5338C354.728 74.1521 356.231 74.2027 357.565 74.2477L357.679 74.2516C361.192 74.368 364.624 75.531 367.947 76.6574L368.37 76.8008C375.968 79.3725 383.205 82.9401 390.341 86.6691C402.853 93.2048 414.892 101.113 425.928 110.104C428.235 111.983 430.6 113.506 433.109 115.042C433.265 115.138 433.427 115.235 433.593 115.335C435.143 116.267 437.064 117.422 437.622 119.234C439.194 124.334 431.263 119.215 430.137 118.483ZM42.4104 113.842C33.6356 120.997 25.0609 128.447 17.128 136.612C14.3036 139.52 11.9497 142.845 9.59799 146.168C8.52113 147.69 7.44426 149.211 6.32287 150.691C6.20268 150.85 6.07015 151.036 5.92582 151.237C5.02323 152.498 3.67294 154.385 2.19973 154.176C0.325007 153.912 -0.0539634 150.528 0.00580864 149.05C0.210557 144.01 4.6022 139.143 7.73401 135.672C11.257 131.77 15.0236 127.968 18.8702 124.415C23.1052 120.503 27.7013 117.141 32.3849 113.849C34.0965 112.646 35.7813 111.374 37.4698 110.099C40.3173 107.949 43.1728 105.793 46.1759 103.954C48.4289 102.575 52.1698 102.051 50.9437 106.201C50.2274 108.626 47.4143 110.462 44.9596 112.065C44.0082 112.685 43.1111 113.271 42.4104 113.842ZM10.9812 103.923C15.9207 102.311 20.5008 99.8092 25.0808 97.3072C28.0651 95.6769 31.0499 94.0467 34.1335 92.6633C36.3511 91.6679 38.6009 90.7574 40.8501 89.847C42.8734 89.0276 44.8962 88.2088 46.896 87.3287C47.0843 87.2455 47.2882 87.1668 47.498 87.0852C48.5453 86.6792 49.7338 86.2181 49.8755 84.9246C50.0697 83.1341 49.0722 83.1875 47.8537 83.2527H47.8532C47.7749 83.2567 47.6954 83.2612 47.615 83.2646C44.8378 83.3956 41.9012 84.6856 39.1261 85.9048C37.9806 86.4087 36.8619 86.9002 35.7936 87.2927C34.8423 87.6425 33.8899 87.9839 32.9381 88.3247C29.957 89.3931 26.9845 90.4588 24.0769 91.7652C20.2083 93.5029 16.2577 95.3007 12.7739 97.8021C12.6504 97.8909 12.5217 97.9815 12.3897 98.0748C11.2361 98.8886 9.83998 99.8738 9.34098 101.218C8.84145 102.56 9.11671 104.532 10.9812 103.923Z" fill="#3A3A3A"/>
<path fill-rule="evenodd" clip-rule="evenodd" d="M215.484 69.3564C215.951 67.9213 221.724 52.2303 219.464 51.7574C217.071 51.2552 213.871 60.3593 213.177 62.0042C210.613 68.0788 209.095 74.5965 207.905 81.1125C207.076 85.6497 206.348 90.2976 206.638 94.9359C206.861 98.5007 208.266 99.0406 210.581 101.225C210.581 90.3971 212.151 79.6049 215.484 69.3564Z" fill="#3A3A3A"/>
</svg>
